%TF.GenerationSoftware,KiCad,Pcbnew,9.0.6*%
%TF.CreationDate,2025-11-29T14:17:50+08:00*%
%TF.ProjectId,Mount Winchester FL16,4d6f756e-7420-4576-996e-636865737465,1.1*%
%TF.SameCoordinates,Original*%
%TF.FileFunction,Copper,L2,Bot*%
%TF.FilePolarity,Positive*%
%FSLAX46Y46*%
G04 Gerber Fmt 4.6, Leading zero omitted, Abs format (unit mm)*
G04 Created by KiCad (PCBNEW 9.0.6) date 2025-11-29 14:17:50*
%MOMM*%
%LPD*%
G01*
G04 APERTURE LIST*
G04 Aperture macros list*
%AMRoundRect*
0 Rectangle with rounded corners*
0 $1 Rounding radius*
0 $2 $3 $4 $5 $6 $7 $8 $9 X,Y pos of 4 corners*
0 Add a 4 corners polygon primitive as box body*
4,1,4,$2,$3,$4,$5,$6,$7,$8,$9,$2,$3,0*
0 Add four circle primitives for the rounded corners*
1,1,$1+$1,$2,$3*
1,1,$1+$1,$4,$5*
1,1,$1+$1,$6,$7*
1,1,$1+$1,$8,$9*
0 Add four rect primitives between the rounded corners*
20,1,$1+$1,$2,$3,$4,$5,0*
20,1,$1+$1,$4,$5,$6,$7,0*
20,1,$1+$1,$6,$7,$8,$9,0*
20,1,$1+$1,$8,$9,$2,$3,0*%
G04 Aperture macros list end*
%ADD10C,0.100000*%
%ADD11C,0.150000*%
%ADD12C,0.300000*%
%ADD13C,0.400000*%
%TA.AperFunction,ComponentPad*%
%ADD14RoundRect,0.250000X1.050000X1.050000X-1.050000X1.050000X-1.050000X-1.050000X1.050000X-1.050000X0*%
%TD*%
%TA.AperFunction,ComponentPad*%
%ADD15C,2.600000*%
%TD*%
%TA.AperFunction,ComponentPad*%
%ADD16R,1.800000X1.800000*%
%TD*%
%TA.AperFunction,ComponentPad*%
%ADD17C,1.800000*%
%TD*%
%TA.AperFunction,ComponentPad*%
%ADD18RoundRect,0.250000X1.050000X-1.050000X1.050000X1.050000X-1.050000X1.050000X-1.050000X-1.050000X0*%
%TD*%
%TA.AperFunction,ConnectorPad*%
%ADD19R,1.780000X7.620000*%
%TD*%
%TA.AperFunction,ComponentPad*%
%ADD20C,1.600000*%
%TD*%
%TA.AperFunction,ComponentPad*%
%ADD21C,3.900000*%
%TD*%
%TA.AperFunction,ConnectorPad*%
%ADD22C,7.000000*%
%TD*%
%TA.AperFunction,ComponentPad*%
%ADD23C,3.600000*%
%TD*%
%TA.AperFunction,ConnectorPad*%
%ADD24C,5.600000*%
%TD*%
%TA.AperFunction,ViaPad*%
%ADD25C,0.600000*%
%TD*%
%TA.AperFunction,Conductor*%
%ADD26C,1.200000*%
%TD*%
%TA.AperFunction,Conductor*%
%ADD27C,0.200000*%
%TD*%
G04 APERTURE END LIST*
D10*
D11*
X299989000Y-253002200D02*
X407989000Y-253002200D01*
X407989000Y-285002200D01*
X299989000Y-285002200D01*
X299989000Y-253002200D01*
D10*
D11*
X10000000Y-10000000D02*
X409989000Y-10000000D01*
X409989000Y-287002200D01*
X10000000Y-287002200D01*
X10000000Y-10000000D01*
D10*
D11*
X12000000Y-12000000D02*
X407989000Y-12000000D01*
X407989000Y-285002200D01*
X12000000Y-285002200D01*
X12000000Y-12000000D01*
D10*
D11*
X60000000Y-12000000D02*
X60000000Y-10000000D01*
D10*
D11*
X110000000Y-12000000D02*
X110000000Y-10000000D01*
D10*
D11*
X160000000Y-12000000D02*
X160000000Y-10000000D01*
D10*
D11*
X210000000Y-12000000D02*
X210000000Y-10000000D01*
D10*
D11*
X260000000Y-12000000D02*
X260000000Y-10000000D01*
D10*
D11*
X310000000Y-12000000D02*
X310000000Y-10000000D01*
D10*
D11*
X360000000Y-12000000D02*
X360000000Y-10000000D01*
D10*
D11*
X36089160Y-11593604D02*
X35346303Y-11593604D01*
X35717731Y-11593604D02*
X35717731Y-10293604D01*
X35717731Y-10293604D02*
X35593922Y-10479319D01*
X35593922Y-10479319D02*
X35470112Y-10603128D01*
X35470112Y-10603128D02*
X35346303Y-10665033D01*
D10*
D11*
X85346303Y-10417414D02*
X85408207Y-10355509D01*
X85408207Y-10355509D02*
X85532017Y-10293604D01*
X85532017Y-10293604D02*
X85841541Y-10293604D01*
X85841541Y-10293604D02*
X85965350Y-10355509D01*
X85965350Y-10355509D02*
X86027255Y-10417414D01*
X86027255Y-10417414D02*
X86089160Y-10541223D01*
X86089160Y-10541223D02*
X86089160Y-10665033D01*
X86089160Y-10665033D02*
X86027255Y-10850747D01*
X86027255Y-10850747D02*
X85284398Y-11593604D01*
X85284398Y-11593604D02*
X86089160Y-11593604D01*
D10*
D11*
X135284398Y-10293604D02*
X136089160Y-10293604D01*
X136089160Y-10293604D02*
X135655826Y-10788842D01*
X135655826Y-10788842D02*
X135841541Y-10788842D01*
X135841541Y-10788842D02*
X135965350Y-10850747D01*
X135965350Y-10850747D02*
X136027255Y-10912652D01*
X136027255Y-10912652D02*
X136089160Y-11036461D01*
X136089160Y-11036461D02*
X136089160Y-11345985D01*
X136089160Y-11345985D02*
X136027255Y-11469795D01*
X136027255Y-11469795D02*
X135965350Y-11531700D01*
X135965350Y-11531700D02*
X135841541Y-11593604D01*
X135841541Y-11593604D02*
X135470112Y-11593604D01*
X135470112Y-11593604D02*
X135346303Y-11531700D01*
X135346303Y-11531700D02*
X135284398Y-11469795D01*
D10*
D11*
X185965350Y-10726938D02*
X185965350Y-11593604D01*
X185655826Y-10231700D02*
X185346303Y-11160271D01*
X185346303Y-11160271D02*
X186151064Y-11160271D01*
D10*
D11*
X236027255Y-10293604D02*
X235408207Y-10293604D01*
X235408207Y-10293604D02*
X235346303Y-10912652D01*
X235346303Y-10912652D02*
X235408207Y-10850747D01*
X235408207Y-10850747D02*
X235532017Y-10788842D01*
X235532017Y-10788842D02*
X235841541Y-10788842D01*
X235841541Y-10788842D02*
X235965350Y-10850747D01*
X235965350Y-10850747D02*
X236027255Y-10912652D01*
X236027255Y-10912652D02*
X236089160Y-11036461D01*
X236089160Y-11036461D02*
X236089160Y-11345985D01*
X236089160Y-11345985D02*
X236027255Y-11469795D01*
X236027255Y-11469795D02*
X235965350Y-11531700D01*
X235965350Y-11531700D02*
X235841541Y-11593604D01*
X235841541Y-11593604D02*
X235532017Y-11593604D01*
X235532017Y-11593604D02*
X235408207Y-11531700D01*
X235408207Y-11531700D02*
X235346303Y-11469795D01*
D10*
D11*
X285965350Y-10293604D02*
X285717731Y-10293604D01*
X285717731Y-10293604D02*
X285593922Y-10355509D01*
X285593922Y-10355509D02*
X285532017Y-10417414D01*
X285532017Y-10417414D02*
X285408207Y-10603128D01*
X285408207Y-10603128D02*
X285346303Y-10850747D01*
X285346303Y-10850747D02*
X285346303Y-11345985D01*
X285346303Y-11345985D02*
X285408207Y-11469795D01*
X285408207Y-11469795D02*
X285470112Y-11531700D01*
X285470112Y-11531700D02*
X285593922Y-11593604D01*
X285593922Y-11593604D02*
X285841541Y-11593604D01*
X285841541Y-11593604D02*
X285965350Y-11531700D01*
X285965350Y-11531700D02*
X286027255Y-11469795D01*
X286027255Y-11469795D02*
X286089160Y-11345985D01*
X286089160Y-11345985D02*
X286089160Y-11036461D01*
X286089160Y-11036461D02*
X286027255Y-10912652D01*
X286027255Y-10912652D02*
X285965350Y-10850747D01*
X285965350Y-10850747D02*
X285841541Y-10788842D01*
X285841541Y-10788842D02*
X285593922Y-10788842D01*
X285593922Y-10788842D02*
X285470112Y-10850747D01*
X285470112Y-10850747D02*
X285408207Y-10912652D01*
X285408207Y-10912652D02*
X285346303Y-11036461D01*
D10*
D11*
X335284398Y-10293604D02*
X336151064Y-10293604D01*
X336151064Y-10293604D02*
X335593922Y-11593604D01*
D10*
D11*
X385593922Y-10850747D02*
X385470112Y-10788842D01*
X385470112Y-10788842D02*
X385408207Y-10726938D01*
X385408207Y-10726938D02*
X385346303Y-10603128D01*
X385346303Y-10603128D02*
X385346303Y-10541223D01*
X385346303Y-10541223D02*
X385408207Y-10417414D01*
X385408207Y-10417414D02*
X385470112Y-10355509D01*
X385470112Y-10355509D02*
X385593922Y-10293604D01*
X385593922Y-10293604D02*
X385841541Y-10293604D01*
X385841541Y-10293604D02*
X385965350Y-10355509D01*
X385965350Y-10355509D02*
X386027255Y-10417414D01*
X386027255Y-10417414D02*
X386089160Y-10541223D01*
X386089160Y-10541223D02*
X386089160Y-10603128D01*
X386089160Y-10603128D02*
X386027255Y-10726938D01*
X386027255Y-10726938D02*
X385965350Y-10788842D01*
X385965350Y-10788842D02*
X385841541Y-10850747D01*
X385841541Y-10850747D02*
X385593922Y-10850747D01*
X385593922Y-10850747D02*
X385470112Y-10912652D01*
X385470112Y-10912652D02*
X385408207Y-10974557D01*
X385408207Y-10974557D02*
X385346303Y-11098366D01*
X385346303Y-11098366D02*
X385346303Y-11345985D01*
X385346303Y-11345985D02*
X385408207Y-11469795D01*
X385408207Y-11469795D02*
X385470112Y-11531700D01*
X385470112Y-11531700D02*
X385593922Y-11593604D01*
X385593922Y-11593604D02*
X385841541Y-11593604D01*
X385841541Y-11593604D02*
X385965350Y-11531700D01*
X385965350Y-11531700D02*
X386027255Y-11469795D01*
X386027255Y-11469795D02*
X386089160Y-11345985D01*
X386089160Y-11345985D02*
X386089160Y-11098366D01*
X386089160Y-11098366D02*
X386027255Y-10974557D01*
X386027255Y-10974557D02*
X385965350Y-10912652D01*
X385965350Y-10912652D02*
X385841541Y-10850747D01*
D10*
D11*
X60000000Y-285002200D02*
X60000000Y-287002200D01*
D10*
D11*
X110000000Y-285002200D02*
X110000000Y-287002200D01*
D10*
D11*
X160000000Y-285002200D02*
X160000000Y-287002200D01*
D10*
D11*
X210000000Y-285002200D02*
X210000000Y-287002200D01*
D10*
D11*
X260000000Y-285002200D02*
X260000000Y-287002200D01*
D10*
D11*
X310000000Y-285002200D02*
X310000000Y-287002200D01*
D10*
D11*
X360000000Y-285002200D02*
X360000000Y-287002200D01*
D10*
D11*
X36089160Y-286595804D02*
X35346303Y-286595804D01*
X35717731Y-286595804D02*
X35717731Y-285295804D01*
X35717731Y-285295804D02*
X35593922Y-285481519D01*
X35593922Y-285481519D02*
X35470112Y-285605328D01*
X35470112Y-285605328D02*
X35346303Y-285667233D01*
D10*
D11*
X85346303Y-285419614D02*
X85408207Y-285357709D01*
X85408207Y-285357709D02*
X85532017Y-285295804D01*
X85532017Y-285295804D02*
X85841541Y-285295804D01*
X85841541Y-285295804D02*
X85965350Y-285357709D01*
X85965350Y-285357709D02*
X86027255Y-285419614D01*
X86027255Y-285419614D02*
X86089160Y-285543423D01*
X86089160Y-285543423D02*
X86089160Y-285667233D01*
X86089160Y-285667233D02*
X86027255Y-285852947D01*
X86027255Y-285852947D02*
X85284398Y-286595804D01*
X85284398Y-286595804D02*
X86089160Y-286595804D01*
D10*
D11*
X135284398Y-285295804D02*
X136089160Y-285295804D01*
X136089160Y-285295804D02*
X135655826Y-285791042D01*
X135655826Y-285791042D02*
X135841541Y-285791042D01*
X135841541Y-285791042D02*
X135965350Y-285852947D01*
X135965350Y-285852947D02*
X136027255Y-285914852D01*
X136027255Y-285914852D02*
X136089160Y-286038661D01*
X136089160Y-286038661D02*
X136089160Y-286348185D01*
X136089160Y-286348185D02*
X136027255Y-286471995D01*
X136027255Y-286471995D02*
X135965350Y-286533900D01*
X135965350Y-286533900D02*
X135841541Y-286595804D01*
X135841541Y-286595804D02*
X135470112Y-286595804D01*
X135470112Y-286595804D02*
X135346303Y-286533900D01*
X135346303Y-286533900D02*
X135284398Y-286471995D01*
D10*
D11*
X185965350Y-285729138D02*
X185965350Y-286595804D01*
X185655826Y-285233900D02*
X185346303Y-286162471D01*
X185346303Y-286162471D02*
X186151064Y-286162471D01*
D10*
D11*
X236027255Y-285295804D02*
X235408207Y-285295804D01*
X235408207Y-285295804D02*
X235346303Y-285914852D01*
X235346303Y-285914852D02*
X235408207Y-285852947D01*
X235408207Y-285852947D02*
X235532017Y-285791042D01*
X235532017Y-285791042D02*
X235841541Y-285791042D01*
X235841541Y-285791042D02*
X235965350Y-285852947D01*
X235965350Y-285852947D02*
X236027255Y-285914852D01*
X236027255Y-285914852D02*
X236089160Y-286038661D01*
X236089160Y-286038661D02*
X236089160Y-286348185D01*
X236089160Y-286348185D02*
X236027255Y-286471995D01*
X236027255Y-286471995D02*
X235965350Y-286533900D01*
X235965350Y-286533900D02*
X235841541Y-286595804D01*
X235841541Y-286595804D02*
X235532017Y-286595804D01*
X235532017Y-286595804D02*
X235408207Y-286533900D01*
X235408207Y-286533900D02*
X235346303Y-286471995D01*
D10*
D11*
X285965350Y-285295804D02*
X285717731Y-285295804D01*
X285717731Y-285295804D02*
X285593922Y-285357709D01*
X285593922Y-285357709D02*
X285532017Y-285419614D01*
X285532017Y-285419614D02*
X285408207Y-285605328D01*
X285408207Y-285605328D02*
X285346303Y-285852947D01*
X285346303Y-285852947D02*
X285346303Y-286348185D01*
X285346303Y-286348185D02*
X285408207Y-286471995D01*
X285408207Y-286471995D02*
X285470112Y-286533900D01*
X285470112Y-286533900D02*
X285593922Y-286595804D01*
X285593922Y-286595804D02*
X285841541Y-286595804D01*
X285841541Y-286595804D02*
X285965350Y-286533900D01*
X285965350Y-286533900D02*
X286027255Y-286471995D01*
X286027255Y-286471995D02*
X286089160Y-286348185D01*
X286089160Y-286348185D02*
X286089160Y-286038661D01*
X286089160Y-286038661D02*
X286027255Y-285914852D01*
X286027255Y-285914852D02*
X285965350Y-285852947D01*
X285965350Y-285852947D02*
X285841541Y-285791042D01*
X285841541Y-285791042D02*
X285593922Y-285791042D01*
X285593922Y-285791042D02*
X285470112Y-285852947D01*
X285470112Y-285852947D02*
X285408207Y-285914852D01*
X285408207Y-285914852D02*
X285346303Y-286038661D01*
D10*
D11*
X335284398Y-285295804D02*
X336151064Y-285295804D01*
X336151064Y-285295804D02*
X335593922Y-286595804D01*
D10*
D11*
X385593922Y-285852947D02*
X385470112Y-285791042D01*
X385470112Y-285791042D02*
X385408207Y-285729138D01*
X385408207Y-285729138D02*
X385346303Y-285605328D01*
X385346303Y-285605328D02*
X385346303Y-285543423D01*
X385346303Y-285543423D02*
X385408207Y-285419614D01*
X385408207Y-285419614D02*
X385470112Y-285357709D01*
X385470112Y-285357709D02*
X385593922Y-285295804D01*
X385593922Y-285295804D02*
X385841541Y-285295804D01*
X385841541Y-285295804D02*
X385965350Y-285357709D01*
X385965350Y-285357709D02*
X386027255Y-285419614D01*
X386027255Y-285419614D02*
X386089160Y-285543423D01*
X386089160Y-285543423D02*
X386089160Y-285605328D01*
X386089160Y-285605328D02*
X386027255Y-285729138D01*
X386027255Y-285729138D02*
X385965350Y-285791042D01*
X385965350Y-285791042D02*
X385841541Y-285852947D01*
X385841541Y-285852947D02*
X385593922Y-285852947D01*
X385593922Y-285852947D02*
X385470112Y-285914852D01*
X385470112Y-285914852D02*
X385408207Y-285976757D01*
X385408207Y-285976757D02*
X385346303Y-286100566D01*
X385346303Y-286100566D02*
X385346303Y-286348185D01*
X385346303Y-286348185D02*
X385408207Y-286471995D01*
X385408207Y-286471995D02*
X385470112Y-286533900D01*
X385470112Y-286533900D02*
X385593922Y-286595804D01*
X385593922Y-286595804D02*
X385841541Y-286595804D01*
X385841541Y-286595804D02*
X385965350Y-286533900D01*
X385965350Y-286533900D02*
X386027255Y-286471995D01*
X386027255Y-286471995D02*
X386089160Y-286348185D01*
X386089160Y-286348185D02*
X386089160Y-286100566D01*
X386089160Y-286100566D02*
X386027255Y-285976757D01*
X386027255Y-285976757D02*
X385965350Y-285914852D01*
X385965350Y-285914852D02*
X385841541Y-285852947D01*
D10*
D11*
X10000000Y-60000000D02*
X12000000Y-60000000D01*
D10*
D11*
X10000000Y-110000000D02*
X12000000Y-110000000D01*
D10*
D11*
X10000000Y-160000000D02*
X12000000Y-160000000D01*
D10*
D11*
X10000000Y-210000000D02*
X12000000Y-210000000D01*
D10*
D11*
X10000000Y-260000000D02*
X12000000Y-260000000D01*
D10*
D11*
X10690476Y-35222176D02*
X11309523Y-35222176D01*
X10566666Y-35593604D02*
X10999999Y-34293604D01*
X10999999Y-34293604D02*
X11433333Y-35593604D01*
D10*
D11*
X11092857Y-84912652D02*
X11278571Y-84974557D01*
X11278571Y-84974557D02*
X11340476Y-85036461D01*
X11340476Y-85036461D02*
X11402380Y-85160271D01*
X11402380Y-85160271D02*
X11402380Y-85345985D01*
X11402380Y-85345985D02*
X11340476Y-85469795D01*
X11340476Y-85469795D02*
X11278571Y-85531700D01*
X11278571Y-85531700D02*
X11154761Y-85593604D01*
X11154761Y-85593604D02*
X10659523Y-85593604D01*
X10659523Y-85593604D02*
X10659523Y-84293604D01*
X10659523Y-84293604D02*
X11092857Y-84293604D01*
X11092857Y-84293604D02*
X11216666Y-84355509D01*
X11216666Y-84355509D02*
X11278571Y-84417414D01*
X11278571Y-84417414D02*
X11340476Y-84541223D01*
X11340476Y-84541223D02*
X11340476Y-84665033D01*
X11340476Y-84665033D02*
X11278571Y-84788842D01*
X11278571Y-84788842D02*
X11216666Y-84850747D01*
X11216666Y-84850747D02*
X11092857Y-84912652D01*
X11092857Y-84912652D02*
X10659523Y-84912652D01*
D10*
D11*
X11402380Y-135469795D02*
X11340476Y-135531700D01*
X11340476Y-135531700D02*
X11154761Y-135593604D01*
X11154761Y-135593604D02*
X11030952Y-135593604D01*
X11030952Y-135593604D02*
X10845238Y-135531700D01*
X10845238Y-135531700D02*
X10721428Y-135407890D01*
X10721428Y-135407890D02*
X10659523Y-135284080D01*
X10659523Y-135284080D02*
X10597619Y-135036461D01*
X10597619Y-135036461D02*
X10597619Y-134850747D01*
X10597619Y-134850747D02*
X10659523Y-134603128D01*
X10659523Y-134603128D02*
X10721428Y-134479319D01*
X10721428Y-134479319D02*
X10845238Y-134355509D01*
X10845238Y-134355509D02*
X11030952Y-134293604D01*
X11030952Y-134293604D02*
X11154761Y-134293604D01*
X11154761Y-134293604D02*
X11340476Y-134355509D01*
X11340476Y-134355509D02*
X11402380Y-134417414D01*
D10*
D11*
X10659523Y-185593604D02*
X10659523Y-184293604D01*
X10659523Y-184293604D02*
X10969047Y-184293604D01*
X10969047Y-184293604D02*
X11154761Y-184355509D01*
X11154761Y-184355509D02*
X11278571Y-184479319D01*
X11278571Y-184479319D02*
X11340476Y-184603128D01*
X11340476Y-184603128D02*
X11402380Y-184850747D01*
X11402380Y-184850747D02*
X11402380Y-185036461D01*
X11402380Y-185036461D02*
X11340476Y-185284080D01*
X11340476Y-185284080D02*
X11278571Y-185407890D01*
X11278571Y-185407890D02*
X11154761Y-185531700D01*
X11154761Y-185531700D02*
X10969047Y-185593604D01*
X10969047Y-185593604D02*
X10659523Y-185593604D01*
D10*
D11*
X10721428Y-234912652D02*
X11154762Y-234912652D01*
X11340476Y-235593604D02*
X10721428Y-235593604D01*
X10721428Y-235593604D02*
X10721428Y-234293604D01*
X10721428Y-234293604D02*
X11340476Y-234293604D01*
D10*
D11*
X11185714Y-284912652D02*
X10752380Y-284912652D01*
X10752380Y-285593604D02*
X10752380Y-284293604D01*
X10752380Y-284293604D02*
X11371428Y-284293604D01*
D10*
D11*
X409989000Y-60000000D02*
X407989000Y-60000000D01*
D10*
D11*
X409989000Y-110000000D02*
X407989000Y-110000000D01*
D10*
D11*
X409989000Y-160000000D02*
X407989000Y-160000000D01*
D10*
D11*
X409989000Y-210000000D02*
X407989000Y-210000000D01*
D10*
D11*
X409989000Y-260000000D02*
X407989000Y-260000000D01*
D10*
D11*
X408679476Y-35222176D02*
X409298523Y-35222176D01*
X408555666Y-35593604D02*
X408988999Y-34293604D01*
X408988999Y-34293604D02*
X409422333Y-35593604D01*
D10*
D11*
X409081857Y-84912652D02*
X409267571Y-84974557D01*
X409267571Y-84974557D02*
X409329476Y-85036461D01*
X409329476Y-85036461D02*
X409391380Y-85160271D01*
X409391380Y-85160271D02*
X409391380Y-85345985D01*
X409391380Y-85345985D02*
X409329476Y-85469795D01*
X409329476Y-85469795D02*
X409267571Y-85531700D01*
X409267571Y-85531700D02*
X409143761Y-85593604D01*
X409143761Y-85593604D02*
X408648523Y-85593604D01*
X408648523Y-85593604D02*
X408648523Y-84293604D01*
X408648523Y-84293604D02*
X409081857Y-84293604D01*
X409081857Y-84293604D02*
X409205666Y-84355509D01*
X409205666Y-84355509D02*
X409267571Y-84417414D01*
X409267571Y-84417414D02*
X409329476Y-84541223D01*
X409329476Y-84541223D02*
X409329476Y-84665033D01*
X409329476Y-84665033D02*
X409267571Y-84788842D01*
X409267571Y-84788842D02*
X409205666Y-84850747D01*
X409205666Y-84850747D02*
X409081857Y-84912652D01*
X409081857Y-84912652D02*
X408648523Y-84912652D01*
D10*
D11*
X409391380Y-135469795D02*
X409329476Y-135531700D01*
X409329476Y-135531700D02*
X409143761Y-135593604D01*
X409143761Y-135593604D02*
X409019952Y-135593604D01*
X409019952Y-135593604D02*
X408834238Y-135531700D01*
X408834238Y-135531700D02*
X408710428Y-135407890D01*
X408710428Y-135407890D02*
X408648523Y-135284080D01*
X408648523Y-135284080D02*
X408586619Y-135036461D01*
X408586619Y-135036461D02*
X408586619Y-134850747D01*
X408586619Y-134850747D02*
X408648523Y-134603128D01*
X408648523Y-134603128D02*
X408710428Y-134479319D01*
X408710428Y-134479319D02*
X408834238Y-134355509D01*
X408834238Y-134355509D02*
X409019952Y-134293604D01*
X409019952Y-134293604D02*
X409143761Y-134293604D01*
X409143761Y-134293604D02*
X409329476Y-134355509D01*
X409329476Y-134355509D02*
X409391380Y-134417414D01*
D10*
D11*
X408648523Y-185593604D02*
X408648523Y-184293604D01*
X408648523Y-184293604D02*
X408958047Y-184293604D01*
X408958047Y-184293604D02*
X409143761Y-184355509D01*
X409143761Y-184355509D02*
X409267571Y-184479319D01*
X409267571Y-184479319D02*
X409329476Y-184603128D01*
X409329476Y-184603128D02*
X409391380Y-184850747D01*
X409391380Y-184850747D02*
X409391380Y-185036461D01*
X409391380Y-185036461D02*
X409329476Y-185284080D01*
X409329476Y-185284080D02*
X409267571Y-185407890D01*
X409267571Y-185407890D02*
X409143761Y-185531700D01*
X409143761Y-185531700D02*
X408958047Y-185593604D01*
X408958047Y-185593604D02*
X408648523Y-185593604D01*
D10*
D11*
X408710428Y-234912652D02*
X409143762Y-234912652D01*
X409329476Y-235593604D02*
X408710428Y-235593604D01*
X408710428Y-235593604D02*
X408710428Y-234293604D01*
X408710428Y-234293604D02*
X409329476Y-234293604D01*
D10*
D11*
X409174714Y-284912652D02*
X408741380Y-284912652D01*
X408741380Y-285593604D02*
X408741380Y-284293604D01*
X408741380Y-284293604D02*
X409360428Y-284293604D01*
D10*
D11*
X323444826Y-280788328D02*
X323444826Y-279288328D01*
X323444826Y-279288328D02*
X323801969Y-279288328D01*
X323801969Y-279288328D02*
X324016255Y-279359757D01*
X324016255Y-279359757D02*
X324159112Y-279502614D01*
X324159112Y-279502614D02*
X324230541Y-279645471D01*
X324230541Y-279645471D02*
X324301969Y-279931185D01*
X324301969Y-279931185D02*
X324301969Y-280145471D01*
X324301969Y-280145471D02*
X324230541Y-280431185D01*
X324230541Y-280431185D02*
X324159112Y-280574042D01*
X324159112Y-280574042D02*
X324016255Y-280716900D01*
X324016255Y-280716900D02*
X323801969Y-280788328D01*
X323801969Y-280788328D02*
X323444826Y-280788328D01*
X325587684Y-280788328D02*
X325587684Y-280002614D01*
X325587684Y-280002614D02*
X325516255Y-279859757D01*
X325516255Y-279859757D02*
X325373398Y-279788328D01*
X325373398Y-279788328D02*
X325087684Y-279788328D01*
X325087684Y-279788328D02*
X324944826Y-279859757D01*
X325587684Y-280716900D02*
X325444826Y-280788328D01*
X325444826Y-280788328D02*
X325087684Y-280788328D01*
X325087684Y-280788328D02*
X324944826Y-280716900D01*
X324944826Y-280716900D02*
X324873398Y-280574042D01*
X324873398Y-280574042D02*
X324873398Y-280431185D01*
X324873398Y-280431185D02*
X324944826Y-280288328D01*
X324944826Y-280288328D02*
X325087684Y-280216900D01*
X325087684Y-280216900D02*
X325444826Y-280216900D01*
X325444826Y-280216900D02*
X325587684Y-280145471D01*
X326087684Y-279788328D02*
X326659112Y-279788328D01*
X326301969Y-279288328D02*
X326301969Y-280574042D01*
X326301969Y-280574042D02*
X326373398Y-280716900D01*
X326373398Y-280716900D02*
X326516255Y-280788328D01*
X326516255Y-280788328D02*
X326659112Y-280788328D01*
X327730541Y-280716900D02*
X327587684Y-280788328D01*
X327587684Y-280788328D02*
X327301970Y-280788328D01*
X327301970Y-280788328D02*
X327159112Y-280716900D01*
X327159112Y-280716900D02*
X327087684Y-280574042D01*
X327087684Y-280574042D02*
X327087684Y-280002614D01*
X327087684Y-280002614D02*
X327159112Y-279859757D01*
X327159112Y-279859757D02*
X327301970Y-279788328D01*
X327301970Y-279788328D02*
X327587684Y-279788328D01*
X327587684Y-279788328D02*
X327730541Y-279859757D01*
X327730541Y-279859757D02*
X327801970Y-280002614D01*
X327801970Y-280002614D02*
X327801970Y-280145471D01*
X327801970Y-280145471D02*
X327087684Y-280288328D01*
X328444826Y-280645471D02*
X328516255Y-280716900D01*
X328516255Y-280716900D02*
X328444826Y-280788328D01*
X328444826Y-280788328D02*
X328373398Y-280716900D01*
X328373398Y-280716900D02*
X328444826Y-280645471D01*
X328444826Y-280645471D02*
X328444826Y-280788328D01*
X328444826Y-279859757D02*
X328516255Y-279931185D01*
X328516255Y-279931185D02*
X328444826Y-280002614D01*
X328444826Y-280002614D02*
X328373398Y-279931185D01*
X328373398Y-279931185D02*
X328444826Y-279859757D01*
X328444826Y-279859757D02*
X328444826Y-280002614D01*
D10*
D11*
X299989000Y-281502200D02*
X407989000Y-281502200D01*
D10*
D11*
X301444826Y-283588328D02*
X301444826Y-282088328D01*
X302301969Y-283588328D02*
X301659112Y-282731185D01*
X302301969Y-282088328D02*
X301444826Y-282945471D01*
X302944826Y-283588328D02*
X302944826Y-282588328D01*
X302944826Y-282088328D02*
X302873398Y-282159757D01*
X302873398Y-282159757D02*
X302944826Y-282231185D01*
X302944826Y-282231185D02*
X303016255Y-282159757D01*
X303016255Y-282159757D02*
X302944826Y-282088328D01*
X302944826Y-282088328D02*
X302944826Y-282231185D01*
X304516255Y-283445471D02*
X304444827Y-283516900D01*
X304444827Y-283516900D02*
X304230541Y-283588328D01*
X304230541Y-283588328D02*
X304087684Y-283588328D01*
X304087684Y-283588328D02*
X303873398Y-283516900D01*
X303873398Y-283516900D02*
X303730541Y-283374042D01*
X303730541Y-283374042D02*
X303659112Y-283231185D01*
X303659112Y-283231185D02*
X303587684Y-282945471D01*
X303587684Y-282945471D02*
X303587684Y-282731185D01*
X303587684Y-282731185D02*
X303659112Y-282445471D01*
X303659112Y-282445471D02*
X303730541Y-282302614D01*
X303730541Y-282302614D02*
X303873398Y-282159757D01*
X303873398Y-282159757D02*
X304087684Y-282088328D01*
X304087684Y-282088328D02*
X304230541Y-282088328D01*
X304230541Y-282088328D02*
X304444827Y-282159757D01*
X304444827Y-282159757D02*
X304516255Y-282231185D01*
X305801970Y-283588328D02*
X305801970Y-282802614D01*
X305801970Y-282802614D02*
X305730541Y-282659757D01*
X305730541Y-282659757D02*
X305587684Y-282588328D01*
X305587684Y-282588328D02*
X305301970Y-282588328D01*
X305301970Y-282588328D02*
X305159112Y-282659757D01*
X305801970Y-283516900D02*
X305659112Y-283588328D01*
X305659112Y-283588328D02*
X305301970Y-283588328D01*
X305301970Y-283588328D02*
X305159112Y-283516900D01*
X305159112Y-283516900D02*
X305087684Y-283374042D01*
X305087684Y-283374042D02*
X305087684Y-283231185D01*
X305087684Y-283231185D02*
X305159112Y-283088328D01*
X305159112Y-283088328D02*
X305301970Y-283016900D01*
X305301970Y-283016900D02*
X305659112Y-283016900D01*
X305659112Y-283016900D02*
X305801970Y-282945471D01*
X307159113Y-283588328D02*
X307159113Y-282088328D01*
X307159113Y-283516900D02*
X307016255Y-283588328D01*
X307016255Y-283588328D02*
X306730541Y-283588328D01*
X306730541Y-283588328D02*
X306587684Y-283516900D01*
X306587684Y-283516900D02*
X306516255Y-283445471D01*
X306516255Y-283445471D02*
X306444827Y-283302614D01*
X306444827Y-283302614D02*
X306444827Y-282874042D01*
X306444827Y-282874042D02*
X306516255Y-282731185D01*
X306516255Y-282731185D02*
X306587684Y-282659757D01*
X306587684Y-282659757D02*
X306730541Y-282588328D01*
X306730541Y-282588328D02*
X307016255Y-282588328D01*
X307016255Y-282588328D02*
X307159113Y-282659757D01*
X309016255Y-282802614D02*
X309516255Y-282802614D01*
X309730541Y-283588328D02*
X309016255Y-283588328D01*
X309016255Y-283588328D02*
X309016255Y-282088328D01*
X309016255Y-282088328D02*
X309730541Y-282088328D01*
X310373398Y-283445471D02*
X310444827Y-283516900D01*
X310444827Y-283516900D02*
X310373398Y-283588328D01*
X310373398Y-283588328D02*
X310301970Y-283516900D01*
X310301970Y-283516900D02*
X310373398Y-283445471D01*
X310373398Y-283445471D02*
X310373398Y-283588328D01*
X311087684Y-283588328D02*
X311087684Y-282088328D01*
X311087684Y-282088328D02*
X311444827Y-282088328D01*
X311444827Y-282088328D02*
X311659113Y-282159757D01*
X311659113Y-282159757D02*
X311801970Y-282302614D01*
X311801970Y-282302614D02*
X311873399Y-282445471D01*
X311873399Y-282445471D02*
X311944827Y-282731185D01*
X311944827Y-282731185D02*
X311944827Y-282945471D01*
X311944827Y-282945471D02*
X311873399Y-283231185D01*
X311873399Y-283231185D02*
X311801970Y-283374042D01*
X311801970Y-283374042D02*
X311659113Y-283516900D01*
X311659113Y-283516900D02*
X311444827Y-283588328D01*
X311444827Y-283588328D02*
X311087684Y-283588328D01*
X312587684Y-283445471D02*
X312659113Y-283516900D01*
X312659113Y-283516900D02*
X312587684Y-283588328D01*
X312587684Y-283588328D02*
X312516256Y-283516900D01*
X312516256Y-283516900D02*
X312587684Y-283445471D01*
X312587684Y-283445471D02*
X312587684Y-283588328D01*
X313230542Y-283159757D02*
X313944828Y-283159757D01*
X313087685Y-283588328D02*
X313587685Y-282088328D01*
X313587685Y-282088328D02*
X314087685Y-283588328D01*
X314587684Y-283445471D02*
X314659113Y-283516900D01*
X314659113Y-283516900D02*
X314587684Y-283588328D01*
X314587684Y-283588328D02*
X314516256Y-283516900D01*
X314516256Y-283516900D02*
X314587684Y-283445471D01*
X314587684Y-283445471D02*
X314587684Y-283588328D01*
X316516256Y-283588328D02*
X316801970Y-283588328D01*
X316801970Y-283588328D02*
X316944827Y-283516900D01*
X316944827Y-283516900D02*
X317016256Y-283445471D01*
X317016256Y-283445471D02*
X317159113Y-283231185D01*
X317159113Y-283231185D02*
X317230542Y-282945471D01*
X317230542Y-282945471D02*
X317230542Y-282374042D01*
X317230542Y-282374042D02*
X317159113Y-282231185D01*
X317159113Y-282231185D02*
X317087685Y-282159757D01*
X317087685Y-282159757D02*
X316944827Y-282088328D01*
X316944827Y-282088328D02*
X316659113Y-282088328D01*
X316659113Y-282088328D02*
X316516256Y-282159757D01*
X316516256Y-282159757D02*
X316444827Y-282231185D01*
X316444827Y-282231185D02*
X316373399Y-282374042D01*
X316373399Y-282374042D02*
X316373399Y-282731185D01*
X316373399Y-282731185D02*
X316444827Y-282874042D01*
X316444827Y-282874042D02*
X316516256Y-282945471D01*
X316516256Y-282945471D02*
X316659113Y-283016900D01*
X316659113Y-283016900D02*
X316944827Y-283016900D01*
X316944827Y-283016900D02*
X317087685Y-282945471D01*
X317087685Y-282945471D02*
X317159113Y-282874042D01*
X317159113Y-282874042D02*
X317230542Y-282731185D01*
X317873398Y-283445471D02*
X317944827Y-283516900D01*
X317944827Y-283516900D02*
X317873398Y-283588328D01*
X317873398Y-283588328D02*
X317801970Y-283516900D01*
X317801970Y-283516900D02*
X317873398Y-283445471D01*
X317873398Y-283445471D02*
X317873398Y-283588328D01*
X318873399Y-282088328D02*
X319016256Y-282088328D01*
X319016256Y-282088328D02*
X319159113Y-282159757D01*
X319159113Y-282159757D02*
X319230542Y-282231185D01*
X319230542Y-282231185D02*
X319301970Y-282374042D01*
X319301970Y-282374042D02*
X319373399Y-282659757D01*
X319373399Y-282659757D02*
X319373399Y-283016900D01*
X319373399Y-283016900D02*
X319301970Y-283302614D01*
X319301970Y-283302614D02*
X319230542Y-283445471D01*
X319230542Y-283445471D02*
X319159113Y-283516900D01*
X319159113Y-283516900D02*
X319016256Y-283588328D01*
X319016256Y-283588328D02*
X318873399Y-283588328D01*
X318873399Y-283588328D02*
X318730542Y-283516900D01*
X318730542Y-283516900D02*
X318659113Y-283445471D01*
X318659113Y-283445471D02*
X318587684Y-283302614D01*
X318587684Y-283302614D02*
X318516256Y-283016900D01*
X318516256Y-283016900D02*
X318516256Y-282659757D01*
X318516256Y-282659757D02*
X318587684Y-282374042D01*
X318587684Y-282374042D02*
X318659113Y-282231185D01*
X318659113Y-282231185D02*
X318730542Y-282159757D01*
X318730542Y-282159757D02*
X318873399Y-282088328D01*
X320016255Y-283445471D02*
X320087684Y-283516900D01*
X320087684Y-283516900D02*
X320016255Y-283588328D01*
X320016255Y-283588328D02*
X319944827Y-283516900D01*
X319944827Y-283516900D02*
X320016255Y-283445471D01*
X320016255Y-283445471D02*
X320016255Y-283588328D01*
X321373399Y-282088328D02*
X321087684Y-282088328D01*
X321087684Y-282088328D02*
X320944827Y-282159757D01*
X320944827Y-282159757D02*
X320873399Y-282231185D01*
X320873399Y-282231185D02*
X320730541Y-282445471D01*
X320730541Y-282445471D02*
X320659113Y-282731185D01*
X320659113Y-282731185D02*
X320659113Y-283302614D01*
X320659113Y-283302614D02*
X320730541Y-283445471D01*
X320730541Y-283445471D02*
X320801970Y-283516900D01*
X320801970Y-283516900D02*
X320944827Y-283588328D01*
X320944827Y-283588328D02*
X321230541Y-283588328D01*
X321230541Y-283588328D02*
X321373399Y-283516900D01*
X321373399Y-283516900D02*
X321444827Y-283445471D01*
X321444827Y-283445471D02*
X321516256Y-283302614D01*
X321516256Y-283302614D02*
X321516256Y-282945471D01*
X321516256Y-282945471D02*
X321444827Y-282802614D01*
X321444827Y-282802614D02*
X321373399Y-282731185D01*
X321373399Y-282731185D02*
X321230541Y-282659757D01*
X321230541Y-282659757D02*
X320944827Y-282659757D01*
X320944827Y-282659757D02*
X320801970Y-282731185D01*
X320801970Y-282731185D02*
X320730541Y-282802614D01*
X320730541Y-282802614D02*
X320659113Y-282945471D01*
D10*
D11*
X299989000Y-278502200D02*
X407989000Y-278502200D01*
D10*
D12*
X387400653Y-280780528D02*
X386900653Y-280066242D01*
X386543510Y-280780528D02*
X386543510Y-279280528D01*
X386543510Y-279280528D02*
X387114939Y-279280528D01*
X387114939Y-279280528D02*
X387257796Y-279351957D01*
X387257796Y-279351957D02*
X387329225Y-279423385D01*
X387329225Y-279423385D02*
X387400653Y-279566242D01*
X387400653Y-279566242D02*
X387400653Y-279780528D01*
X387400653Y-279780528D02*
X387329225Y-279923385D01*
X387329225Y-279923385D02*
X387257796Y-279994814D01*
X387257796Y-279994814D02*
X387114939Y-280066242D01*
X387114939Y-280066242D02*
X386543510Y-280066242D01*
X388614939Y-280709100D02*
X388472082Y-280780528D01*
X388472082Y-280780528D02*
X388186368Y-280780528D01*
X388186368Y-280780528D02*
X388043510Y-280709100D01*
X388043510Y-280709100D02*
X387972082Y-280566242D01*
X387972082Y-280566242D02*
X387972082Y-279994814D01*
X387972082Y-279994814D02*
X388043510Y-279851957D01*
X388043510Y-279851957D02*
X388186368Y-279780528D01*
X388186368Y-279780528D02*
X388472082Y-279780528D01*
X388472082Y-279780528D02*
X388614939Y-279851957D01*
X388614939Y-279851957D02*
X388686368Y-279994814D01*
X388686368Y-279994814D02*
X388686368Y-280137671D01*
X388686368Y-280137671D02*
X387972082Y-280280528D01*
X389186367Y-279780528D02*
X389543510Y-280780528D01*
X389543510Y-280780528D02*
X389900653Y-279780528D01*
X390472081Y-280637671D02*
X390543510Y-280709100D01*
X390543510Y-280709100D02*
X390472081Y-280780528D01*
X390472081Y-280780528D02*
X390400653Y-280709100D01*
X390400653Y-280709100D02*
X390472081Y-280637671D01*
X390472081Y-280637671D02*
X390472081Y-280780528D01*
X390472081Y-279851957D02*
X390543510Y-279923385D01*
X390543510Y-279923385D02*
X390472081Y-279994814D01*
X390472081Y-279994814D02*
X390400653Y-279923385D01*
X390400653Y-279923385D02*
X390472081Y-279851957D01*
X390472081Y-279851957D02*
X390472081Y-279994814D01*
X393114939Y-280780528D02*
X392257796Y-280780528D01*
X392686367Y-280780528D02*
X392686367Y-279280528D01*
X392686367Y-279280528D02*
X392543510Y-279494814D01*
X392543510Y-279494814D02*
X392400653Y-279637671D01*
X392400653Y-279637671D02*
X392257796Y-279709100D01*
X393757795Y-280637671D02*
X393829224Y-280709100D01*
X393829224Y-280709100D02*
X393757795Y-280780528D01*
X393757795Y-280780528D02*
X393686367Y-280709100D01*
X393686367Y-280709100D02*
X393757795Y-280637671D01*
X393757795Y-280637671D02*
X393757795Y-280780528D01*
X395257796Y-280780528D02*
X394400653Y-280780528D01*
X394829224Y-280780528D02*
X394829224Y-279280528D01*
X394829224Y-279280528D02*
X394686367Y-279494814D01*
X394686367Y-279494814D02*
X394543510Y-279637671D01*
X394543510Y-279637671D02*
X394400653Y-279709100D01*
D10*
D11*
X301373398Y-280716900D02*
X301587684Y-280788328D01*
X301587684Y-280788328D02*
X301944826Y-280788328D01*
X301944826Y-280788328D02*
X302087684Y-280716900D01*
X302087684Y-280716900D02*
X302159112Y-280645471D01*
X302159112Y-280645471D02*
X302230541Y-280502614D01*
X302230541Y-280502614D02*
X302230541Y-280359757D01*
X302230541Y-280359757D02*
X302159112Y-280216900D01*
X302159112Y-280216900D02*
X302087684Y-280145471D01*
X302087684Y-280145471D02*
X301944826Y-280074042D01*
X301944826Y-280074042D02*
X301659112Y-280002614D01*
X301659112Y-280002614D02*
X301516255Y-279931185D01*
X301516255Y-279931185D02*
X301444826Y-279859757D01*
X301444826Y-279859757D02*
X301373398Y-279716900D01*
X301373398Y-279716900D02*
X301373398Y-279574042D01*
X301373398Y-279574042D02*
X301444826Y-279431185D01*
X301444826Y-279431185D02*
X301516255Y-279359757D01*
X301516255Y-279359757D02*
X301659112Y-279288328D01*
X301659112Y-279288328D02*
X302016255Y-279288328D01*
X302016255Y-279288328D02*
X302230541Y-279359757D01*
X302873397Y-280788328D02*
X302873397Y-279788328D01*
X302873397Y-279288328D02*
X302801969Y-279359757D01*
X302801969Y-279359757D02*
X302873397Y-279431185D01*
X302873397Y-279431185D02*
X302944826Y-279359757D01*
X302944826Y-279359757D02*
X302873397Y-279288328D01*
X302873397Y-279288328D02*
X302873397Y-279431185D01*
X303444826Y-279788328D02*
X304230541Y-279788328D01*
X304230541Y-279788328D02*
X303444826Y-280788328D01*
X303444826Y-280788328D02*
X304230541Y-280788328D01*
X305373398Y-280716900D02*
X305230541Y-280788328D01*
X305230541Y-280788328D02*
X304944827Y-280788328D01*
X304944827Y-280788328D02*
X304801969Y-280716900D01*
X304801969Y-280716900D02*
X304730541Y-280574042D01*
X304730541Y-280574042D02*
X304730541Y-280002614D01*
X304730541Y-280002614D02*
X304801969Y-279859757D01*
X304801969Y-279859757D02*
X304944827Y-279788328D01*
X304944827Y-279788328D02*
X305230541Y-279788328D01*
X305230541Y-279788328D02*
X305373398Y-279859757D01*
X305373398Y-279859757D02*
X305444827Y-280002614D01*
X305444827Y-280002614D02*
X305444827Y-280145471D01*
X305444827Y-280145471D02*
X304730541Y-280288328D01*
X306087683Y-280645471D02*
X306159112Y-280716900D01*
X306159112Y-280716900D02*
X306087683Y-280788328D01*
X306087683Y-280788328D02*
X306016255Y-280716900D01*
X306016255Y-280716900D02*
X306087683Y-280645471D01*
X306087683Y-280645471D02*
X306087683Y-280788328D01*
X306087683Y-279859757D02*
X306159112Y-279931185D01*
X306159112Y-279931185D02*
X306087683Y-280002614D01*
X306087683Y-280002614D02*
X306016255Y-279931185D01*
X306016255Y-279931185D02*
X306087683Y-279859757D01*
X306087683Y-279859757D02*
X306087683Y-280002614D01*
X307873398Y-280359757D02*
X308587684Y-280359757D01*
X307730541Y-280788328D02*
X308230541Y-279288328D01*
X308230541Y-279288328D02*
X308730541Y-280788328D01*
X309087683Y-279288328D02*
X310016255Y-279288328D01*
X310016255Y-279288328D02*
X309516255Y-279859757D01*
X309516255Y-279859757D02*
X309730540Y-279859757D01*
X309730540Y-279859757D02*
X309873398Y-279931185D01*
X309873398Y-279931185D02*
X309944826Y-280002614D01*
X309944826Y-280002614D02*
X310016255Y-280145471D01*
X310016255Y-280145471D02*
X310016255Y-280502614D01*
X310016255Y-280502614D02*
X309944826Y-280645471D01*
X309944826Y-280645471D02*
X309873398Y-280716900D01*
X309873398Y-280716900D02*
X309730540Y-280788328D01*
X309730540Y-280788328D02*
X309301969Y-280788328D01*
X309301969Y-280788328D02*
X309159112Y-280716900D01*
X309159112Y-280716900D02*
X309087683Y-280645471D01*
D10*
D11*
X386444826Y-283588328D02*
X386444826Y-282088328D01*
X387801970Y-283588328D02*
X387801970Y-282088328D01*
X387801970Y-283516900D02*
X387659112Y-283588328D01*
X387659112Y-283588328D02*
X387373398Y-283588328D01*
X387373398Y-283588328D02*
X387230541Y-283516900D01*
X387230541Y-283516900D02*
X387159112Y-283445471D01*
X387159112Y-283445471D02*
X387087684Y-283302614D01*
X387087684Y-283302614D02*
X387087684Y-282874042D01*
X387087684Y-282874042D02*
X387159112Y-282731185D01*
X387159112Y-282731185D02*
X387230541Y-282659757D01*
X387230541Y-282659757D02*
X387373398Y-282588328D01*
X387373398Y-282588328D02*
X387659112Y-282588328D01*
X387659112Y-282588328D02*
X387801970Y-282659757D01*
X388516255Y-283445471D02*
X388587684Y-283516900D01*
X388587684Y-283516900D02*
X388516255Y-283588328D01*
X388516255Y-283588328D02*
X388444827Y-283516900D01*
X388444827Y-283516900D02*
X388516255Y-283445471D01*
X388516255Y-283445471D02*
X388516255Y-283588328D01*
X388516255Y-282659757D02*
X388587684Y-282731185D01*
X388587684Y-282731185D02*
X388516255Y-282802614D01*
X388516255Y-282802614D02*
X388444827Y-282731185D01*
X388444827Y-282731185D02*
X388516255Y-282659757D01*
X388516255Y-282659757D02*
X388516255Y-282802614D01*
X390301970Y-282231185D02*
X390373398Y-282159757D01*
X390373398Y-282159757D02*
X390516256Y-282088328D01*
X390516256Y-282088328D02*
X390873398Y-282088328D01*
X390873398Y-282088328D02*
X391016256Y-282159757D01*
X391016256Y-282159757D02*
X391087684Y-282231185D01*
X391087684Y-282231185D02*
X391159113Y-282374042D01*
X391159113Y-282374042D02*
X391159113Y-282516900D01*
X391159113Y-282516900D02*
X391087684Y-282731185D01*
X391087684Y-282731185D02*
X390230541Y-283588328D01*
X390230541Y-283588328D02*
X391159113Y-283588328D01*
X392873398Y-282016900D02*
X391587684Y-283945471D01*
X393444827Y-283588328D02*
X393730541Y-283588328D01*
X393730541Y-283588328D02*
X393873398Y-283516900D01*
X393873398Y-283516900D02*
X393944827Y-283445471D01*
X393944827Y-283445471D02*
X394087684Y-283231185D01*
X394087684Y-283231185D02*
X394159113Y-282945471D01*
X394159113Y-282945471D02*
X394159113Y-282374042D01*
X394159113Y-282374042D02*
X394087684Y-282231185D01*
X394087684Y-282231185D02*
X394016256Y-282159757D01*
X394016256Y-282159757D02*
X393873398Y-282088328D01*
X393873398Y-282088328D02*
X393587684Y-282088328D01*
X393587684Y-282088328D02*
X393444827Y-282159757D01*
X393444827Y-282159757D02*
X393373398Y-282231185D01*
X393373398Y-282231185D02*
X393301970Y-282374042D01*
X393301970Y-282374042D02*
X393301970Y-282731185D01*
X393301970Y-282731185D02*
X393373398Y-282874042D01*
X393373398Y-282874042D02*
X393444827Y-282945471D01*
X393444827Y-282945471D02*
X393587684Y-283016900D01*
X393587684Y-283016900D02*
X393873398Y-283016900D01*
X393873398Y-283016900D02*
X394016256Y-282945471D01*
X394016256Y-282945471D02*
X394087684Y-282874042D01*
X394087684Y-282874042D02*
X394159113Y-282731185D01*
D10*
D11*
X299989000Y-274502200D02*
X407989000Y-274502200D01*
D10*
D13*
X301680728Y-275206638D02*
X302823585Y-275206638D01*
X302002157Y-277206638D02*
X302252157Y-275206638D01*
X303240252Y-277206638D02*
X303406919Y-275873304D01*
X303490252Y-275206638D02*
X303383109Y-275301876D01*
X303383109Y-275301876D02*
X303466443Y-275397114D01*
X303466443Y-275397114D02*
X303573586Y-275301876D01*
X303573586Y-275301876D02*
X303490252Y-275206638D01*
X303490252Y-275206638D02*
X303466443Y-275397114D01*
X304073586Y-275873304D02*
X304835490Y-275873304D01*
X304442633Y-275206638D02*
X304228348Y-276920923D01*
X304228348Y-276920923D02*
X304299776Y-277111400D01*
X304299776Y-277111400D02*
X304478348Y-277206638D01*
X304478348Y-277206638D02*
X304668824Y-277206638D01*
X305621205Y-277206638D02*
X305442633Y-277111400D01*
X305442633Y-277111400D02*
X305371205Y-276920923D01*
X305371205Y-276920923D02*
X305585490Y-275206638D01*
X307156919Y-277111400D02*
X306954538Y-277206638D01*
X306954538Y-277206638D02*
X306573585Y-277206638D01*
X306573585Y-277206638D02*
X306395014Y-277111400D01*
X306395014Y-277111400D02*
X306323585Y-276920923D01*
X306323585Y-276920923D02*
X306418824Y-276159019D01*
X306418824Y-276159019D02*
X306537871Y-275968542D01*
X306537871Y-275968542D02*
X306740252Y-275873304D01*
X306740252Y-275873304D02*
X307121204Y-275873304D01*
X307121204Y-275873304D02*
X307299776Y-275968542D01*
X307299776Y-275968542D02*
X307371204Y-276159019D01*
X307371204Y-276159019D02*
X307347395Y-276349495D01*
X307347395Y-276349495D02*
X306371204Y-276539971D01*
X308121205Y-277016161D02*
X308204538Y-277111400D01*
X308204538Y-277111400D02*
X308097395Y-277206638D01*
X308097395Y-277206638D02*
X308014062Y-277111400D01*
X308014062Y-277111400D02*
X308121205Y-277016161D01*
X308121205Y-277016161D02*
X308097395Y-277206638D01*
X308252157Y-275968542D02*
X308335490Y-276063780D01*
X308335490Y-276063780D02*
X308228348Y-276159019D01*
X308228348Y-276159019D02*
X308145014Y-276063780D01*
X308145014Y-276063780D02*
X308252157Y-275968542D01*
X308252157Y-275968542D02*
X308228348Y-276159019D01*
X310573586Y-277206638D02*
X310823586Y-275206638D01*
X310823586Y-275206638D02*
X311311681Y-276635209D01*
X311311681Y-276635209D02*
X312156920Y-275206638D01*
X312156920Y-275206638D02*
X311906920Y-277206638D01*
X313145015Y-277206638D02*
X312966443Y-277111400D01*
X312966443Y-277111400D02*
X312883110Y-277016161D01*
X312883110Y-277016161D02*
X312811681Y-276825685D01*
X312811681Y-276825685D02*
X312883110Y-276254257D01*
X312883110Y-276254257D02*
X313002157Y-276063780D01*
X313002157Y-276063780D02*
X313109300Y-275968542D01*
X313109300Y-275968542D02*
X313311681Y-275873304D01*
X313311681Y-275873304D02*
X313597395Y-275873304D01*
X313597395Y-275873304D02*
X313775967Y-275968542D01*
X313775967Y-275968542D02*
X313859300Y-276063780D01*
X313859300Y-276063780D02*
X313930729Y-276254257D01*
X313930729Y-276254257D02*
X313859300Y-276825685D01*
X313859300Y-276825685D02*
X313740253Y-277016161D01*
X313740253Y-277016161D02*
X313633110Y-277111400D01*
X313633110Y-277111400D02*
X313430729Y-277206638D01*
X313430729Y-277206638D02*
X313145015Y-277206638D01*
X315692634Y-275873304D02*
X315525967Y-277206638D01*
X314835491Y-275873304D02*
X314704539Y-276920923D01*
X314704539Y-276920923D02*
X314775967Y-277111400D01*
X314775967Y-277111400D02*
X314954539Y-277206638D01*
X314954539Y-277206638D02*
X315240253Y-277206638D01*
X315240253Y-277206638D02*
X315442634Y-277111400D01*
X315442634Y-277111400D02*
X315549777Y-277016161D01*
X316645015Y-275873304D02*
X316478348Y-277206638D01*
X316621205Y-276063780D02*
X316728348Y-275968542D01*
X316728348Y-275968542D02*
X316930729Y-275873304D01*
X316930729Y-275873304D02*
X317216443Y-275873304D01*
X317216443Y-275873304D02*
X317395015Y-275968542D01*
X317395015Y-275968542D02*
X317466443Y-276159019D01*
X317466443Y-276159019D02*
X317335491Y-277206638D01*
X318168825Y-275873304D02*
X318930729Y-275873304D01*
X318537872Y-275206638D02*
X318323587Y-276920923D01*
X318323587Y-276920923D02*
X318395015Y-277111400D01*
X318395015Y-277111400D02*
X318573587Y-277206638D01*
X318573587Y-277206638D02*
X318764063Y-277206638D01*
X321014063Y-275206638D02*
X321240254Y-277206638D01*
X321240254Y-277206638D02*
X321799777Y-275778066D01*
X321799777Y-275778066D02*
X322002158Y-277206638D01*
X322002158Y-277206638D02*
X322728349Y-275206638D01*
X323240253Y-277206638D02*
X323406920Y-275873304D01*
X323490253Y-275206638D02*
X323383110Y-275301876D01*
X323383110Y-275301876D02*
X323466444Y-275397114D01*
X323466444Y-275397114D02*
X323573587Y-275301876D01*
X323573587Y-275301876D02*
X323490253Y-275206638D01*
X323490253Y-275206638D02*
X323466444Y-275397114D01*
X324359301Y-275873304D02*
X324192634Y-277206638D01*
X324335491Y-276063780D02*
X324442634Y-275968542D01*
X324442634Y-275968542D02*
X324645015Y-275873304D01*
X324645015Y-275873304D02*
X324930729Y-275873304D01*
X324930729Y-275873304D02*
X325109301Y-275968542D01*
X325109301Y-275968542D02*
X325180729Y-276159019D01*
X325180729Y-276159019D02*
X325049777Y-277206638D01*
X326871206Y-277111400D02*
X326668825Y-277206638D01*
X326668825Y-277206638D02*
X326287873Y-277206638D01*
X326287873Y-277206638D02*
X326109301Y-277111400D01*
X326109301Y-277111400D02*
X326025968Y-277016161D01*
X326025968Y-277016161D02*
X325954539Y-276825685D01*
X325954539Y-276825685D02*
X326025968Y-276254257D01*
X326025968Y-276254257D02*
X326145015Y-276063780D01*
X326145015Y-276063780D02*
X326252158Y-275968542D01*
X326252158Y-275968542D02*
X326454539Y-275873304D01*
X326454539Y-275873304D02*
X326835492Y-275873304D01*
X326835492Y-275873304D02*
X327014063Y-275968542D01*
X327716444Y-277206638D02*
X327966444Y-275206638D01*
X328573587Y-277206638D02*
X328704539Y-276159019D01*
X328704539Y-276159019D02*
X328633111Y-275968542D01*
X328633111Y-275968542D02*
X328454539Y-275873304D01*
X328454539Y-275873304D02*
X328168825Y-275873304D01*
X328168825Y-275873304D02*
X327966444Y-275968542D01*
X327966444Y-275968542D02*
X327859301Y-276063780D01*
X330299778Y-277111400D02*
X330097397Y-277206638D01*
X330097397Y-277206638D02*
X329716444Y-277206638D01*
X329716444Y-277206638D02*
X329537873Y-277111400D01*
X329537873Y-277111400D02*
X329466444Y-276920923D01*
X329466444Y-276920923D02*
X329561683Y-276159019D01*
X329561683Y-276159019D02*
X329680730Y-275968542D01*
X329680730Y-275968542D02*
X329883111Y-275873304D01*
X329883111Y-275873304D02*
X330264063Y-275873304D01*
X330264063Y-275873304D02*
X330442635Y-275968542D01*
X330442635Y-275968542D02*
X330514063Y-276159019D01*
X330514063Y-276159019D02*
X330490254Y-276349495D01*
X330490254Y-276349495D02*
X329514063Y-276539971D01*
X331156921Y-277111400D02*
X331335492Y-277206638D01*
X331335492Y-277206638D02*
X331716445Y-277206638D01*
X331716445Y-277206638D02*
X331918826Y-277111400D01*
X331918826Y-277111400D02*
X332037873Y-276920923D01*
X332037873Y-276920923D02*
X332049778Y-276825685D01*
X332049778Y-276825685D02*
X331978349Y-276635209D01*
X331978349Y-276635209D02*
X331799778Y-276539971D01*
X331799778Y-276539971D02*
X331514064Y-276539971D01*
X331514064Y-276539971D02*
X331335492Y-276444733D01*
X331335492Y-276444733D02*
X331264064Y-276254257D01*
X331264064Y-276254257D02*
X331275969Y-276159019D01*
X331275969Y-276159019D02*
X331395016Y-275968542D01*
X331395016Y-275968542D02*
X331597397Y-275873304D01*
X331597397Y-275873304D02*
X331883111Y-275873304D01*
X331883111Y-275873304D02*
X332061683Y-275968542D01*
X332740255Y-275873304D02*
X333502159Y-275873304D01*
X333109302Y-275206638D02*
X332895017Y-276920923D01*
X332895017Y-276920923D02*
X332966445Y-277111400D01*
X332966445Y-277111400D02*
X333145017Y-277206638D01*
X333145017Y-277206638D02*
X333335493Y-277206638D01*
X334775969Y-277111400D02*
X334573588Y-277206638D01*
X334573588Y-277206638D02*
X334192635Y-277206638D01*
X334192635Y-277206638D02*
X334014064Y-277111400D01*
X334014064Y-277111400D02*
X333942635Y-276920923D01*
X333942635Y-276920923D02*
X334037874Y-276159019D01*
X334037874Y-276159019D02*
X334156921Y-275968542D01*
X334156921Y-275968542D02*
X334359302Y-275873304D01*
X334359302Y-275873304D02*
X334740254Y-275873304D01*
X334740254Y-275873304D02*
X334918826Y-275968542D01*
X334918826Y-275968542D02*
X334990254Y-276159019D01*
X334990254Y-276159019D02*
X334966445Y-276349495D01*
X334966445Y-276349495D02*
X333990254Y-276539971D01*
X335716445Y-277206638D02*
X335883112Y-275873304D01*
X335835493Y-276254257D02*
X335954540Y-276063780D01*
X335954540Y-276063780D02*
X336061683Y-275968542D01*
X336061683Y-275968542D02*
X336264064Y-275873304D01*
X336264064Y-275873304D02*
X336454540Y-275873304D01*
X339275969Y-276159019D02*
X338609303Y-276159019D01*
X338478350Y-277206638D02*
X338728350Y-275206638D01*
X338728350Y-275206638D02*
X339680731Y-275206638D01*
X341145017Y-277206638D02*
X340192636Y-277206638D01*
X340192636Y-277206638D02*
X340442636Y-275206638D01*
X342859303Y-277206638D02*
X341716446Y-277206638D01*
X342287875Y-277206638D02*
X342537875Y-275206638D01*
X342537875Y-275206638D02*
X342311684Y-275492352D01*
X342311684Y-275492352D02*
X342097399Y-275682828D01*
X342097399Y-275682828D02*
X341895018Y-275778066D01*
X344823589Y-275206638D02*
X344442637Y-275206638D01*
X344442637Y-275206638D02*
X344240256Y-275301876D01*
X344240256Y-275301876D02*
X344133113Y-275397114D01*
X344133113Y-275397114D02*
X343906922Y-275682828D01*
X343906922Y-275682828D02*
X343764065Y-276063780D01*
X343764065Y-276063780D02*
X343668827Y-276825685D01*
X343668827Y-276825685D02*
X343740256Y-277016161D01*
X343740256Y-277016161D02*
X343823589Y-277111400D01*
X343823589Y-277111400D02*
X344002161Y-277206638D01*
X344002161Y-277206638D02*
X344383113Y-277206638D01*
X344383113Y-277206638D02*
X344585494Y-277111400D01*
X344585494Y-277111400D02*
X344692637Y-277016161D01*
X344692637Y-277016161D02*
X344811684Y-276825685D01*
X344811684Y-276825685D02*
X344871208Y-276349495D01*
X344871208Y-276349495D02*
X344799780Y-276159019D01*
X344799780Y-276159019D02*
X344716446Y-276063780D01*
X344716446Y-276063780D02*
X344537875Y-275968542D01*
X344537875Y-275968542D02*
X344156922Y-275968542D01*
X344156922Y-275968542D02*
X343954541Y-276063780D01*
X343954541Y-276063780D02*
X343847399Y-276159019D01*
X343847399Y-276159019D02*
X343728351Y-276349495D01*
D10*
D11*
X301944826Y-272602614D02*
X301444826Y-272602614D01*
X301444826Y-273388328D02*
X301444826Y-271888328D01*
X301444826Y-271888328D02*
X302159112Y-271888328D01*
X302730540Y-273388328D02*
X302730540Y-272388328D01*
X302730540Y-271888328D02*
X302659112Y-271959757D01*
X302659112Y-271959757D02*
X302730540Y-272031185D01*
X302730540Y-272031185D02*
X302801969Y-271959757D01*
X302801969Y-271959757D02*
X302730540Y-271888328D01*
X302730540Y-271888328D02*
X302730540Y-272031185D01*
X303659112Y-273388328D02*
X303516255Y-273316900D01*
X303516255Y-273316900D02*
X303444826Y-273174042D01*
X303444826Y-273174042D02*
X303444826Y-271888328D01*
X304801969Y-273316900D02*
X304659112Y-273388328D01*
X304659112Y-273388328D02*
X304373398Y-273388328D01*
X304373398Y-273388328D02*
X304230540Y-273316900D01*
X304230540Y-273316900D02*
X304159112Y-273174042D01*
X304159112Y-273174042D02*
X304159112Y-272602614D01*
X304159112Y-272602614D02*
X304230540Y-272459757D01*
X304230540Y-272459757D02*
X304373398Y-272388328D01*
X304373398Y-272388328D02*
X304659112Y-272388328D01*
X304659112Y-272388328D02*
X304801969Y-272459757D01*
X304801969Y-272459757D02*
X304873398Y-272602614D01*
X304873398Y-272602614D02*
X304873398Y-272745471D01*
X304873398Y-272745471D02*
X304159112Y-272888328D01*
X305516254Y-273245471D02*
X305587683Y-273316900D01*
X305587683Y-273316900D02*
X305516254Y-273388328D01*
X305516254Y-273388328D02*
X305444826Y-273316900D01*
X305444826Y-273316900D02*
X305516254Y-273245471D01*
X305516254Y-273245471D02*
X305516254Y-273388328D01*
X305516254Y-272459757D02*
X305587683Y-272531185D01*
X305587683Y-272531185D02*
X305516254Y-272602614D01*
X305516254Y-272602614D02*
X305444826Y-272531185D01*
X305444826Y-272531185D02*
X305516254Y-272459757D01*
X305516254Y-272459757D02*
X305516254Y-272602614D01*
X307373397Y-273388328D02*
X307373397Y-271888328D01*
X307373397Y-271888328D02*
X307873397Y-272959757D01*
X307873397Y-272959757D02*
X308373397Y-271888328D01*
X308373397Y-271888328D02*
X308373397Y-273388328D01*
X309301969Y-273388328D02*
X309159112Y-273316900D01*
X309159112Y-273316900D02*
X309087683Y-273245471D01*
X309087683Y-273245471D02*
X309016255Y-273102614D01*
X309016255Y-273102614D02*
X309016255Y-272674042D01*
X309016255Y-272674042D02*
X309087683Y-272531185D01*
X309087683Y-272531185D02*
X309159112Y-272459757D01*
X309159112Y-272459757D02*
X309301969Y-272388328D01*
X309301969Y-272388328D02*
X309516255Y-272388328D01*
X309516255Y-272388328D02*
X309659112Y-272459757D01*
X309659112Y-272459757D02*
X309730541Y-272531185D01*
X309730541Y-272531185D02*
X309801969Y-272674042D01*
X309801969Y-272674042D02*
X309801969Y-273102614D01*
X309801969Y-273102614D02*
X309730541Y-273245471D01*
X309730541Y-273245471D02*
X309659112Y-273316900D01*
X309659112Y-273316900D02*
X309516255Y-273388328D01*
X309516255Y-273388328D02*
X309301969Y-273388328D01*
X311087684Y-272388328D02*
X311087684Y-273388328D01*
X310444826Y-272388328D02*
X310444826Y-273174042D01*
X310444826Y-273174042D02*
X310516255Y-273316900D01*
X310516255Y-273316900D02*
X310659112Y-273388328D01*
X310659112Y-273388328D02*
X310873398Y-273388328D01*
X310873398Y-273388328D02*
X311016255Y-273316900D01*
X311016255Y-273316900D02*
X311087684Y-273245471D01*
X311801969Y-272388328D02*
X311801969Y-273388328D01*
X311801969Y-272531185D02*
X311873398Y-272459757D01*
X311873398Y-272459757D02*
X312016255Y-272388328D01*
X312016255Y-272388328D02*
X312230541Y-272388328D01*
X312230541Y-272388328D02*
X312373398Y-272459757D01*
X312373398Y-272459757D02*
X312444827Y-272602614D01*
X312444827Y-272602614D02*
X312444827Y-273388328D01*
X312944827Y-272388328D02*
X313516255Y-272388328D01*
X313159112Y-271888328D02*
X313159112Y-273174042D01*
X313159112Y-273174042D02*
X313230541Y-273316900D01*
X313230541Y-273316900D02*
X313373398Y-273388328D01*
X313373398Y-273388328D02*
X313516255Y-273388328D01*
X315016255Y-271888328D02*
X315373398Y-273388328D01*
X315373398Y-273388328D02*
X315659112Y-272316900D01*
X315659112Y-272316900D02*
X315944827Y-273388328D01*
X315944827Y-273388328D02*
X316301970Y-271888328D01*
X316873398Y-273388328D02*
X316873398Y-272388328D01*
X316873398Y-271888328D02*
X316801970Y-271959757D01*
X316801970Y-271959757D02*
X316873398Y-272031185D01*
X316873398Y-272031185D02*
X316944827Y-271959757D01*
X316944827Y-271959757D02*
X316873398Y-271888328D01*
X316873398Y-271888328D02*
X316873398Y-272031185D01*
X317587684Y-272388328D02*
X317587684Y-273388328D01*
X317587684Y-272531185D02*
X317659113Y-272459757D01*
X317659113Y-272459757D02*
X317801970Y-272388328D01*
X317801970Y-272388328D02*
X318016256Y-272388328D01*
X318016256Y-272388328D02*
X318159113Y-272459757D01*
X318159113Y-272459757D02*
X318230542Y-272602614D01*
X318230542Y-272602614D02*
X318230542Y-273388328D01*
X319587685Y-273316900D02*
X319444827Y-273388328D01*
X319444827Y-273388328D02*
X319159113Y-273388328D01*
X319159113Y-273388328D02*
X319016256Y-273316900D01*
X319016256Y-273316900D02*
X318944827Y-273245471D01*
X318944827Y-273245471D02*
X318873399Y-273102614D01*
X318873399Y-273102614D02*
X318873399Y-272674042D01*
X318873399Y-272674042D02*
X318944827Y-272531185D01*
X318944827Y-272531185D02*
X319016256Y-272459757D01*
X319016256Y-272459757D02*
X319159113Y-272388328D01*
X319159113Y-272388328D02*
X319444827Y-272388328D01*
X319444827Y-272388328D02*
X319587685Y-272459757D01*
X320230541Y-273388328D02*
X320230541Y-271888328D01*
X320873399Y-273388328D02*
X320873399Y-272602614D01*
X320873399Y-272602614D02*
X320801970Y-272459757D01*
X320801970Y-272459757D02*
X320659113Y-272388328D01*
X320659113Y-272388328D02*
X320444827Y-272388328D01*
X320444827Y-272388328D02*
X320301970Y-272459757D01*
X320301970Y-272459757D02*
X320230541Y-272531185D01*
X322159113Y-273316900D02*
X322016256Y-273388328D01*
X322016256Y-273388328D02*
X321730542Y-273388328D01*
X321730542Y-273388328D02*
X321587684Y-273316900D01*
X321587684Y-273316900D02*
X321516256Y-273174042D01*
X321516256Y-273174042D02*
X321516256Y-272602614D01*
X321516256Y-272602614D02*
X321587684Y-272459757D01*
X321587684Y-272459757D02*
X321730542Y-272388328D01*
X321730542Y-272388328D02*
X322016256Y-272388328D01*
X322016256Y-272388328D02*
X322159113Y-272459757D01*
X322159113Y-272459757D02*
X322230542Y-272602614D01*
X322230542Y-272602614D02*
X322230542Y-272745471D01*
X322230542Y-272745471D02*
X321516256Y-272888328D01*
X322801970Y-273316900D02*
X322944827Y-273388328D01*
X322944827Y-273388328D02*
X323230541Y-273388328D01*
X323230541Y-273388328D02*
X323373398Y-273316900D01*
X323373398Y-273316900D02*
X323444827Y-273174042D01*
X323444827Y-273174042D02*
X323444827Y-273102614D01*
X323444827Y-273102614D02*
X323373398Y-272959757D01*
X323373398Y-272959757D02*
X323230541Y-272888328D01*
X323230541Y-272888328D02*
X323016256Y-272888328D01*
X323016256Y-272888328D02*
X322873398Y-272816900D01*
X322873398Y-272816900D02*
X322801970Y-272674042D01*
X322801970Y-272674042D02*
X322801970Y-272602614D01*
X322801970Y-272602614D02*
X322873398Y-272459757D01*
X322873398Y-272459757D02*
X323016256Y-272388328D01*
X323016256Y-272388328D02*
X323230541Y-272388328D01*
X323230541Y-272388328D02*
X323373398Y-272459757D01*
X323873399Y-272388328D02*
X324444827Y-272388328D01*
X324087684Y-271888328D02*
X324087684Y-273174042D01*
X324087684Y-273174042D02*
X324159113Y-273316900D01*
X324159113Y-273316900D02*
X324301970Y-273388328D01*
X324301970Y-273388328D02*
X324444827Y-273388328D01*
X325516256Y-273316900D02*
X325373399Y-273388328D01*
X325373399Y-273388328D02*
X325087685Y-273388328D01*
X325087685Y-273388328D02*
X324944827Y-273316900D01*
X324944827Y-273316900D02*
X324873399Y-273174042D01*
X324873399Y-273174042D02*
X324873399Y-272602614D01*
X324873399Y-272602614D02*
X324944827Y-272459757D01*
X324944827Y-272459757D02*
X325087685Y-272388328D01*
X325087685Y-272388328D02*
X325373399Y-272388328D01*
X325373399Y-272388328D02*
X325516256Y-272459757D01*
X325516256Y-272459757D02*
X325587685Y-272602614D01*
X325587685Y-272602614D02*
X325587685Y-272745471D01*
X325587685Y-272745471D02*
X324873399Y-272888328D01*
X326230541Y-273388328D02*
X326230541Y-272388328D01*
X326230541Y-272674042D02*
X326301970Y-272531185D01*
X326301970Y-272531185D02*
X326373399Y-272459757D01*
X326373399Y-272459757D02*
X326516256Y-272388328D01*
X326516256Y-272388328D02*
X326659113Y-272388328D01*
X328801969Y-272602614D02*
X328301969Y-272602614D01*
X328301969Y-273388328D02*
X328301969Y-271888328D01*
X328301969Y-271888328D02*
X329016255Y-271888328D01*
X330301969Y-273388328D02*
X329587683Y-273388328D01*
X329587683Y-273388328D02*
X329587683Y-271888328D01*
X331587684Y-273388328D02*
X330730541Y-273388328D01*
X331159112Y-273388328D02*
X331159112Y-271888328D01*
X331159112Y-271888328D02*
X331016255Y-272102614D01*
X331016255Y-272102614D02*
X330873398Y-272245471D01*
X330873398Y-272245471D02*
X330730541Y-272316900D01*
X332873398Y-271888328D02*
X332587683Y-271888328D01*
X332587683Y-271888328D02*
X332444826Y-271959757D01*
X332444826Y-271959757D02*
X332373398Y-272031185D01*
X332373398Y-272031185D02*
X332230540Y-272245471D01*
X332230540Y-272245471D02*
X332159112Y-272531185D01*
X332159112Y-272531185D02*
X332159112Y-273102614D01*
X332159112Y-273102614D02*
X332230540Y-273245471D01*
X332230540Y-273245471D02*
X332301969Y-273316900D01*
X332301969Y-273316900D02*
X332444826Y-273388328D01*
X332444826Y-273388328D02*
X332730540Y-273388328D01*
X332730540Y-273388328D02*
X332873398Y-273316900D01*
X332873398Y-273316900D02*
X332944826Y-273245471D01*
X332944826Y-273245471D02*
X333016255Y-273102614D01*
X333016255Y-273102614D02*
X333016255Y-272745471D01*
X333016255Y-272745471D02*
X332944826Y-272602614D01*
X332944826Y-272602614D02*
X332873398Y-272531185D01*
X332873398Y-272531185D02*
X332730540Y-272459757D01*
X332730540Y-272459757D02*
X332444826Y-272459757D01*
X332444826Y-272459757D02*
X332301969Y-272531185D01*
X332301969Y-272531185D02*
X332230540Y-272602614D01*
X332230540Y-272602614D02*
X332159112Y-272745471D01*
X333659111Y-273245471D02*
X333730540Y-273316900D01*
X333730540Y-273316900D02*
X333659111Y-273388328D01*
X333659111Y-273388328D02*
X333587683Y-273316900D01*
X333587683Y-273316900D02*
X333659111Y-273245471D01*
X333659111Y-273245471D02*
X333659111Y-273388328D01*
X334373397Y-273388328D02*
X334373397Y-271888328D01*
X334516255Y-272816900D02*
X334944826Y-273388328D01*
X334944826Y-272388328D02*
X334373397Y-272959757D01*
X335587683Y-273388328D02*
X335587683Y-272388328D01*
X335587683Y-271888328D02*
X335516255Y-271959757D01*
X335516255Y-271959757D02*
X335587683Y-272031185D01*
X335587683Y-272031185D02*
X335659112Y-271959757D01*
X335659112Y-271959757D02*
X335587683Y-271888328D01*
X335587683Y-271888328D02*
X335587683Y-272031185D01*
X336944827Y-273316900D02*
X336801969Y-273388328D01*
X336801969Y-273388328D02*
X336516255Y-273388328D01*
X336516255Y-273388328D02*
X336373398Y-273316900D01*
X336373398Y-273316900D02*
X336301969Y-273245471D01*
X336301969Y-273245471D02*
X336230541Y-273102614D01*
X336230541Y-273102614D02*
X336230541Y-272674042D01*
X336230541Y-272674042D02*
X336301969Y-272531185D01*
X336301969Y-272531185D02*
X336373398Y-272459757D01*
X336373398Y-272459757D02*
X336516255Y-272388328D01*
X336516255Y-272388328D02*
X336801969Y-272388328D01*
X336801969Y-272388328D02*
X336944827Y-272459757D01*
X338230541Y-273388328D02*
X338230541Y-272602614D01*
X338230541Y-272602614D02*
X338159112Y-272459757D01*
X338159112Y-272459757D02*
X338016255Y-272388328D01*
X338016255Y-272388328D02*
X337730541Y-272388328D01*
X337730541Y-272388328D02*
X337587683Y-272459757D01*
X338230541Y-273316900D02*
X338087683Y-273388328D01*
X338087683Y-273388328D02*
X337730541Y-273388328D01*
X337730541Y-273388328D02*
X337587683Y-273316900D01*
X337587683Y-273316900D02*
X337516255Y-273174042D01*
X337516255Y-273174042D02*
X337516255Y-273031185D01*
X337516255Y-273031185D02*
X337587683Y-272888328D01*
X337587683Y-272888328D02*
X337730541Y-272816900D01*
X337730541Y-272816900D02*
X338087683Y-272816900D01*
X338087683Y-272816900D02*
X338230541Y-272745471D01*
X339587684Y-273388328D02*
X339587684Y-271888328D01*
X339587684Y-273316900D02*
X339444826Y-273388328D01*
X339444826Y-273388328D02*
X339159112Y-273388328D01*
X339159112Y-273388328D02*
X339016255Y-273316900D01*
X339016255Y-273316900D02*
X338944826Y-273245471D01*
X338944826Y-273245471D02*
X338873398Y-273102614D01*
X338873398Y-273102614D02*
X338873398Y-272674042D01*
X338873398Y-272674042D02*
X338944826Y-272531185D01*
X338944826Y-272531185D02*
X339016255Y-272459757D01*
X339016255Y-272459757D02*
X339159112Y-272388328D01*
X339159112Y-272388328D02*
X339444826Y-272388328D01*
X339444826Y-272388328D02*
X339587684Y-272459757D01*
X339944827Y-273531185D02*
X341087684Y-273531185D01*
X341444826Y-272388328D02*
X341444826Y-273888328D01*
X341444826Y-272459757D02*
X341587684Y-272388328D01*
X341587684Y-272388328D02*
X341873398Y-272388328D01*
X341873398Y-272388328D02*
X342016255Y-272459757D01*
X342016255Y-272459757D02*
X342087684Y-272531185D01*
X342087684Y-272531185D02*
X342159112Y-272674042D01*
X342159112Y-272674042D02*
X342159112Y-273102614D01*
X342159112Y-273102614D02*
X342087684Y-273245471D01*
X342087684Y-273245471D02*
X342016255Y-273316900D01*
X342016255Y-273316900D02*
X341873398Y-273388328D01*
X341873398Y-273388328D02*
X341587684Y-273388328D01*
X341587684Y-273388328D02*
X341444826Y-273316900D01*
X343444827Y-273316900D02*
X343301969Y-273388328D01*
X343301969Y-273388328D02*
X343016255Y-273388328D01*
X343016255Y-273388328D02*
X342873398Y-273316900D01*
X342873398Y-273316900D02*
X342801969Y-273245471D01*
X342801969Y-273245471D02*
X342730541Y-273102614D01*
X342730541Y-273102614D02*
X342730541Y-272674042D01*
X342730541Y-272674042D02*
X342801969Y-272531185D01*
X342801969Y-272531185D02*
X342873398Y-272459757D01*
X342873398Y-272459757D02*
X343016255Y-272388328D01*
X343016255Y-272388328D02*
X343301969Y-272388328D01*
X343301969Y-272388328D02*
X343444827Y-272459757D01*
X344087683Y-273388328D02*
X344087683Y-271888328D01*
X344087683Y-272459757D02*
X344230541Y-272388328D01*
X344230541Y-272388328D02*
X344516255Y-272388328D01*
X344516255Y-272388328D02*
X344659112Y-272459757D01*
X344659112Y-272459757D02*
X344730541Y-272531185D01*
X344730541Y-272531185D02*
X344801969Y-272674042D01*
X344801969Y-272674042D02*
X344801969Y-273102614D01*
X344801969Y-273102614D02*
X344730541Y-273245471D01*
X344730541Y-273245471D02*
X344659112Y-273316900D01*
X344659112Y-273316900D02*
X344516255Y-273388328D01*
X344516255Y-273388328D02*
X344230541Y-273388328D01*
X344230541Y-273388328D02*
X344087683Y-273316900D01*
D10*
D11*
X299989000Y-268502200D02*
X407989000Y-268502200D01*
D10*
D11*
X301373398Y-270616900D02*
X301587684Y-270688328D01*
X301587684Y-270688328D02*
X301944826Y-270688328D01*
X301944826Y-270688328D02*
X302087684Y-270616900D01*
X302087684Y-270616900D02*
X302159112Y-270545471D01*
X302159112Y-270545471D02*
X302230541Y-270402614D01*
X302230541Y-270402614D02*
X302230541Y-270259757D01*
X302230541Y-270259757D02*
X302159112Y-270116900D01*
X302159112Y-270116900D02*
X302087684Y-270045471D01*
X302087684Y-270045471D02*
X301944826Y-269974042D01*
X301944826Y-269974042D02*
X301659112Y-269902614D01*
X301659112Y-269902614D02*
X301516255Y-269831185D01*
X301516255Y-269831185D02*
X301444826Y-269759757D01*
X301444826Y-269759757D02*
X301373398Y-269616900D01*
X301373398Y-269616900D02*
X301373398Y-269474042D01*
X301373398Y-269474042D02*
X301444826Y-269331185D01*
X301444826Y-269331185D02*
X301516255Y-269259757D01*
X301516255Y-269259757D02*
X301659112Y-269188328D01*
X301659112Y-269188328D02*
X302016255Y-269188328D01*
X302016255Y-269188328D02*
X302230541Y-269259757D01*
X302873397Y-270688328D02*
X302873397Y-269188328D01*
X303516255Y-270688328D02*
X303516255Y-269902614D01*
X303516255Y-269902614D02*
X303444826Y-269759757D01*
X303444826Y-269759757D02*
X303301969Y-269688328D01*
X303301969Y-269688328D02*
X303087683Y-269688328D01*
X303087683Y-269688328D02*
X302944826Y-269759757D01*
X302944826Y-269759757D02*
X302873397Y-269831185D01*
X304801969Y-270616900D02*
X304659112Y-270688328D01*
X304659112Y-270688328D02*
X304373398Y-270688328D01*
X304373398Y-270688328D02*
X304230540Y-270616900D01*
X304230540Y-270616900D02*
X304159112Y-270474042D01*
X304159112Y-270474042D02*
X304159112Y-269902614D01*
X304159112Y-269902614D02*
X304230540Y-269759757D01*
X304230540Y-269759757D02*
X304373398Y-269688328D01*
X304373398Y-269688328D02*
X304659112Y-269688328D01*
X304659112Y-269688328D02*
X304801969Y-269759757D01*
X304801969Y-269759757D02*
X304873398Y-269902614D01*
X304873398Y-269902614D02*
X304873398Y-270045471D01*
X304873398Y-270045471D02*
X304159112Y-270188328D01*
X306087683Y-270616900D02*
X305944826Y-270688328D01*
X305944826Y-270688328D02*
X305659112Y-270688328D01*
X305659112Y-270688328D02*
X305516254Y-270616900D01*
X305516254Y-270616900D02*
X305444826Y-270474042D01*
X305444826Y-270474042D02*
X305444826Y-269902614D01*
X305444826Y-269902614D02*
X305516254Y-269759757D01*
X305516254Y-269759757D02*
X305659112Y-269688328D01*
X305659112Y-269688328D02*
X305944826Y-269688328D01*
X305944826Y-269688328D02*
X306087683Y-269759757D01*
X306087683Y-269759757D02*
X306159112Y-269902614D01*
X306159112Y-269902614D02*
X306159112Y-270045471D01*
X306159112Y-270045471D02*
X305444826Y-270188328D01*
X306587683Y-269688328D02*
X307159111Y-269688328D01*
X306801968Y-269188328D02*
X306801968Y-270474042D01*
X306801968Y-270474042D02*
X306873397Y-270616900D01*
X306873397Y-270616900D02*
X307016254Y-270688328D01*
X307016254Y-270688328D02*
X307159111Y-270688328D01*
X307659111Y-270545471D02*
X307730540Y-270616900D01*
X307730540Y-270616900D02*
X307659111Y-270688328D01*
X307659111Y-270688328D02*
X307587683Y-270616900D01*
X307587683Y-270616900D02*
X307659111Y-270545471D01*
X307659111Y-270545471D02*
X307659111Y-270688328D01*
X307659111Y-269759757D02*
X307730540Y-269831185D01*
X307730540Y-269831185D02*
X307659111Y-269902614D01*
X307659111Y-269902614D02*
X307587683Y-269831185D01*
X307587683Y-269831185D02*
X307659111Y-269759757D01*
X307659111Y-269759757D02*
X307659111Y-269902614D01*
D10*
D12*
X301829225Y-266180528D02*
X302114939Y-266180528D01*
X302114939Y-266180528D02*
X302257796Y-266251957D01*
X302257796Y-266251957D02*
X302400653Y-266394814D01*
X302400653Y-266394814D02*
X302472082Y-266680528D01*
X302472082Y-266680528D02*
X302472082Y-267180528D01*
X302472082Y-267180528D02*
X302400653Y-267466242D01*
X302400653Y-267466242D02*
X302257796Y-267609100D01*
X302257796Y-267609100D02*
X302114939Y-267680528D01*
X302114939Y-267680528D02*
X301829225Y-267680528D01*
X301829225Y-267680528D02*
X301686368Y-267609100D01*
X301686368Y-267609100D02*
X301543510Y-267466242D01*
X301543510Y-267466242D02*
X301472082Y-267180528D01*
X301472082Y-267180528D02*
X301472082Y-266680528D01*
X301472082Y-266680528D02*
X301543510Y-266394814D01*
X301543510Y-266394814D02*
X301686368Y-266251957D01*
X301686368Y-266251957D02*
X301829225Y-266180528D01*
X303757797Y-267680528D02*
X303757797Y-266180528D01*
X303757797Y-267609100D02*
X303614939Y-267680528D01*
X303614939Y-267680528D02*
X303329225Y-267680528D01*
X303329225Y-267680528D02*
X303186368Y-267609100D01*
X303186368Y-267609100D02*
X303114939Y-267537671D01*
X303114939Y-267537671D02*
X303043511Y-267394814D01*
X303043511Y-267394814D02*
X303043511Y-266966242D01*
X303043511Y-266966242D02*
X303114939Y-266823385D01*
X303114939Y-266823385D02*
X303186368Y-266751957D01*
X303186368Y-266751957D02*
X303329225Y-266680528D01*
X303329225Y-266680528D02*
X303614939Y-266680528D01*
X303614939Y-266680528D02*
X303757797Y-266751957D01*
X305114940Y-267680528D02*
X305114940Y-266180528D01*
X305114940Y-267609100D02*
X304972082Y-267680528D01*
X304972082Y-267680528D02*
X304686368Y-267680528D01*
X304686368Y-267680528D02*
X304543511Y-267609100D01*
X304543511Y-267609100D02*
X304472082Y-267537671D01*
X304472082Y-267537671D02*
X304400654Y-267394814D01*
X304400654Y-267394814D02*
X304400654Y-266966242D01*
X304400654Y-266966242D02*
X304472082Y-266823385D01*
X304472082Y-266823385D02*
X304543511Y-266751957D01*
X304543511Y-266751957D02*
X304686368Y-266680528D01*
X304686368Y-266680528D02*
X304972082Y-266680528D01*
X304972082Y-266680528D02*
X305114940Y-266751957D01*
X305757797Y-267609100D02*
X305900654Y-267680528D01*
X305900654Y-267680528D02*
X306186368Y-267680528D01*
X306186368Y-267680528D02*
X306329225Y-267609100D01*
X306329225Y-267609100D02*
X306400654Y-267466242D01*
X306400654Y-267466242D02*
X306400654Y-267394814D01*
X306400654Y-267394814D02*
X306329225Y-267251957D01*
X306329225Y-267251957D02*
X306186368Y-267180528D01*
X306186368Y-267180528D02*
X305972083Y-267180528D01*
X305972083Y-267180528D02*
X305829225Y-267109100D01*
X305829225Y-267109100D02*
X305757797Y-266966242D01*
X305757797Y-266966242D02*
X305757797Y-266894814D01*
X305757797Y-266894814D02*
X305829225Y-266751957D01*
X305829225Y-266751957D02*
X305972083Y-266680528D01*
X305972083Y-266680528D02*
X306186368Y-266680528D01*
X306186368Y-266680528D02*
X306329225Y-266751957D01*
X307257797Y-267680528D02*
X307114940Y-267609100D01*
X307114940Y-267609100D02*
X307043511Y-267537671D01*
X307043511Y-267537671D02*
X306972083Y-267394814D01*
X306972083Y-267394814D02*
X306972083Y-266966242D01*
X306972083Y-266966242D02*
X307043511Y-266823385D01*
X307043511Y-266823385D02*
X307114940Y-266751957D01*
X307114940Y-266751957D02*
X307257797Y-266680528D01*
X307257797Y-266680528D02*
X307472083Y-266680528D01*
X307472083Y-266680528D02*
X307614940Y-266751957D01*
X307614940Y-266751957D02*
X307686369Y-266823385D01*
X307686369Y-266823385D02*
X307757797Y-266966242D01*
X307757797Y-266966242D02*
X307757797Y-267394814D01*
X307757797Y-267394814D02*
X307686369Y-267537671D01*
X307686369Y-267537671D02*
X307614940Y-267609100D01*
X307614940Y-267609100D02*
X307472083Y-267680528D01*
X307472083Y-267680528D02*
X307257797Y-267680528D01*
X309043512Y-267609100D02*
X308900654Y-267680528D01*
X308900654Y-267680528D02*
X308614940Y-267680528D01*
X308614940Y-267680528D02*
X308472083Y-267609100D01*
X308472083Y-267609100D02*
X308400654Y-267537671D01*
X308400654Y-267537671D02*
X308329226Y-267394814D01*
X308329226Y-267394814D02*
X308329226Y-266966242D01*
X308329226Y-266966242D02*
X308400654Y-266823385D01*
X308400654Y-266823385D02*
X308472083Y-266751957D01*
X308472083Y-266751957D02*
X308614940Y-266680528D01*
X308614940Y-266680528D02*
X308900654Y-266680528D01*
X308900654Y-266680528D02*
X309043512Y-266751957D01*
X309686368Y-267680528D02*
X309686368Y-266180528D01*
X309829226Y-267109100D02*
X310257797Y-267680528D01*
X310257797Y-266680528D02*
X309686368Y-267251957D01*
X310829226Y-267609100D02*
X310972083Y-267680528D01*
X310972083Y-267680528D02*
X311257797Y-267680528D01*
X311257797Y-267680528D02*
X311400654Y-267609100D01*
X311400654Y-267609100D02*
X311472083Y-267466242D01*
X311472083Y-267466242D02*
X311472083Y-267394814D01*
X311472083Y-267394814D02*
X311400654Y-267251957D01*
X311400654Y-267251957D02*
X311257797Y-267180528D01*
X311257797Y-267180528D02*
X311043512Y-267180528D01*
X311043512Y-267180528D02*
X310900654Y-267109100D01*
X310900654Y-267109100D02*
X310829226Y-266966242D01*
X310829226Y-266966242D02*
X310829226Y-266894814D01*
X310829226Y-266894814D02*
X310900654Y-266751957D01*
X310900654Y-266751957D02*
X311043512Y-266680528D01*
X311043512Y-266680528D02*
X311257797Y-266680528D01*
X311257797Y-266680528D02*
X311400654Y-266751957D01*
X313257797Y-267680528D02*
X313257797Y-266180528D01*
X313257797Y-266751957D02*
X313400655Y-266680528D01*
X313400655Y-266680528D02*
X313686369Y-266680528D01*
X313686369Y-266680528D02*
X313829226Y-266751957D01*
X313829226Y-266751957D02*
X313900655Y-266823385D01*
X313900655Y-266823385D02*
X313972083Y-266966242D01*
X313972083Y-266966242D02*
X313972083Y-267394814D01*
X313972083Y-267394814D02*
X313900655Y-267537671D01*
X313900655Y-267537671D02*
X313829226Y-267609100D01*
X313829226Y-267609100D02*
X313686369Y-267680528D01*
X313686369Y-267680528D02*
X313400655Y-267680528D01*
X313400655Y-267680528D02*
X313257797Y-267609100D01*
X315329226Y-266180528D02*
X314614940Y-266180528D01*
X314614940Y-266180528D02*
X314543512Y-266894814D01*
X314543512Y-266894814D02*
X314614940Y-266823385D01*
X314614940Y-266823385D02*
X314757798Y-266751957D01*
X314757798Y-266751957D02*
X315114940Y-266751957D01*
X315114940Y-266751957D02*
X315257798Y-266823385D01*
X315257798Y-266823385D02*
X315329226Y-266894814D01*
X315329226Y-266894814D02*
X315400655Y-267037671D01*
X315400655Y-267037671D02*
X315400655Y-267394814D01*
X315400655Y-267394814D02*
X315329226Y-267537671D01*
X315329226Y-267537671D02*
X315257798Y-267609100D01*
X315257798Y-267609100D02*
X315114940Y-267680528D01*
X315114940Y-267680528D02*
X314757798Y-267680528D01*
X314757798Y-267680528D02*
X314614940Y-267609100D01*
X314614940Y-267609100D02*
X314543512Y-267537671D01*
X315972083Y-267609100D02*
X316114940Y-267680528D01*
X316114940Y-267680528D02*
X316400654Y-267680528D01*
X316400654Y-267680528D02*
X316543511Y-267609100D01*
X316543511Y-267609100D02*
X316614940Y-267466242D01*
X316614940Y-267466242D02*
X316614940Y-267394814D01*
X316614940Y-267394814D02*
X316543511Y-267251957D01*
X316543511Y-267251957D02*
X316400654Y-267180528D01*
X316400654Y-267180528D02*
X316186369Y-267180528D01*
X316186369Y-267180528D02*
X316043511Y-267109100D01*
X316043511Y-267109100D02*
X315972083Y-266966242D01*
X315972083Y-266966242D02*
X315972083Y-266894814D01*
X315972083Y-266894814D02*
X316043511Y-266751957D01*
X316043511Y-266751957D02*
X316186369Y-266680528D01*
X316186369Y-266680528D02*
X316400654Y-266680528D01*
X316400654Y-266680528D02*
X316543511Y-266751957D01*
X317900655Y-266680528D02*
X317900655Y-267680528D01*
X317543512Y-266109100D02*
X317186369Y-267180528D01*
X317186369Y-267180528D02*
X318114940Y-267180528D01*
D10*
D11*
X319989000Y-278502200D02*
X319989000Y-281502200D01*
D10*
D11*
X383989000Y-278502200D02*
X383989000Y-285002200D01*
D14*
%TO.P,CN3,1,Pin_1*%
%TO.N,+12V*%
X78660000Y-152400000D03*
D15*
%TO.P,CN3,2,Pin_2*%
%TO.N,GND*%
X73860000Y-152400000D03*
%TO.P,CN3,3,Pin_3*%
X69060000Y-152400000D03*
%TO.P,CN3,4,Pin_4*%
%TO.N,+5V*%
X64260000Y-152400000D03*
%TD*%
D14*
%TO.P,CN4,1,Pin_1*%
%TO.N,+12V*%
X78660000Y-46260000D03*
D15*
%TO.P,CN4,2,Pin_2*%
%TO.N,GND*%
X73860000Y-46260000D03*
%TO.P,CN4,3,Pin_3*%
X69060000Y-46260000D03*
%TO.P,CN4,4,Pin_4*%
%TO.N,+5V*%
X64260000Y-46260000D03*
%TD*%
D16*
%TO.P,D1,1,K*%
%TO.N,Net-(D1-K)*%
X53340000Y-152400000D03*
D17*
%TO.P,D1,2,A*%
%TO.N,+5V*%
X55880000Y-152400000D03*
%TD*%
D18*
%TO.P,CN5,1,Pin_1*%
%TO.N,+12V*%
X381000000Y-129860000D03*
D15*
%TO.P,CN5,2,Pin_2*%
%TO.N,GND*%
X381000000Y-125060000D03*
%TO.P,CN5,3,Pin_3*%
X381000000Y-120260000D03*
%TO.P,CN5,4,Pin_4*%
%TO.N,+5V*%
X381000000Y-115460000D03*
%TD*%
D19*
%TO.P,CN6,1,GND*%
%TO.N,GND*%
X363456300Y-161150000D03*
%TO.P,CN6,2,RESET*%
%TO.N,unconnected-(CN6-RESET-Pad2)*%
X360916300Y-161150000D03*
%TO.P,CN6,3,+5V*%
%TO.N,+5V*%
X358376300Y-161150000D03*
%TO.P,CN6,4,IRQ2*%
%TO.N,unconnected-(CN6-IRQ2-Pad4)*%
X355836300Y-161150000D03*
%TO.P,CN6,5,-5V*%
%TO.N,unconnected-(CN6--5V-Pad5)*%
X353296300Y-161150000D03*
%TO.P,CN6,6,DRQ2*%
%TO.N,unconnected-(CN6-DRQ2-Pad6)*%
X350756300Y-161150000D03*
%TO.P,CN6,7,-12V*%
%TO.N,unconnected-(CN6--12V-Pad7)*%
X348216300Y-161150000D03*
%TO.P,CN6,8,UNUSED*%
%TO.N,unconnected-(CN6-UNUSED-Pad8)*%
X345676300Y-161150000D03*
%TO.P,CN6,9,+12V*%
%TO.N,+12V*%
X343136300Y-161150000D03*
%TO.P,CN6,10,GND*%
%TO.N,GND*%
X340596300Y-161150000D03*
%TO.P,CN6,11,~{SMEMW}*%
%TO.N,unconnected-(CN6-~{SMEMW}-Pad11)*%
X338056300Y-161150000D03*
%TO.P,CN6,12,~{SMEMR}*%
%TO.N,unconnected-(CN6-~{SMEMR}-Pad12)*%
X335516300Y-161150000D03*
%TO.P,CN6,13,~{IOW}*%
%TO.N,unconnected-(CN6-~{IOW}-Pad13)*%
X332976300Y-161150000D03*
%TO.P,CN6,14,~{IOR}*%
%TO.N,unconnected-(CN6-~{IOR}-Pad14)*%
X330436300Y-161150000D03*
%TO.P,CN6,15,~{DACK3}*%
%TO.N,unconnected-(CN6-~{DACK3}-Pad15)*%
X327896300Y-161150000D03*
%TO.P,CN6,16,DRQ3*%
%TO.N,unconnected-(CN6-DRQ3-Pad16)*%
X325356300Y-161150000D03*
%TO.P,CN6,17,~{DACK1}*%
%TO.N,unconnected-(CN6-~{DACK1}-Pad17)*%
X322816300Y-161150000D03*
%TO.P,CN6,18,DRQ1*%
%TO.N,unconnected-(CN6-DRQ1-Pad18)*%
X320276300Y-161150000D03*
%TO.P,CN6,19,~{REFRESH}*%
%TO.N,unconnected-(CN6-~{REFRESH}-Pad19)*%
X317736300Y-161150000D03*
%TO.P,CN6,20,CLK*%
%TO.N,unconnected-(CN6-CLK-Pad20)*%
X315196300Y-161150000D03*
%TO.P,CN6,21,IRQ7*%
%TO.N,unconnected-(CN6-IRQ7-Pad21)*%
X312656300Y-161150000D03*
%TO.P,CN6,22,IRQ6*%
%TO.N,unconnected-(CN6-IRQ6-Pad22)*%
X310116300Y-161150000D03*
%TO.P,CN6,23,IRQ5*%
%TO.N,unconnected-(CN6-IRQ5-Pad23)*%
X307576300Y-161150000D03*
%TO.P,CN6,24,IRQ4*%
%TO.N,unconnected-(CN6-IRQ4-Pad24)*%
X305036300Y-161150000D03*
%TO.P,CN6,25,IRQ3*%
%TO.N,unconnected-(CN6-IRQ3-Pad25)*%
X302496300Y-161150000D03*
%TO.P,CN6,26,~{DACK2}*%
%TO.N,unconnected-(CN6-~{DACK2}-Pad26)*%
X299956300Y-161150000D03*
%TO.P,CN6,27,TC*%
%TO.N,unconnected-(CN6-TC-Pad27)*%
X297416300Y-161150000D03*
%TO.P,CN6,28,ALE*%
%TO.N,unconnected-(CN6-ALE-Pad28)*%
X294876300Y-161150000D03*
%TO.P,CN6,29,VCC*%
%TO.N,+5V*%
X292336300Y-161150000D03*
%TO.P,CN6,30,OSC*%
%TO.N,unconnected-(CN6-OSC-Pad30)*%
X289796300Y-161150000D03*
%TO.P,CN6,31,GND*%
%TO.N,GND*%
X287256300Y-161150000D03*
%TO.P,CN6,63,~{MEMCS16}*%
%TO.N,unconnected-(CN6-~{MEMCS16}-Pad63)*%
X277096300Y-161150000D03*
%TO.P,CN6,64,~{IOCS16}*%
%TO.N,unconnected-(CN6-~{IOCS16}-Pad64)*%
X274556300Y-161150000D03*
%TO.P,CN6,65,IRQ10*%
%TO.N,unconnected-(CN6-IRQ10-Pad65)*%
X272016300Y-161150000D03*
%TO.P,CN6,66,IRQ11*%
%TO.N,unconnected-(CN6-IRQ11-Pad66)*%
X269476300Y-161150000D03*
%TO.P,CN6,67,IRQ12*%
%TO.N,unconnected-(CN6-IRQ12-Pad67)*%
X266936300Y-161150000D03*
%TO.P,CN6,68,IRQ15*%
%TO.N,unconnected-(CN6-IRQ15-Pad68)*%
X264396300Y-161150000D03*
%TO.P,CN6,69,IRQ14*%
%TO.N,unconnected-(CN6-IRQ14-Pad69)*%
X261856300Y-161150000D03*
%TO.P,CN6,70,~{DACK0}*%
%TO.N,unconnected-(CN6-~{DACK0}-Pad70)*%
X259316300Y-161150000D03*
%TO.P,CN6,71,DRQ0*%
%TO.N,unconnected-(CN6-DRQ0-Pad71)*%
X256776300Y-161150000D03*
%TO.P,CN6,72,~{DACK5}*%
%TO.N,unconnected-(CN6-~{DACK5}-Pad72)*%
X254236300Y-161150000D03*
%TO.P,CN6,73,DRQ5*%
%TO.N,unconnected-(CN6-DRQ5-Pad73)*%
X251696300Y-161150000D03*
%TO.P,CN6,74,~{DACK6}*%
%TO.N,unconnected-(CN6-~{DACK6}-Pad74)*%
X249156300Y-161150000D03*
%TO.P,CN6,75,DRQ6*%
%TO.N,unconnected-(CN6-DRQ6-Pad75)*%
X246616300Y-161150000D03*
%TO.P,CN6,76,~{DACK7}*%
%TO.N,unconnected-(CN6-~{DACK7}-Pad76)*%
X244076300Y-161150000D03*
%TO.P,CN6,77,DRQ7*%
%TO.N,unconnected-(CN6-DRQ7-Pad77)*%
X241536300Y-161150000D03*
%TO.P,CN6,78,+5V*%
%TO.N,+5V*%
X238996300Y-161150000D03*
%TO.P,CN6,79,MASTER*%
%TO.N,unconnected-(CN6-MASTER-Pad79)*%
X236456300Y-161150000D03*
%TO.P,CN6,80,GND*%
%TO.N,GND*%
X233916300Y-161150000D03*
%TD*%
D14*
%TO.P,CN1,1,Pin_1*%
%TO.N,+12V*%
X223000000Y-152400000D03*
D15*
%TO.P,CN1,2,Pin_2*%
%TO.N,GND*%
X218200000Y-152400000D03*
%TO.P,CN1,3,Pin_3*%
X213400000Y-152400000D03*
%TO.P,CN1,4,Pin_4*%
%TO.N,+5V*%
X208600000Y-152400000D03*
%TD*%
D14*
%TO.P,CN2,1,Pin_1*%
%TO.N,+12V*%
X223000000Y-46260000D03*
D15*
%TO.P,CN2,2,Pin_2*%
%TO.N,GND*%
X218200000Y-46260000D03*
%TO.P,CN2,3,Pin_3*%
X213400000Y-46260000D03*
%TO.P,CN2,4,Pin_4*%
%TO.N,+5V*%
X208600000Y-46260000D03*
%TD*%
D20*
%TO.P,R1,1*%
%TO.N,Net-(D1-K)*%
X86280000Y-152400000D03*
%TO.P,R1,2*%
%TO.N,GND*%
X96440000Y-152400000D03*
%TD*%
D21*
%TO.P,H12,1,1*%
%TO.N,GND*%
X96872500Y-146450000D03*
D22*
X96872500Y-146450000D03*
%TD*%
D21*
%TO.P,H11,1,1*%
%TO.N,GND*%
X96872500Y-51200000D03*
D22*
X96872500Y-51200000D03*
%TD*%
D23*
%TO.P,H19,1,1*%
%TO.N,GND*%
X247920000Y-140100000D03*
D24*
X247920000Y-140100000D03*
%TD*%
D23*
%TO.P,H21,1,1*%
%TO.N,GND*%
X358460000Y-132980000D03*
D24*
X358460000Y-132980000D03*
%TD*%
D23*
%TO.P,H22,1,1*%
%TO.N,GND*%
X358460000Y-71260000D03*
D24*
X358460000Y-71260000D03*
%TD*%
D21*
%TO.P,H10,1,1*%
%TO.N,GND*%
X141322500Y-146450000D03*
D22*
X141322500Y-146450000D03*
%TD*%
D23*
%TO.P,H18,1,1*%
%TO.N,GND*%
X186200000Y-63500000D03*
D24*
X186200000Y-63500000D03*
%TD*%
D23*
%TO.P,H20,1,1*%
%TO.N,GND*%
X186200000Y-140100000D03*
D24*
X186200000Y-140100000D03*
%TD*%
D23*
%TO.P,H16,1,1*%
%TO.N,GND*%
X76510000Y-71260000D03*
D24*
X76510000Y-71260000D03*
%TD*%
D23*
%TO.P,H24,1,1*%
%TO.N,GND*%
X281860000Y-71260000D03*
D24*
X281860000Y-71260000D03*
%TD*%
D21*
%TO.P,H9,1,1*%
%TO.N,GND*%
X141322500Y-51200000D03*
D22*
X141322500Y-51200000D03*
%TD*%
D23*
%TO.P,H15,1,1*%
%TO.N,GND*%
X76510000Y-132980000D03*
D24*
X76510000Y-132980000D03*
%TD*%
D21*
%TO.P,H1,1,1*%
%TO.N,GND*%
X343460000Y-51200000D03*
D22*
X343460000Y-51200000D03*
%TD*%
D21*
%TO.P,H4,1,1*%
%TO.N,GND*%
X311710000Y-146450000D03*
D22*
X311710000Y-146450000D03*
%TD*%
D23*
%TO.P,H23,1,1*%
%TO.N,GND*%
X281860000Y-132980000D03*
D24*
X281860000Y-132980000D03*
%TD*%
D23*
%TO.P,H13,1,1*%
%TO.N,GND*%
X153110000Y-132980000D03*
D24*
X153110000Y-132980000D03*
%TD*%
D21*
%TO.P,H5,1,1*%
%TO.N,GND*%
X267260000Y-51200000D03*
D22*
X267260000Y-51200000D03*
%TD*%
D23*
%TO.P,H17,1,1*%
%TO.N,GND*%
X247920000Y-63500000D03*
D24*
X247920000Y-63500000D03*
%TD*%
D21*
%TO.P,H7,1,1*%
%TO.N,GND*%
X173072500Y-51200000D03*
D22*
X173072500Y-51200000D03*
%TD*%
D21*
%TO.P,H3,1,1*%
%TO.N,GND*%
X311710000Y-51200000D03*
D22*
X311710000Y-51200000D03*
%TD*%
D23*
%TO.P,H14,1,1*%
%TO.N,GND*%
X153110000Y-71260000D03*
D24*
X153110000Y-71260000D03*
%TD*%
D21*
%TO.P,H2,1,1*%
%TO.N,GND*%
X343460000Y-146450000D03*
D22*
X343460000Y-146450000D03*
%TD*%
D21*
%TO.P,H8,1,1*%
%TO.N,GND*%
X173072500Y-146450000D03*
D22*
X173072500Y-146450000D03*
%TD*%
D21*
%TO.P,H6,1,1*%
%TO.N,GND*%
X267260000Y-146450000D03*
D22*
X267260000Y-146450000D03*
%TD*%
D25*
%TO.N,+5V*%
X290836500Y-154955700D03*
X236962500Y-154955700D03*
X359675500Y-154955700D03*
%TO.N,GND*%
X83820000Y-99060000D03*
X58420000Y-58420000D03*
X195580000Y-83820000D03*
X162560000Y-149860000D03*
X104140000Y-114300000D03*
X124460000Y-111760000D03*
X358140000Y-63500000D03*
X287020000Y-142240000D03*
X375920000Y-147320000D03*
X287020000Y-48260000D03*
X193040000Y-73660000D03*
X304800000Y-83820000D03*
X180340000Y-99060000D03*
X325120000Y-88900000D03*
X116840000Y-93980000D03*
X332740000Y-81280000D03*
X154940000Y-114300000D03*
X170180000Y-91440000D03*
X279400000Y-116840000D03*
X279400000Y-60960000D03*
X144780000Y-116840000D03*
X261620000Y-99060000D03*
X91440000Y-76200000D03*
X322580000Y-134620000D03*
X238760000Y-129540000D03*
X345440000Y-127000000D03*
X78740000Y-114300000D03*
X149860000Y-91440000D03*
X86360000Y-119380000D03*
X297180000Y-60960000D03*
X342900000Y-96520000D03*
X106680000Y-66040000D03*
X215900000Y-134620000D03*
X355600000Y-86360000D03*
X129540000Y-66040000D03*
X287020000Y-99060000D03*
X360680000Y-116840000D03*
X172720000Y-63500000D03*
X309880000Y-91440000D03*
X190500000Y-99060000D03*
X58420000Y-129540000D03*
X259080000Y-60960000D03*
X121920000Y-48260000D03*
X119380000Y-119380000D03*
X111760000Y-53340000D03*
X368300000Y-55880000D03*
X236220000Y-60960000D03*
X335280000Y-142240000D03*
X317500000Y-124460000D03*
X215900000Y-71120000D03*
X381000000Y-104140000D03*
X129540000Y-76200000D03*
X86360000Y-60960000D03*
X256540000Y-83820000D03*
X363220000Y-99060000D03*
X381000000Y-50800000D03*
X340360000Y-114300000D03*
X193040000Y-121920000D03*
X139700000Y-109220000D03*
X276860000Y-83820000D03*
X299720000Y-124460000D03*
X99060000Y-81280000D03*
X109220000Y-127000000D03*
X381000000Y-73660000D03*
X109220000Y-149860000D03*
X137160000Y-124460000D03*
X345440000Y-73660000D03*
X167640000Y-134620000D03*
X198120000Y-132080000D03*
X185420000Y-152400000D03*
X180340000Y-76200000D03*
X175260000Y-124460000D03*
X233680000Y-76200000D03*
X58420000Y-106680000D03*
X327660000Y-114300000D03*
X297180000Y-139700000D03*
X294640000Y-111760000D03*
X172720000Y-73660000D03*
X259080000Y-124460000D03*
%TO.N,+12V*%
X344710500Y-151960200D03*
%TD*%
D26*
%TO.N,+5V*%
X208600000Y-152500000D02*
X208600000Y-46260000D01*
X358376300Y-161150000D02*
X358376300Y-156254900D01*
X238996300Y-156989500D02*
X236962500Y-154955700D01*
X370000000Y-144631200D02*
X370000000Y-124621523D01*
X379161523Y-115460000D02*
X381000000Y-115460000D01*
X292336300Y-161150000D02*
X292336300Y-156455500D01*
X358376300Y-156254900D02*
X359675500Y-154955700D01*
D27*
X55880000Y-152400000D02*
X64260000Y-152400000D01*
D26*
X370000000Y-124621523D02*
X379161523Y-115460000D01*
X238996300Y-161150000D02*
X238996300Y-156989500D01*
X292336300Y-156455500D02*
X290836500Y-154955700D01*
X64260000Y-152400000D02*
X64260000Y-46260000D01*
X359675500Y-154955700D02*
X370000000Y-144631200D01*
%TO.N,GND*%
X379161523Y-125460000D02*
X381000000Y-125460000D01*
X287256300Y-161150000D02*
X287256300Y-155176300D01*
D27*
X73401900Y-48518100D02*
X73660000Y-48260000D01*
D26*
X233916300Y-155176300D02*
X233680000Y-154940000D01*
D27*
X73660000Y-152400000D02*
X73401900Y-152141900D01*
D26*
X363456300Y-161150000D02*
X363456300Y-157243700D01*
X363456300Y-157243700D02*
X365760000Y-154940000D01*
X233916300Y-161150000D02*
X233916300Y-155176300D01*
X340596300Y-161150000D02*
X340596300Y-155176300D01*
%TO.N,+12V*%
X78660000Y-152400000D02*
X78660000Y-149780000D01*
X343136300Y-161150000D02*
X343136300Y-153534400D01*
X343136300Y-153534400D02*
X344710500Y-151960200D01*
X223000000Y-152500000D02*
X223000000Y-46260000D01*
X71120000Y-60960000D02*
X78660000Y-53420000D01*
X78660000Y-149780000D02*
X71120000Y-142240000D01*
X71120000Y-142240000D02*
X71120000Y-60960000D01*
X78660000Y-53420000D02*
X78660000Y-46260000D01*
%TD*%
%TA.AperFunction,Conductor*%
%TO.N,GND*%
G36*
X64132539Y-44240185D02*
G01*
X64178294Y-44292989D01*
X64188238Y-44362147D01*
X64159213Y-44425703D01*
X64100435Y-44463477D01*
X64081685Y-44467439D01*
X63907989Y-44490306D01*
X63680006Y-44551394D01*
X63461954Y-44641714D01*
X63461943Y-44641719D01*
X63257545Y-44759730D01*
X63070302Y-44903406D01*
X63070295Y-44903412D01*
X62903412Y-45070295D01*
X62903406Y-45070302D01*
X62759730Y-45257545D01*
X62759727Y-45257549D01*
X62759727Y-45257550D01*
X62752014Y-45270909D01*
X62641719Y-45461943D01*
X62641714Y-45461954D01*
X62551394Y-45680006D01*
X62490306Y-45907989D01*
X62459501Y-46141979D01*
X62459500Y-46141995D01*
X62459500Y-46378004D01*
X62459501Y-46378020D01*
X62490306Y-46612010D01*
X62551394Y-46839993D01*
X62641714Y-47058045D01*
X62641719Y-47058056D01*
X62712677Y-47180957D01*
X62759727Y-47262450D01*
X62759729Y-47262453D01*
X62759730Y-47262454D01*
X62903406Y-47449697D01*
X62903412Y-47449704D01*
X63070299Y-47616591D01*
X63086903Y-47629331D01*
X63110985Y-47647810D01*
X63152188Y-47704236D01*
X63159500Y-47746186D01*
X63159500Y-150913812D01*
X63139815Y-150980851D01*
X63110987Y-151012187D01*
X63070305Y-151043403D01*
X63070295Y-151043412D01*
X62903412Y-151210295D01*
X62903406Y-151210302D01*
X62759730Y-151397545D01*
X62759727Y-151397549D01*
X62759727Y-151397550D01*
X62753678Y-151408028D01*
X62641719Y-151601943D01*
X62641714Y-151601954D01*
X62591595Y-151722953D01*
X62547754Y-151777356D01*
X62481460Y-151799421D01*
X62477034Y-151799500D01*
X57221836Y-151799500D01*
X57154797Y-151779815D01*
X57111352Y-151731796D01*
X57077814Y-151665976D01*
X56948247Y-151487641D01*
X56948243Y-151487636D01*
X56792363Y-151331756D01*
X56792358Y-151331752D01*
X56614025Y-151202187D01*
X56614024Y-151202186D01*
X56614022Y-151202185D01*
X56496791Y-151142452D01*
X56417606Y-151102104D01*
X56417603Y-151102103D01*
X56207952Y-151033985D01*
X56031627Y-151006058D01*
X55990222Y-150999500D01*
X55769778Y-150999500D01*
X55728373Y-151006058D01*
X55552047Y-151033985D01*
X55342396Y-151102103D01*
X55342393Y-151102104D01*
X55145974Y-151202187D01*
X54967641Y-151331752D01*
X54967636Y-151331756D01*
X54917463Y-151381929D01*
X54856140Y-151415413D01*
X54786448Y-151410428D01*
X54730515Y-151368557D01*
X54713601Y-151337580D01*
X54683797Y-151257671D01*
X54683793Y-151257664D01*
X54597547Y-151142455D01*
X54597544Y-151142452D01*
X54482335Y-151056206D01*
X54482328Y-151056202D01*
X54347482Y-151005908D01*
X54347483Y-151005908D01*
X54287883Y-150999501D01*
X54287881Y-150999500D01*
X54287873Y-150999500D01*
X54287864Y-150999500D01*
X52392129Y-150999500D01*
X52392123Y-150999501D01*
X52332516Y-151005908D01*
X52197671Y-151056202D01*
X52197664Y-151056206D01*
X52082455Y-151142452D01*
X52082452Y-151142455D01*
X51996206Y-151257664D01*
X51996202Y-151257671D01*
X51945908Y-151392517D01*
X51939501Y-151452116D01*
X51939500Y-151452135D01*
X51939500Y-153347870D01*
X51939501Y-153347876D01*
X51945908Y-153407483D01*
X51996202Y-153542328D01*
X51996206Y-153542335D01*
X52082452Y-153657544D01*
X52082455Y-153657547D01*
X52197664Y-153743793D01*
X52197671Y-153743797D01*
X52332517Y-153794091D01*
X52332516Y-153794091D01*
X52339444Y-153794835D01*
X52392127Y-153800500D01*
X54287872Y-153800499D01*
X54347483Y-153794091D01*
X54482331Y-153743796D01*
X54597546Y-153657546D01*
X54683796Y-153542331D01*
X54699578Y-153500018D01*
X54713601Y-153462420D01*
X54755471Y-153406486D01*
X54820936Y-153382068D01*
X54889209Y-153396919D01*
X54917464Y-153418071D01*
X54967636Y-153468243D01*
X54967641Y-153468247D01*
X55069603Y-153542326D01*
X55145978Y-153597815D01*
X55274375Y-153663237D01*
X55342393Y-153697895D01*
X55342396Y-153697896D01*
X55447221Y-153731955D01*
X55552049Y-153766015D01*
X55769778Y-153800500D01*
X55769779Y-153800500D01*
X55990221Y-153800500D01*
X55990222Y-153800500D01*
X56207951Y-153766015D01*
X56417606Y-153697895D01*
X56614022Y-153597815D01*
X56792365Y-153468242D01*
X56948242Y-153312365D01*
X57077815Y-153134022D01*
X57094581Y-153101117D01*
X57111352Y-153068204D01*
X57159326Y-153017409D01*
X57221836Y-153000500D01*
X62477034Y-153000500D01*
X62544073Y-153020185D01*
X62589828Y-153072989D01*
X62591595Y-153077047D01*
X62641714Y-153198045D01*
X62641719Y-153198056D01*
X62687126Y-153276702D01*
X62759727Y-153402450D01*
X62759729Y-153402453D01*
X62759730Y-153402454D01*
X62903406Y-153589697D01*
X62903412Y-153589704D01*
X63070295Y-153756587D01*
X63070302Y-153756593D01*
X63180306Y-153841001D01*
X63257550Y-153900273D01*
X63388918Y-153976118D01*
X63461943Y-154018280D01*
X63461948Y-154018282D01*
X63461951Y-154018284D01*
X63680007Y-154108606D01*
X63907986Y-154169693D01*
X64141989Y-154200500D01*
X64141996Y-154200500D01*
X64378004Y-154200500D01*
X64378011Y-154200500D01*
X64612014Y-154169693D01*
X64839993Y-154108606D01*
X65058049Y-154018284D01*
X65262450Y-153900273D01*
X65449699Y-153756592D01*
X65462498Y-153743793D01*
X65504648Y-153701644D01*
X65616587Y-153589704D01*
X65616592Y-153589699D01*
X65760273Y-153402450D01*
X65878284Y-153198049D01*
X65968606Y-152979993D01*
X66029693Y-152752014D01*
X66060500Y-152518011D01*
X66060500Y-152282014D01*
X67260000Y-152282014D01*
X67260000Y-152517985D01*
X67290799Y-152751914D01*
X67351870Y-152979837D01*
X67442160Y-153197819D01*
X67442165Y-153197828D01*
X67560144Y-153402171D01*
X67560145Y-153402172D01*
X67622721Y-153483723D01*
X68344152Y-152762292D01*
X68351049Y-152778942D01*
X68438599Y-152909970D01*
X68550030Y-153021401D01*
X68681058Y-153108951D01*
X68697706Y-153115846D01*
X67976275Y-153837277D01*
X68057827Y-153899854D01*
X68057828Y-153899855D01*
X68262171Y-154017834D01*
X68262180Y-154017839D01*
X68480163Y-154108129D01*
X68480161Y-154108129D01*
X68708085Y-154169200D01*
X68942014Y-154199999D01*
X68942029Y-154200000D01*
X69177971Y-154200000D01*
X69177985Y-154199999D01*
X69411914Y-154169200D01*
X69639837Y-154108129D01*
X69857819Y-154017839D01*
X69857828Y-154017834D01*
X70062181Y-153899850D01*
X70143723Y-153837279D01*
X70143723Y-153837276D01*
X69422293Y-153115847D01*
X69438942Y-153108951D01*
X69569970Y-153021401D01*
X69681401Y-152909970D01*
X69768951Y-152778942D01*
X69775847Y-152762293D01*
X70497276Y-153483723D01*
X70497279Y-153483723D01*
X70559850Y-153402181D01*
X70677834Y-153197828D01*
X70677839Y-153197819D01*
X70768129Y-152979837D01*
X70829200Y-152751914D01*
X70859999Y-152517985D01*
X70860000Y-152517971D01*
X70860000Y-152282028D01*
X70859999Y-152282014D01*
X72060000Y-152282014D01*
X72060000Y-152517985D01*
X72090799Y-152751914D01*
X72151870Y-152979837D01*
X72242160Y-153197819D01*
X72242165Y-153197828D01*
X72360144Y-153402171D01*
X72360145Y-153402172D01*
X72422721Y-153483723D01*
X73144152Y-152762292D01*
X73151049Y-152778942D01*
X73238599Y-152909970D01*
X73350030Y-153021401D01*
X73481058Y-153108951D01*
X73497706Y-153115846D01*
X72776275Y-153837277D01*
X72857827Y-153899854D01*
X72857828Y-153899855D01*
X73062171Y-154017834D01*
X73062180Y-154017839D01*
X73280163Y-154108129D01*
X73280161Y-154108129D01*
X73508085Y-154169200D01*
X73742014Y-154199999D01*
X73742029Y-154200000D01*
X73977971Y-154200000D01*
X73977985Y-154199999D01*
X74211914Y-154169200D01*
X74439837Y-154108129D01*
X74657819Y-154017839D01*
X74657828Y-154017834D01*
X74862181Y-153899850D01*
X74943723Y-153837279D01*
X74943723Y-153837276D01*
X74222293Y-153115847D01*
X74238942Y-153108951D01*
X74369970Y-153021401D01*
X74481401Y-152909970D01*
X74568951Y-152778942D01*
X74575847Y-152762293D01*
X75297276Y-153483723D01*
X75297279Y-153483723D01*
X75359850Y-153402181D01*
X75477834Y-153197828D01*
X75477839Y-153197819D01*
X75568129Y-152979837D01*
X75629200Y-152751914D01*
X75659999Y-152517985D01*
X75660000Y-152517971D01*
X75660000Y-152282028D01*
X75659999Y-152282014D01*
X75629200Y-152048085D01*
X75568129Y-151820162D01*
X75477839Y-151602180D01*
X75477834Y-151602171D01*
X75359855Y-151397828D01*
X75359854Y-151397827D01*
X75297277Y-151316275D01*
X74575846Y-152037705D01*
X74568951Y-152021058D01*
X74481401Y-151890030D01*
X74369970Y-151778599D01*
X74238942Y-151691049D01*
X74222293Y-151684152D01*
X74943723Y-150962721D01*
X74862172Y-150900145D01*
X74862171Y-150900144D01*
X74657828Y-150782165D01*
X74657819Y-150782160D01*
X74439836Y-150691870D01*
X74439838Y-150691870D01*
X74211914Y-150630799D01*
X73977985Y-150600000D01*
X73742014Y-150600000D01*
X73508085Y-150630799D01*
X73280162Y-150691870D01*
X73062180Y-150782160D01*
X73062171Y-150782165D01*
X72857828Y-150900144D01*
X72857818Y-150900150D01*
X72776275Y-150962720D01*
X72776275Y-150962721D01*
X73497706Y-151684152D01*
X73481058Y-151691049D01*
X73350030Y-151778599D01*
X73238599Y-151890030D01*
X73151049Y-152021058D01*
X73144153Y-152037706D01*
X72422721Y-151316275D01*
X72422720Y-151316275D01*
X72360150Y-151397818D01*
X72360144Y-151397828D01*
X72242165Y-151602171D01*
X72242160Y-151602180D01*
X72151870Y-151820162D01*
X72090799Y-152048085D01*
X72060000Y-152282014D01*
X70859999Y-152282014D01*
X70829200Y-152048085D01*
X70768129Y-151820162D01*
X70677839Y-151602180D01*
X70677834Y-151602171D01*
X70559855Y-151397828D01*
X70559854Y-151397827D01*
X70497277Y-151316275D01*
X69775846Y-152037705D01*
X69768951Y-152021058D01*
X69681401Y-151890030D01*
X69569970Y-151778599D01*
X69438942Y-151691049D01*
X69422293Y-151684152D01*
X70143723Y-150962721D01*
X70062172Y-150900145D01*
X70062171Y-150900144D01*
X69857828Y-150782165D01*
X69857819Y-150782160D01*
X69639836Y-150691870D01*
X69639838Y-150691870D01*
X69411914Y-150630799D01*
X69177985Y-150600000D01*
X68942014Y-150600000D01*
X68708085Y-150630799D01*
X68480162Y-150691870D01*
X68262180Y-150782160D01*
X68262171Y-150782165D01*
X68057828Y-150900144D01*
X68057818Y-150900150D01*
X67976275Y-150962720D01*
X67976275Y-150962721D01*
X68697706Y-151684152D01*
X68681058Y-151691049D01*
X68550030Y-151778599D01*
X68438599Y-151890030D01*
X68351049Y-152021058D01*
X68344152Y-152037706D01*
X67622721Y-151316275D01*
X67622720Y-151316275D01*
X67560150Y-151397818D01*
X67560144Y-151397828D01*
X67442165Y-151602171D01*
X67442160Y-151602180D01*
X67351870Y-151820162D01*
X67290799Y-152048085D01*
X67260000Y-152282014D01*
X66060500Y-152282014D01*
X66060500Y-152281989D01*
X66029693Y-152047986D01*
X65968606Y-151820007D01*
X65878284Y-151601951D01*
X65878282Y-151601948D01*
X65878280Y-151601943D01*
X65817842Y-151497263D01*
X65760273Y-151397550D01*
X65616592Y-151210301D01*
X65616587Y-151210295D01*
X65506994Y-151100702D01*
X65506984Y-151100693D01*
X65449699Y-151043408D01*
X65405216Y-151009275D01*
X65401635Y-151006058D01*
X65385697Y-150980255D01*
X65367810Y-150955759D01*
X65366726Y-150949544D01*
X65364917Y-150946614D01*
X65365037Y-150939851D01*
X65360500Y-150913812D01*
X65360500Y-47746186D01*
X65380185Y-47679147D01*
X65409013Y-47647810D01*
X65449699Y-47616592D01*
X65449704Y-47616587D01*
X65504648Y-47561644D01*
X65616587Y-47449704D01*
X65616592Y-47449699D01*
X65760273Y-47262450D01*
X65878284Y-47058049D01*
X65968606Y-46839993D01*
X66029693Y-46612014D01*
X66060500Y-46378011D01*
X66060500Y-46141989D01*
X66029693Y-45907986D01*
X65968606Y-45680007D01*
X65878284Y-45461951D01*
X65878282Y-45461948D01*
X65878280Y-45461943D01*
X65836118Y-45388918D01*
X65760273Y-45257550D01*
X65616592Y-45070301D01*
X65616587Y-45070295D01*
X65449704Y-44903412D01*
X65449697Y-44903406D01*
X65262454Y-44759730D01*
X65262453Y-44759729D01*
X65262450Y-44759727D01*
X65180957Y-44712677D01*
X65058056Y-44641719D01*
X65058045Y-44641714D01*
X64839993Y-44551394D01*
X64612010Y-44490306D01*
X64438315Y-44467439D01*
X64374418Y-44439173D01*
X64335947Y-44380848D01*
X64335116Y-44310983D01*
X64372188Y-44251760D01*
X64435394Y-44221981D01*
X64454500Y-44220500D01*
X68869332Y-44220500D01*
X68936371Y-44240185D01*
X68982126Y-44292989D01*
X68992070Y-44362147D01*
X68963045Y-44425703D01*
X68904267Y-44463477D01*
X68885518Y-44467439D01*
X68708085Y-44490799D01*
X68480162Y-44551870D01*
X68262180Y-44642160D01*
X68262171Y-44642165D01*
X68057828Y-44760144D01*
X68057818Y-44760150D01*
X67976275Y-44822720D01*
X67976275Y-44822721D01*
X68697706Y-45544152D01*
X68681058Y-45551049D01*
X68550030Y-45638599D01*
X68438599Y-45750030D01*
X68351049Y-45881058D01*
X68344152Y-45897706D01*
X67622721Y-45176275D01*
X67622720Y-45176275D01*
X67560150Y-45257818D01*
X67560144Y-45257828D01*
X67442165Y-45462171D01*
X67442160Y-45462180D01*
X67351870Y-45680162D01*
X67290799Y-45908085D01*
X67260000Y-46142014D01*
X67260000Y-46377985D01*
X67290799Y-46611914D01*
X67351870Y-46839837D01*
X67442160Y-47057819D01*
X67442165Y-47057828D01*
X67560144Y-47262171D01*
X67560145Y-47262172D01*
X67622721Y-47343723D01*
X68344152Y-46622292D01*
X68351049Y-46638942D01*
X68438599Y-46769970D01*
X68550030Y-46881401D01*
X68681058Y-46968951D01*
X68697706Y-46975846D01*
X67976275Y-47697277D01*
X68057827Y-47759854D01*
X68057828Y-47759855D01*
X68262171Y-47877834D01*
X68262180Y-47877839D01*
X68480163Y-47968129D01*
X68480161Y-47968129D01*
X68708085Y-48029200D01*
X68942014Y-48059999D01*
X68942029Y-48060000D01*
X69177971Y-48060000D01*
X69177985Y-48059999D01*
X69411914Y-48029200D01*
X69639837Y-47968129D01*
X69857819Y-47877839D01*
X69857828Y-47877834D01*
X70062181Y-47759850D01*
X70143723Y-47697279D01*
X70143723Y-47697276D01*
X69422293Y-46975847D01*
X69438942Y-46968951D01*
X69569970Y-46881401D01*
X69681401Y-46769970D01*
X69768951Y-46638942D01*
X69775847Y-46622293D01*
X70497276Y-47343723D01*
X70497279Y-47343723D01*
X70559850Y-47262181D01*
X70677834Y-47057828D01*
X70677839Y-47057819D01*
X70768129Y-46839837D01*
X70829200Y-46611914D01*
X70859999Y-46377985D01*
X70860000Y-46377971D01*
X70860000Y-46142028D01*
X70859999Y-46142014D01*
X70829200Y-45908085D01*
X70768129Y-45680162D01*
X70677839Y-45462180D01*
X70677834Y-45462171D01*
X70559855Y-45257828D01*
X70559854Y-45257827D01*
X70497277Y-45176275D01*
X69775846Y-45897705D01*
X69768951Y-45881058D01*
X69681401Y-45750030D01*
X69569970Y-45638599D01*
X69438942Y-45551049D01*
X69422293Y-45544152D01*
X70143723Y-44822721D01*
X70062172Y-44760145D01*
X70062171Y-44760144D01*
X69857828Y-44642165D01*
X69857819Y-44642160D01*
X69639836Y-44551870D01*
X69639838Y-44551870D01*
X69411914Y-44490799D01*
X69234482Y-44467439D01*
X69170586Y-44439172D01*
X69132115Y-44380848D01*
X69131284Y-44310983D01*
X69168356Y-44251760D01*
X69231562Y-44221981D01*
X69250668Y-44220500D01*
X73669332Y-44220500D01*
X73736371Y-44240185D01*
X73782126Y-44292989D01*
X73792070Y-44362147D01*
X73763045Y-44425703D01*
X73704267Y-44463477D01*
X73685518Y-44467439D01*
X73508085Y-44490799D01*
X73280162Y-44551870D01*
X73062180Y-44642160D01*
X73062171Y-44642165D01*
X72857828Y-44760144D01*
X72857818Y-44760150D01*
X72776275Y-44822720D01*
X72776275Y-44822721D01*
X73497706Y-45544152D01*
X73481058Y-45551049D01*
X73350030Y-45638599D01*
X73238599Y-45750030D01*
X73151049Y-45881058D01*
X73144153Y-45897706D01*
X72422721Y-45176275D01*
X72422720Y-45176275D01*
X72360150Y-45257818D01*
X72360144Y-45257828D01*
X72242165Y-45462171D01*
X72242160Y-45462180D01*
X72151870Y-45680162D01*
X72090799Y-45908085D01*
X72060000Y-46142014D01*
X72060000Y-46377985D01*
X72090799Y-46611914D01*
X72151870Y-46839837D01*
X72242160Y-47057819D01*
X72242165Y-47057828D01*
X72360144Y-47262171D01*
X72360145Y-47262172D01*
X72422721Y-47343723D01*
X73144152Y-46622292D01*
X73151049Y-46638942D01*
X73238599Y-46769970D01*
X73350030Y-46881401D01*
X73481058Y-46968951D01*
X73497706Y-46975846D01*
X72776275Y-47697277D01*
X72857827Y-47759854D01*
X72857828Y-47759855D01*
X73062171Y-47877834D01*
X73062180Y-47877839D01*
X73280163Y-47968129D01*
X73280161Y-47968129D01*
X73508085Y-48029200D01*
X73742014Y-48059999D01*
X73742029Y-48060000D01*
X73977971Y-48060000D01*
X73977985Y-48059999D01*
X74211914Y-48029200D01*
X74439837Y-47968129D01*
X74657819Y-47877839D01*
X74657828Y-47877834D01*
X74862181Y-47759850D01*
X74943723Y-47697279D01*
X74943723Y-47697276D01*
X74222293Y-46975847D01*
X74238942Y-46968951D01*
X74369970Y-46881401D01*
X74481401Y-46769970D01*
X74568951Y-46638942D01*
X74575847Y-46622293D01*
X75297276Y-47343723D01*
X75297279Y-47343723D01*
X75359850Y-47262181D01*
X75477834Y-47057828D01*
X75477839Y-47057819D01*
X75568129Y-46839837D01*
X75629200Y-46611914D01*
X75659999Y-46377985D01*
X75660000Y-46377971D01*
X75660000Y-46142028D01*
X75659999Y-46142014D01*
X75629200Y-45908085D01*
X75568129Y-45680162D01*
X75477839Y-45462180D01*
X75477834Y-45462171D01*
X75359855Y-45257828D01*
X75359854Y-45257827D01*
X75297277Y-45176275D01*
X74575846Y-45897705D01*
X74568951Y-45881058D01*
X74481401Y-45750030D01*
X74369970Y-45638599D01*
X74238942Y-45551049D01*
X74222293Y-45544152D01*
X74943723Y-44822721D01*
X74862172Y-44760145D01*
X74862171Y-44760144D01*
X74657828Y-44642165D01*
X74657819Y-44642160D01*
X74439836Y-44551870D01*
X74439838Y-44551870D01*
X74211914Y-44490799D01*
X74034482Y-44467439D01*
X73970586Y-44439172D01*
X73932115Y-44380848D01*
X73931284Y-44310983D01*
X73968356Y-44251760D01*
X74031562Y-44221981D01*
X74050668Y-44220500D01*
X77465580Y-44220500D01*
X77532619Y-44240185D01*
X77578374Y-44292989D01*
X77588318Y-44362147D01*
X77559293Y-44425703D01*
X77500515Y-44463477D01*
X77478182Y-44467858D01*
X77457202Y-44470001D01*
X77457200Y-44470001D01*
X77290668Y-44525185D01*
X77290663Y-44525187D01*
X77141342Y-44617289D01*
X77017289Y-44741342D01*
X76925187Y-44890663D01*
X76925185Y-44890668D01*
X76920962Y-44903412D01*
X76870001Y-45057203D01*
X76870001Y-45057204D01*
X76870000Y-45057204D01*
X76859500Y-45159983D01*
X76859500Y-47360001D01*
X76859501Y-47360018D01*
X76870000Y-47462796D01*
X76870001Y-47462799D01*
X76920962Y-47616587D01*
X76925186Y-47629334D01*
X77017288Y-47778656D01*
X77141344Y-47902712D01*
X77290666Y-47994814D01*
X77457203Y-48049999D01*
X77457209Y-48049999D01*
X77461448Y-48050907D01*
X77522884Y-48084185D01*
X77556576Y-48145394D01*
X77559500Y-48172162D01*
X77559500Y-52912796D01*
X77539815Y-52979835D01*
X77523181Y-53000477D01*
X70280588Y-60243069D01*
X70280588Y-60243070D01*
X70280586Y-60243072D01*
X70236859Y-60303256D01*
X70178768Y-60383211D01*
X70100128Y-60537552D01*
X70046597Y-60702302D01*
X70019500Y-60873389D01*
X70019500Y-142153389D01*
X70019500Y-142326611D01*
X70046598Y-142497701D01*
X70100127Y-142662445D01*
X70178768Y-142816788D01*
X70280586Y-142956928D01*
X70280588Y-142956930D01*
X77523181Y-150199523D01*
X77537884Y-150226450D01*
X77554477Y-150252269D01*
X77555368Y-150258469D01*
X77556666Y-150260846D01*
X77559500Y-150287204D01*
X77559500Y-150487837D01*
X77539815Y-150554876D01*
X77487011Y-150600631D01*
X77461459Y-150609089D01*
X77457207Y-150609999D01*
X77290668Y-150665185D01*
X77290663Y-150665187D01*
X77141342Y-150757289D01*
X77017289Y-150881342D01*
X76925187Y-151030663D01*
X76925185Y-151030668D01*
X76902377Y-151099500D01*
X76870001Y-151197203D01*
X76870001Y-151197204D01*
X76870000Y-151197204D01*
X76859500Y-151299983D01*
X76859500Y-153500001D01*
X76859501Y-153500018D01*
X76870000Y-153602796D01*
X76870001Y-153602799D01*
X76925185Y-153769331D01*
X76925187Y-153769336D01*
X76944408Y-153800498D01*
X77017288Y-153918656D01*
X77141344Y-154042712D01*
X77290666Y-154134814D01*
X77457203Y-154189999D01*
X77559991Y-154200500D01*
X79760008Y-154200499D01*
X79862797Y-154189999D01*
X80029334Y-154134814D01*
X80178656Y-154042712D01*
X80302712Y-153918656D01*
X80394814Y-153769334D01*
X80449999Y-153602797D01*
X80460500Y-153500009D01*
X80460499Y-152297648D01*
X84979500Y-152297648D01*
X84979500Y-152502351D01*
X85011522Y-152704534D01*
X85074781Y-152899223D01*
X85115857Y-152979837D01*
X85167585Y-153081359D01*
X85167715Y-153081613D01*
X85288028Y-153247213D01*
X85432786Y-153391971D01*
X85567026Y-153489500D01*
X85598390Y-153512287D01*
X85714607Y-153571503D01*
X85780776Y-153605218D01*
X85780778Y-153605218D01*
X85780781Y-153605220D01*
X85885137Y-153639127D01*
X85975465Y-153668477D01*
X86027869Y-153676777D01*
X86177648Y-153700500D01*
X86177649Y-153700500D01*
X86382351Y-153700500D01*
X86382352Y-153700500D01*
X86584534Y-153668477D01*
X86779219Y-153605220D01*
X86961610Y-153512287D01*
X87054590Y-153444732D01*
X87127213Y-153391971D01*
X87127215Y-153391968D01*
X87127219Y-153391966D01*
X87271966Y-153247219D01*
X87271968Y-153247215D01*
X87271971Y-153247213D01*
X87354207Y-153134023D01*
X87392287Y-153081610D01*
X87485220Y-152899219D01*
X87548477Y-152704534D01*
X87580500Y-152502352D01*
X87580500Y-152297682D01*
X95140000Y-152297682D01*
X95140000Y-152502317D01*
X95172009Y-152704417D01*
X95235244Y-152899031D01*
X95328141Y-153081350D01*
X95328147Y-153081359D01*
X95360523Y-153125921D01*
X95360524Y-153125922D01*
X96040000Y-152446446D01*
X96040000Y-152452661D01*
X96067259Y-152554394D01*
X96119920Y-152645606D01*
X96194394Y-152720080D01*
X96285606Y-152772741D01*
X96387339Y-152800000D01*
X96393553Y-152800000D01*
X95714076Y-153479474D01*
X95758650Y-153511859D01*
X95940968Y-153604755D01*
X96135582Y-153667990D01*
X96337683Y-153700000D01*
X96542317Y-153700000D01*
X96744417Y-153667990D01*
X96939031Y-153604755D01*
X97121349Y-153511859D01*
X97165921Y-153479474D01*
X96486447Y-152800000D01*
X96492661Y-152800000D01*
X96594394Y-152772741D01*
X96685606Y-152720080D01*
X96760080Y-152645606D01*
X96812741Y-152554394D01*
X96840000Y-152452661D01*
X96840000Y-152446447D01*
X97519474Y-153125921D01*
X97551859Y-153081349D01*
X97644755Y-152899031D01*
X97707990Y-152704417D01*
X97740000Y-152502317D01*
X97740000Y-152297682D01*
X97707990Y-152095582D01*
X97644755Y-151900968D01*
X97551859Y-151718650D01*
X97519474Y-151674077D01*
X97519474Y-151674076D01*
X96840000Y-152353551D01*
X96840000Y-152347339D01*
X96812741Y-152245606D01*
X96760080Y-152154394D01*
X96685606Y-152079920D01*
X96594394Y-152027259D01*
X96492661Y-152000000D01*
X96486446Y-152000000D01*
X97165922Y-151320524D01*
X97165921Y-151320523D01*
X97121359Y-151288147D01*
X97121350Y-151288141D01*
X96939031Y-151195244D01*
X96744417Y-151132009D01*
X96542317Y-151100000D01*
X96337683Y-151100000D01*
X96135582Y-151132009D01*
X95940968Y-151195244D01*
X95758644Y-151288143D01*
X95714077Y-151320523D01*
X95714077Y-151320524D01*
X96393554Y-152000000D01*
X96387339Y-152000000D01*
X96285606Y-152027259D01*
X96194394Y-152079920D01*
X96119920Y-152154394D01*
X96067259Y-152245606D01*
X96040000Y-152347339D01*
X96040000Y-152353553D01*
X95360524Y-151674077D01*
X95360523Y-151674077D01*
X95328143Y-151718644D01*
X95235244Y-151900968D01*
X95172009Y-152095582D01*
X95140000Y-152297682D01*
X87580500Y-152297682D01*
X87580500Y-152297648D01*
X87567869Y-152217901D01*
X87548477Y-152095465D01*
X87517458Y-152000000D01*
X87485220Y-151900781D01*
X87485218Y-151900778D01*
X87485218Y-151900776D01*
X87451503Y-151834607D01*
X87392287Y-151718390D01*
X87360092Y-151674077D01*
X87271971Y-151552786D01*
X87127213Y-151408028D01*
X86961613Y-151287715D01*
X86961612Y-151287714D01*
X86961610Y-151287713D01*
X86874384Y-151243269D01*
X86779223Y-151194781D01*
X86584534Y-151131522D01*
X86398799Y-151102105D01*
X86382352Y-151099500D01*
X86177648Y-151099500D01*
X86161201Y-151102105D01*
X85975465Y-151131522D01*
X85780776Y-151194781D01*
X85598386Y-151287715D01*
X85432786Y-151408028D01*
X85288028Y-151552786D01*
X85167715Y-151718386D01*
X85074781Y-151900776D01*
X85011522Y-152095465D01*
X84979500Y-152297648D01*
X80460499Y-152297648D01*
X80460499Y-151299992D01*
X80459288Y-151288141D01*
X80449999Y-151197203D01*
X80449998Y-151197200D01*
X80428396Y-151132009D01*
X80394814Y-151030666D01*
X80302712Y-150881344D01*
X80178656Y-150757288D01*
X80029334Y-150665186D01*
X80029331Y-150665185D01*
X79862795Y-150610000D01*
X79858533Y-150609088D01*
X79797102Y-150575801D01*
X79763419Y-150514586D01*
X79760500Y-150487837D01*
X79760500Y-149693389D01*
X79733402Y-149522301D01*
X79733402Y-149522299D01*
X79681380Y-149362193D01*
X79680318Y-149358427D01*
X79601231Y-149203211D01*
X79499414Y-149063072D01*
X72256819Y-141820477D01*
X72223334Y-141759154D01*
X72220500Y-141732796D01*
X72220500Y-61467204D01*
X72240185Y-61400165D01*
X72256819Y-61379523D01*
X73515756Y-60120586D01*
X79499414Y-54136928D01*
X79601232Y-53996788D01*
X79679873Y-53842446D01*
X79733402Y-53677701D01*
X79760500Y-53506611D01*
X79760500Y-53333390D01*
X79760500Y-48172162D01*
X79780185Y-48105123D01*
X79832989Y-48059368D01*
X79858552Y-48050907D01*
X79862788Y-48049999D01*
X79862797Y-48049999D01*
X80029334Y-47994814D01*
X80178656Y-47902712D01*
X80302712Y-47778656D01*
X80394814Y-47629334D01*
X80449999Y-47462797D01*
X80460500Y-47360009D01*
X80460499Y-45159992D01*
X80449999Y-45057203D01*
X80394814Y-44890666D01*
X80302712Y-44741344D01*
X80178656Y-44617288D01*
X80029334Y-44525186D01*
X79862797Y-44470001D01*
X79862794Y-44470000D01*
X79841821Y-44467858D01*
X79777129Y-44441462D01*
X79736977Y-44384281D01*
X79734114Y-44314470D01*
X79769448Y-44254193D01*
X79831761Y-44222588D01*
X79854423Y-44220500D01*
X208405500Y-44220500D01*
X208472539Y-44240185D01*
X208518294Y-44292989D01*
X208528238Y-44362147D01*
X208499213Y-44425703D01*
X208440435Y-44463477D01*
X208421685Y-44467439D01*
X208247989Y-44490306D01*
X208020006Y-44551394D01*
X207801954Y-44641714D01*
X207801943Y-44641719D01*
X207597545Y-44759730D01*
X207410302Y-44903406D01*
X207410295Y-44903412D01*
X207243412Y-45070295D01*
X207243406Y-45070302D01*
X207099730Y-45257545D01*
X207099727Y-45257549D01*
X207099727Y-45257550D01*
X207092014Y-45270909D01*
X206981719Y-45461943D01*
X206981714Y-45461954D01*
X206891394Y-45680006D01*
X206830306Y-45907989D01*
X206799501Y-46141979D01*
X206799500Y-46141995D01*
X206799500Y-46378004D01*
X206799501Y-46378020D01*
X206830306Y-46612010D01*
X206891394Y-46839993D01*
X206981714Y-47058045D01*
X206981719Y-47058056D01*
X207052677Y-47180957D01*
X207099727Y-47262450D01*
X207099729Y-47262453D01*
X207099730Y-47262454D01*
X207243406Y-47449697D01*
X207243412Y-47449704D01*
X207410299Y-47616591D01*
X207426903Y-47629331D01*
X207450985Y-47647810D01*
X207492188Y-47704236D01*
X207499500Y-47746186D01*
X207499500Y-150913812D01*
X207479815Y-150980851D01*
X207450987Y-151012187D01*
X207410305Y-151043403D01*
X207410295Y-151043412D01*
X207243412Y-151210295D01*
X207243406Y-151210302D01*
X207099730Y-151397545D01*
X207099727Y-151397549D01*
X207099727Y-151397550D01*
X207093678Y-151408028D01*
X206981719Y-151601943D01*
X206981714Y-151601954D01*
X206891394Y-151820006D01*
X206830306Y-152047989D01*
X206799501Y-152281979D01*
X206799500Y-152281995D01*
X206799500Y-152518004D01*
X206799501Y-152518020D01*
X206830293Y-152751914D01*
X206830307Y-152752014D01*
X206854228Y-152841288D01*
X206891394Y-152979993D01*
X206981714Y-153198045D01*
X206981719Y-153198056D01*
X207027126Y-153276702D01*
X207099727Y-153402450D01*
X207099729Y-153402453D01*
X207099730Y-153402454D01*
X207243406Y-153589697D01*
X207243412Y-153589704D01*
X207410295Y-153756587D01*
X207410302Y-153756593D01*
X207520306Y-153841001D01*
X207597550Y-153900273D01*
X207728918Y-153976118D01*
X207801943Y-154018280D01*
X207801948Y-154018282D01*
X207801951Y-154018284D01*
X208020007Y-154108606D01*
X208247986Y-154169693D01*
X208481989Y-154200500D01*
X208481996Y-154200500D01*
X208718004Y-154200500D01*
X208718011Y-154200500D01*
X208952014Y-154169693D01*
X209179993Y-154108606D01*
X209398049Y-154018284D01*
X209602450Y-153900273D01*
X209789699Y-153756592D01*
X209802498Y-153743793D01*
X209844648Y-153701644D01*
X209956587Y-153589704D01*
X209956592Y-153589699D01*
X210100273Y-153402450D01*
X210218284Y-153198049D01*
X210308606Y-152979993D01*
X210369693Y-152752014D01*
X210400500Y-152518011D01*
X210400500Y-152282014D01*
X211600000Y-152282014D01*
X211600000Y-152517985D01*
X211630799Y-152751914D01*
X211691870Y-152979837D01*
X211782160Y-153197819D01*
X211782165Y-153197828D01*
X211900144Y-153402171D01*
X211900145Y-153402172D01*
X211962721Y-153483723D01*
X212684152Y-152762292D01*
X212691049Y-152778942D01*
X212778599Y-152909970D01*
X212890030Y-153021401D01*
X213021058Y-153108951D01*
X213037706Y-153115846D01*
X212316275Y-153837277D01*
X212397827Y-153899854D01*
X212397828Y-153899855D01*
X212602171Y-154017834D01*
X212602180Y-154017839D01*
X212820163Y-154108129D01*
X212820161Y-154108129D01*
X213048085Y-154169200D01*
X213282014Y-154199999D01*
X213282029Y-154200000D01*
X213517971Y-154200000D01*
X213517985Y-154199999D01*
X213751914Y-154169200D01*
X213979837Y-154108129D01*
X214197819Y-154017839D01*
X214197828Y-154017834D01*
X214402181Y-153899850D01*
X214483723Y-153837279D01*
X214483723Y-153837276D01*
X213762293Y-153115847D01*
X213778942Y-153108951D01*
X213909970Y-153021401D01*
X214021401Y-152909970D01*
X214108951Y-152778942D01*
X214115846Y-152762293D01*
X214837276Y-153483723D01*
X214837279Y-153483723D01*
X214899850Y-153402181D01*
X215017834Y-153197828D01*
X215017839Y-153197819D01*
X215108129Y-152979837D01*
X215169200Y-152751914D01*
X215199999Y-152517985D01*
X215200000Y-152517971D01*
X215200000Y-152282028D01*
X215199999Y-152282014D01*
X216400000Y-152282014D01*
X216400000Y-152517985D01*
X216430799Y-152751914D01*
X216491870Y-152979837D01*
X216582160Y-153197819D01*
X216582165Y-153197828D01*
X216700144Y-153402171D01*
X216700145Y-153402172D01*
X216762721Y-153483723D01*
X217484152Y-152762292D01*
X217491049Y-152778942D01*
X217578599Y-152909970D01*
X217690030Y-153021401D01*
X217821058Y-153108951D01*
X217837706Y-153115846D01*
X217116275Y-153837277D01*
X217197827Y-153899854D01*
X217197828Y-153899855D01*
X217402171Y-154017834D01*
X217402180Y-154017839D01*
X217620163Y-154108129D01*
X217620161Y-154108129D01*
X217848085Y-154169200D01*
X218082014Y-154199999D01*
X218082029Y-154200000D01*
X218317971Y-154200000D01*
X218317985Y-154199999D01*
X218551914Y-154169200D01*
X218779837Y-154108129D01*
X218997819Y-154017839D01*
X218997828Y-154017834D01*
X219202181Y-153899850D01*
X219283723Y-153837279D01*
X219283723Y-153837276D01*
X218562293Y-153115847D01*
X218578942Y-153108951D01*
X218709970Y-153021401D01*
X218821401Y-152909970D01*
X218908951Y-152778942D01*
X218915846Y-152762293D01*
X219637276Y-153483723D01*
X219637279Y-153483723D01*
X219699850Y-153402181D01*
X219817834Y-153197828D01*
X219817839Y-153197819D01*
X219908129Y-152979837D01*
X219969200Y-152751914D01*
X219999999Y-152517985D01*
X220000000Y-152517971D01*
X220000000Y-152282028D01*
X219999999Y-152282014D01*
X219969200Y-152048085D01*
X219908129Y-151820162D01*
X219817839Y-151602180D01*
X219817834Y-151602171D01*
X219699855Y-151397828D01*
X219699854Y-151397827D01*
X219637277Y-151316275D01*
X218915846Y-152037705D01*
X218908951Y-152021058D01*
X218821401Y-151890030D01*
X218709970Y-151778599D01*
X218578942Y-151691049D01*
X218562293Y-151684152D01*
X219283723Y-150962721D01*
X219202172Y-150900145D01*
X219202171Y-150900144D01*
X218997828Y-150782165D01*
X218997819Y-150782160D01*
X218779836Y-150691870D01*
X218779838Y-150691870D01*
X218551914Y-150630799D01*
X218317985Y-150600000D01*
X218082014Y-150600000D01*
X217848085Y-150630799D01*
X217620162Y-150691870D01*
X217402180Y-150782160D01*
X217402171Y-150782165D01*
X217197828Y-150900144D01*
X217197818Y-150900150D01*
X217116275Y-150962720D01*
X217116275Y-150962721D01*
X217837706Y-151684152D01*
X217821058Y-151691049D01*
X217690030Y-151778599D01*
X217578599Y-151890030D01*
X217491049Y-152021058D01*
X217484153Y-152037706D01*
X216762721Y-151316275D01*
X216762720Y-151316275D01*
X216700150Y-151397818D01*
X216700144Y-151397828D01*
X216582165Y-151602171D01*
X216582160Y-151602180D01*
X216491870Y-151820162D01*
X216430799Y-152048085D01*
X216400000Y-152282014D01*
X215199999Y-152282014D01*
X215169200Y-152048085D01*
X215108129Y-151820162D01*
X215017839Y-151602180D01*
X215017834Y-151602171D01*
X214899855Y-151397828D01*
X214899854Y-151397827D01*
X214837277Y-151316275D01*
X214115846Y-152037705D01*
X214108951Y-152021058D01*
X214021401Y-151890030D01*
X213909970Y-151778599D01*
X213778942Y-151691049D01*
X213762293Y-151684152D01*
X214483723Y-150962721D01*
X214402172Y-150900145D01*
X214402171Y-150900144D01*
X214197828Y-150782165D01*
X214197819Y-150782160D01*
X213979836Y-150691870D01*
X213979838Y-150691870D01*
X213751914Y-150630799D01*
X213517985Y-150600000D01*
X213282014Y-150600000D01*
X213048085Y-150630799D01*
X212820162Y-150691870D01*
X212602180Y-150782160D01*
X212602171Y-150782165D01*
X212397828Y-150900144D01*
X212397818Y-150900150D01*
X212316275Y-150962720D01*
X212316275Y-150962721D01*
X213037706Y-151684152D01*
X213021058Y-151691049D01*
X212890030Y-151778599D01*
X212778599Y-151890030D01*
X212691049Y-152021058D01*
X212684153Y-152037706D01*
X211962721Y-151316275D01*
X211962720Y-151316275D01*
X211900150Y-151397818D01*
X211900144Y-151397828D01*
X211782165Y-151602171D01*
X211782160Y-151602180D01*
X211691870Y-151820162D01*
X211630799Y-152048085D01*
X211600000Y-152282014D01*
X210400500Y-152282014D01*
X210400500Y-152281989D01*
X210369693Y-152047986D01*
X210308606Y-151820007D01*
X210218284Y-151601951D01*
X210218282Y-151601948D01*
X210218280Y-151601943D01*
X210157842Y-151497263D01*
X210100273Y-151397550D01*
X209956592Y-151210301D01*
X209956587Y-151210295D01*
X209846994Y-151100702D01*
X209846984Y-151100693D01*
X209789699Y-151043408D01*
X209745216Y-151009275D01*
X209741635Y-151006058D01*
X209725697Y-150980255D01*
X209707810Y-150955759D01*
X209706726Y-150949544D01*
X209704917Y-150946614D01*
X209705037Y-150939851D01*
X209700500Y-150913812D01*
X209700500Y-47746186D01*
X209720185Y-47679147D01*
X209749013Y-47647810D01*
X209789699Y-47616592D01*
X209789704Y-47616587D01*
X209844648Y-47561644D01*
X209956587Y-47449704D01*
X209956592Y-47449699D01*
X210100273Y-47262450D01*
X210218284Y-47058049D01*
X210308606Y-46839993D01*
X210369693Y-46612014D01*
X210400500Y-46378011D01*
X210400500Y-46141989D01*
X210369693Y-45907986D01*
X210308606Y-45680007D01*
X210218284Y-45461951D01*
X210218282Y-45461948D01*
X210218280Y-45461943D01*
X210176118Y-45388918D01*
X210100273Y-45257550D01*
X209956592Y-45070301D01*
X209956587Y-45070295D01*
X209789704Y-44903412D01*
X209789697Y-44903406D01*
X209602454Y-44759730D01*
X209602453Y-44759729D01*
X209602450Y-44759727D01*
X209520957Y-44712677D01*
X209398056Y-44641719D01*
X209398045Y-44641714D01*
X209179993Y-44551394D01*
X208952010Y-44490306D01*
X208778315Y-44467439D01*
X208714418Y-44439173D01*
X208675947Y-44380848D01*
X208675116Y-44310983D01*
X208712188Y-44251760D01*
X208775394Y-44221981D01*
X208794500Y-44220500D01*
X213209332Y-44220500D01*
X213276371Y-44240185D01*
X213322126Y-44292989D01*
X213332070Y-44362147D01*
X213303045Y-44425703D01*
X213244267Y-44463477D01*
X213225518Y-44467439D01*
X213048085Y-44490799D01*
X212820162Y-44551870D01*
X212602180Y-44642160D01*
X212602171Y-44642165D01*
X212397828Y-44760144D01*
X212397818Y-44760150D01*
X212316275Y-44822720D01*
X212316275Y-44822721D01*
X213037706Y-45544152D01*
X213021058Y-45551049D01*
X212890030Y-45638599D01*
X212778599Y-45750030D01*
X212691049Y-45881058D01*
X212684153Y-45897706D01*
X211962721Y-45176275D01*
X211962720Y-45176275D01*
X211900150Y-45257818D01*
X211900144Y-45257828D01*
X211782165Y-45462171D01*
X211782160Y-45462180D01*
X211691870Y-45680162D01*
X211630799Y-45908085D01*
X211600000Y-46142014D01*
X211600000Y-46377985D01*
X211630799Y-46611914D01*
X211691870Y-46839837D01*
X211782160Y-47057819D01*
X211782165Y-47057828D01*
X211900144Y-47262171D01*
X211900145Y-47262172D01*
X211962721Y-47343723D01*
X212684152Y-46622292D01*
X212691049Y-46638942D01*
X212778599Y-46769970D01*
X212890030Y-46881401D01*
X213021058Y-46968951D01*
X213037706Y-46975846D01*
X212316275Y-47697277D01*
X212397827Y-47759854D01*
X212397828Y-47759855D01*
X212602171Y-47877834D01*
X212602180Y-47877839D01*
X212820163Y-47968129D01*
X212820161Y-47968129D01*
X213048085Y-48029200D01*
X213282014Y-48059999D01*
X213282029Y-48060000D01*
X213517971Y-48060000D01*
X213517985Y-48059999D01*
X213751914Y-48029200D01*
X213979837Y-47968129D01*
X214197819Y-47877839D01*
X214197828Y-47877834D01*
X214402181Y-47759850D01*
X214483723Y-47697279D01*
X214483723Y-47697276D01*
X213762293Y-46975847D01*
X213778942Y-46968951D01*
X213909970Y-46881401D01*
X214021401Y-46769970D01*
X214108951Y-46638942D01*
X214115846Y-46622293D01*
X214837276Y-47343723D01*
X214837279Y-47343723D01*
X214899850Y-47262181D01*
X215017834Y-47057828D01*
X215017839Y-47057819D01*
X215108129Y-46839837D01*
X215169200Y-46611914D01*
X215199999Y-46377985D01*
X215200000Y-46377971D01*
X215200000Y-46142028D01*
X215199999Y-46142014D01*
X215169200Y-45908085D01*
X215108129Y-45680162D01*
X215017839Y-45462180D01*
X215017834Y-45462171D01*
X214899855Y-45257828D01*
X214899854Y-45257827D01*
X214837277Y-45176275D01*
X214115846Y-45897705D01*
X214108951Y-45881058D01*
X214021401Y-45750030D01*
X213909970Y-45638599D01*
X213778942Y-45551049D01*
X213762293Y-45544152D01*
X214483723Y-44822721D01*
X214402172Y-44760145D01*
X214402171Y-44760144D01*
X214197828Y-44642165D01*
X214197819Y-44642160D01*
X213979836Y-44551870D01*
X213979838Y-44551870D01*
X213751914Y-44490799D01*
X213574482Y-44467439D01*
X213510586Y-44439172D01*
X213472115Y-44380848D01*
X213471284Y-44310983D01*
X213508356Y-44251760D01*
X213571562Y-44221981D01*
X213590668Y-44220500D01*
X218009332Y-44220500D01*
X218076371Y-44240185D01*
X218122126Y-44292989D01*
X218132070Y-44362147D01*
X218103045Y-44425703D01*
X218044267Y-44463477D01*
X218025518Y-44467439D01*
X217848085Y-44490799D01*
X217620162Y-44551870D01*
X217402180Y-44642160D01*
X217402171Y-44642165D01*
X217197828Y-44760144D01*
X217197818Y-44760150D01*
X217116275Y-44822720D01*
X217116275Y-44822721D01*
X217837706Y-45544152D01*
X217821058Y-45551049D01*
X217690030Y-45638599D01*
X217578599Y-45750030D01*
X217491049Y-45881058D01*
X217484153Y-45897706D01*
X216762721Y-45176275D01*
X216762720Y-45176275D01*
X216700150Y-45257818D01*
X216700144Y-45257828D01*
X216582165Y-45462171D01*
X216582160Y-45462180D01*
X216491870Y-45680162D01*
X216430799Y-45908085D01*
X216400000Y-46142014D01*
X216400000Y-46377985D01*
X216430799Y-46611914D01*
X216491870Y-46839837D01*
X216582160Y-47057819D01*
X216582165Y-47057828D01*
X216700144Y-47262171D01*
X216700145Y-47262172D01*
X216762721Y-47343723D01*
X217484152Y-46622292D01*
X217491049Y-46638942D01*
X217578599Y-46769970D01*
X217690030Y-46881401D01*
X217821058Y-46968951D01*
X217837706Y-46975846D01*
X217116275Y-47697277D01*
X217197827Y-47759854D01*
X217197828Y-47759855D01*
X217402171Y-47877834D01*
X217402180Y-47877839D01*
X217620163Y-47968129D01*
X217620161Y-47968129D01*
X217848085Y-48029200D01*
X218082014Y-48059999D01*
X218082029Y-48060000D01*
X218317971Y-48060000D01*
X218317985Y-48059999D01*
X218551914Y-48029200D01*
X218779837Y-47968129D01*
X218997819Y-47877839D01*
X218997828Y-47877834D01*
X219202181Y-47759850D01*
X219283723Y-47697279D01*
X219283723Y-47697276D01*
X218562293Y-46975847D01*
X218578942Y-46968951D01*
X218709970Y-46881401D01*
X218821401Y-46769970D01*
X218908951Y-46638942D01*
X218915846Y-46622293D01*
X219637276Y-47343723D01*
X219637279Y-47343723D01*
X219699850Y-47262181D01*
X219817834Y-47057828D01*
X219817839Y-47057819D01*
X219908129Y-46839837D01*
X219969200Y-46611914D01*
X219999999Y-46377985D01*
X220000000Y-46377971D01*
X220000000Y-46142028D01*
X219999999Y-46142014D01*
X219969200Y-45908085D01*
X219908129Y-45680162D01*
X219817839Y-45462180D01*
X219817834Y-45462171D01*
X219699855Y-45257828D01*
X219699854Y-45257827D01*
X219637277Y-45176275D01*
X218915846Y-45897705D01*
X218908951Y-45881058D01*
X218821401Y-45750030D01*
X218709970Y-45638599D01*
X218578942Y-45551049D01*
X218562293Y-45544152D01*
X219283723Y-44822721D01*
X219202172Y-44760145D01*
X219202171Y-44760144D01*
X218997828Y-44642165D01*
X218997819Y-44642160D01*
X218779836Y-44551870D01*
X218779838Y-44551870D01*
X218551914Y-44490799D01*
X218374482Y-44467439D01*
X218310586Y-44439172D01*
X218272115Y-44380848D01*
X218271284Y-44310983D01*
X218308356Y-44251760D01*
X218371562Y-44221981D01*
X218390668Y-44220500D01*
X221805580Y-44220500D01*
X221872619Y-44240185D01*
X221918374Y-44292989D01*
X221928318Y-44362147D01*
X221899293Y-44425703D01*
X221840515Y-44463477D01*
X221818182Y-44467858D01*
X221797202Y-44470001D01*
X221797200Y-44470001D01*
X221630668Y-44525185D01*
X221630663Y-44525187D01*
X221481342Y-44617289D01*
X221357289Y-44741342D01*
X221265187Y-44890663D01*
X221265185Y-44890668D01*
X221260962Y-44903412D01*
X221210001Y-45057203D01*
X221210001Y-45057204D01*
X221210000Y-45057204D01*
X221199500Y-45159983D01*
X221199500Y-47360001D01*
X221199501Y-47360018D01*
X221210000Y-47462796D01*
X221210001Y-47462799D01*
X221260962Y-47616587D01*
X221265186Y-47629334D01*
X221357288Y-47778656D01*
X221481344Y-47902712D01*
X221630666Y-47994814D01*
X221797203Y-48049999D01*
X221797209Y-48049999D01*
X221801448Y-48050907D01*
X221862884Y-48084185D01*
X221896576Y-48145394D01*
X221899500Y-48172162D01*
X221899500Y-150487837D01*
X221879815Y-150554876D01*
X221827011Y-150600631D01*
X221801459Y-150609089D01*
X221797207Y-150609999D01*
X221630668Y-150665185D01*
X221630663Y-150665187D01*
X221481342Y-150757289D01*
X221357289Y-150881342D01*
X221265187Y-151030663D01*
X221265185Y-151030668D01*
X221242377Y-151099500D01*
X221210001Y-151197203D01*
X221210001Y-151197204D01*
X221210000Y-151197204D01*
X221199500Y-151299983D01*
X221199500Y-153500001D01*
X221199501Y-153500018D01*
X221210000Y-153602796D01*
X221210001Y-153602799D01*
X221265185Y-153769331D01*
X221265187Y-153769336D01*
X221284408Y-153800498D01*
X221357288Y-153918656D01*
X221481344Y-154042712D01*
X221630666Y-154134814D01*
X221797203Y-154189999D01*
X221899991Y-154200500D01*
X224100008Y-154200499D01*
X224202797Y-154189999D01*
X224369334Y-154134814D01*
X224518656Y-154042712D01*
X224642712Y-153918656D01*
X224734814Y-153769334D01*
X224789999Y-153602797D01*
X224800500Y-153500009D01*
X224800499Y-151299992D01*
X224799288Y-151288141D01*
X224789999Y-151197203D01*
X224789998Y-151197200D01*
X224768396Y-151132009D01*
X224734814Y-151030666D01*
X224642712Y-150881344D01*
X224518656Y-150757288D01*
X224369334Y-150665186D01*
X224369331Y-150665185D01*
X224202795Y-150610000D01*
X224198533Y-150609088D01*
X224137102Y-150575801D01*
X224103419Y-150514586D01*
X224100500Y-150487837D01*
X224100500Y-86098711D01*
X380149500Y-86098711D01*
X380149500Y-86341288D01*
X380181161Y-86581785D01*
X380243947Y-86816104D01*
X380336773Y-87040205D01*
X380336776Y-87040212D01*
X380458064Y-87250289D01*
X380458066Y-87250292D01*
X380458067Y-87250293D01*
X380605733Y-87442736D01*
X380605739Y-87442743D01*
X380777256Y-87614260D01*
X380777262Y-87614265D01*
X380969711Y-87761936D01*
X381179788Y-87883224D01*
X381403900Y-87976054D01*
X381638211Y-88038838D01*
X381818586Y-88062584D01*
X381878711Y-88070500D01*
X381878712Y-88070500D01*
X382121289Y-88070500D01*
X382169388Y-88064167D01*
X382361789Y-88038838D01*
X382596100Y-87976054D01*
X382820212Y-87883224D01*
X383030289Y-87761936D01*
X383222738Y-87614265D01*
X383394265Y-87442738D01*
X383541936Y-87250289D01*
X383663224Y-87040212D01*
X383756054Y-86816100D01*
X383818838Y-86581789D01*
X383850500Y-86341288D01*
X383850500Y-86098712D01*
X383818838Y-85858211D01*
X383756054Y-85623900D01*
X383663224Y-85399788D01*
X383541936Y-85189711D01*
X383394265Y-84997262D01*
X383394260Y-84997256D01*
X383222743Y-84825739D01*
X383222736Y-84825733D01*
X383030293Y-84678067D01*
X383030292Y-84678066D01*
X383030289Y-84678064D01*
X382820212Y-84556776D01*
X382820205Y-84556773D01*
X382596104Y-84463947D01*
X382361785Y-84401161D01*
X382121289Y-84369500D01*
X382121288Y-84369500D01*
X381878712Y-84369500D01*
X381878711Y-84369500D01*
X381638214Y-84401161D01*
X381403895Y-84463947D01*
X381179794Y-84556773D01*
X381179785Y-84556777D01*
X380969706Y-84678067D01*
X380777263Y-84825733D01*
X380777256Y-84825739D01*
X380605739Y-84997256D01*
X380605733Y-84997263D01*
X380458067Y-85189706D01*
X380336777Y-85399785D01*
X380336773Y-85399794D01*
X380243947Y-85623895D01*
X380181161Y-85858214D01*
X380149500Y-86098711D01*
X224100500Y-86098711D01*
X224100500Y-65218711D01*
X376149500Y-65218711D01*
X376149500Y-65461288D01*
X376181161Y-65701785D01*
X376243947Y-65936104D01*
X376336773Y-66160205D01*
X376336776Y-66160212D01*
X376458064Y-66370289D01*
X376458066Y-66370292D01*
X376458067Y-66370293D01*
X376605733Y-66562736D01*
X376605739Y-66562743D01*
X376777256Y-66734260D01*
X376777262Y-66734265D01*
X376969711Y-66881936D01*
X377179788Y-67003224D01*
X377403900Y-67096054D01*
X377638211Y-67158838D01*
X377818586Y-67182584D01*
X377878711Y-67190500D01*
X377878712Y-67190500D01*
X378121289Y-67190500D01*
X378169388Y-67184167D01*
X378361789Y-67158838D01*
X378596100Y-67096054D01*
X378820212Y-67003224D01*
X379030289Y-66881936D01*
X379222738Y-66734265D01*
X379394265Y-66562738D01*
X379541936Y-66370289D01*
X379663224Y-66160212D01*
X379756054Y-65936100D01*
X379818838Y-65701789D01*
X379850500Y-65461288D01*
X379850500Y-65218712D01*
X379850500Y-65218711D01*
X381149500Y-65218711D01*
X381149500Y-65461288D01*
X381181161Y-65701785D01*
X381243947Y-65936104D01*
X381336773Y-66160205D01*
X381336776Y-66160212D01*
X381458064Y-66370289D01*
X381458066Y-66370292D01*
X381458067Y-66370293D01*
X381605733Y-66562736D01*
X381605739Y-66562743D01*
X381777256Y-66734260D01*
X381777262Y-66734265D01*
X381969711Y-66881936D01*
X382179788Y-67003224D01*
X382403900Y-67096054D01*
X382638211Y-67158838D01*
X382818586Y-67182584D01*
X382878711Y-67190500D01*
X382878712Y-67190500D01*
X383121289Y-67190500D01*
X383169388Y-67184167D01*
X383361789Y-67158838D01*
X383596100Y-67096054D01*
X383820212Y-67003224D01*
X384030289Y-66881936D01*
X384222738Y-66734265D01*
X384394265Y-66562738D01*
X384541936Y-66370289D01*
X384663224Y-66160212D01*
X384756054Y-65936100D01*
X384818838Y-65701789D01*
X384850500Y-65461288D01*
X384850500Y-65218712D01*
X384818838Y-64978211D01*
X384756054Y-64743900D01*
X384663224Y-64519788D01*
X384541936Y-64309711D01*
X384394265Y-64117262D01*
X384394260Y-64117256D01*
X384222743Y-63945739D01*
X384222736Y-63945733D01*
X384030293Y-63798067D01*
X384030292Y-63798066D01*
X384030289Y-63798064D01*
X383820212Y-63676776D01*
X383820205Y-63676773D01*
X383596104Y-63583947D01*
X383361785Y-63521161D01*
X383121289Y-63489500D01*
X383121288Y-63489500D01*
X382878712Y-63489500D01*
X382878711Y-63489500D01*
X382638214Y-63521161D01*
X382403895Y-63583947D01*
X382179794Y-63676773D01*
X382179785Y-63676777D01*
X381969706Y-63798067D01*
X381777263Y-63945733D01*
X381777256Y-63945739D01*
X381605739Y-64117256D01*
X381605733Y-64117263D01*
X381458067Y-64309706D01*
X381336777Y-64519785D01*
X381336773Y-64519794D01*
X381243947Y-64743895D01*
X381181161Y-64978214D01*
X381149500Y-65218711D01*
X379850500Y-65218711D01*
X379818838Y-64978211D01*
X379756054Y-64743900D01*
X379663224Y-64519788D01*
X379541936Y-64309711D01*
X379394265Y-64117262D01*
X379394260Y-64117256D01*
X379222743Y-63945739D01*
X379222736Y-63945733D01*
X379030293Y-63798067D01*
X379030292Y-63798066D01*
X379030289Y-63798064D01*
X378820212Y-63676776D01*
X378820205Y-63676773D01*
X378596104Y-63583947D01*
X378361785Y-63521161D01*
X378121289Y-63489500D01*
X378121288Y-63489500D01*
X377878712Y-63489500D01*
X377878711Y-63489500D01*
X377638214Y-63521161D01*
X377403895Y-63583947D01*
X377179794Y-63676773D01*
X377179785Y-63676777D01*
X376969706Y-63798067D01*
X376777263Y-63945733D01*
X376777256Y-63945739D01*
X376605739Y-64117256D01*
X376605733Y-64117263D01*
X376458067Y-64309706D01*
X376336777Y-64519785D01*
X376336773Y-64519794D01*
X376243947Y-64743895D01*
X376181161Y-64978214D01*
X376149500Y-65218711D01*
X224100500Y-65218711D01*
X224100500Y-48172162D01*
X224120185Y-48105123D01*
X224172989Y-48059368D01*
X224198552Y-48050907D01*
X224202788Y-48049999D01*
X224202797Y-48049999D01*
X224369334Y-47994814D01*
X224518656Y-47902712D01*
X224642712Y-47778656D01*
X224734814Y-47629334D01*
X224789999Y-47462797D01*
X224800500Y-47360009D01*
X224800499Y-45159992D01*
X224789999Y-45057203D01*
X224734814Y-44890666D01*
X224642712Y-44741344D01*
X224518656Y-44617288D01*
X224369334Y-44525186D01*
X224202797Y-44470001D01*
X224202794Y-44470000D01*
X224181821Y-44467858D01*
X224117129Y-44441462D01*
X224076977Y-44384281D01*
X224074114Y-44314470D01*
X224109448Y-44254193D01*
X224171761Y-44222588D01*
X224194423Y-44220500D01*
X387375500Y-44220500D01*
X387442539Y-44240185D01*
X387488294Y-44292989D01*
X387499500Y-44344500D01*
X387499500Y-156672457D01*
X387479815Y-156739496D01*
X387427011Y-156785251D01*
X387375500Y-156796457D01*
X374459909Y-156796457D01*
X374392870Y-156776772D01*
X374347115Y-156723968D01*
X374337171Y-156654810D01*
X374366196Y-156591254D01*
X374372228Y-156584776D01*
X374394260Y-156562743D01*
X374394268Y-156562735D01*
X374509381Y-156412715D01*
X374541936Y-156370289D01*
X374663224Y-156160212D01*
X374756054Y-155936100D01*
X374818838Y-155701789D01*
X374850500Y-155461288D01*
X374850500Y-155218712D01*
X374818838Y-154978211D01*
X374756054Y-154743900D01*
X374663224Y-154519788D01*
X374541936Y-154309711D01*
X374394265Y-154117262D01*
X374394260Y-154117256D01*
X374222743Y-153945739D01*
X374222736Y-153945733D01*
X374030293Y-153798067D01*
X374030292Y-153798066D01*
X374030289Y-153798064D01*
X373820212Y-153676776D01*
X373820205Y-153676773D01*
X373596104Y-153583947D01*
X373361785Y-153521161D01*
X373121289Y-153489500D01*
X373121288Y-153489500D01*
X372878712Y-153489500D01*
X372878711Y-153489500D01*
X372638214Y-153521161D01*
X372403895Y-153583947D01*
X372179794Y-153676773D01*
X372179785Y-153676777D01*
X372019478Y-153769331D01*
X371976593Y-153794091D01*
X371969706Y-153798067D01*
X371777263Y-153945733D01*
X371777256Y-153945739D01*
X371605739Y-154117256D01*
X371605733Y-154117263D01*
X371458067Y-154309706D01*
X371336777Y-154519785D01*
X371336773Y-154519794D01*
X371243947Y-154743895D01*
X371181161Y-154978214D01*
X371149500Y-155218711D01*
X371149500Y-155461288D01*
X371181161Y-155701785D01*
X371243947Y-155936104D01*
X371282469Y-156029104D01*
X371336776Y-156160212D01*
X371458064Y-156370289D01*
X371458066Y-156370292D01*
X371458067Y-156370293D01*
X371605732Y-156562735D01*
X371605739Y-156562743D01*
X371627772Y-156584776D01*
X371661257Y-156646099D01*
X371656273Y-156715791D01*
X371614401Y-156771724D01*
X371548937Y-156796141D01*
X371540091Y-156796457D01*
X359690447Y-156796457D01*
X359623408Y-156776772D01*
X359577653Y-156723968D01*
X359567709Y-156654810D01*
X359596734Y-156591254D01*
X359602766Y-156584776D01*
X363588831Y-152598711D01*
X381149500Y-152598711D01*
X381149500Y-152841288D01*
X381181161Y-153081785D01*
X381243947Y-153316104D01*
X381336773Y-153540205D01*
X381336777Y-153540214D01*
X381337998Y-153542328D01*
X381458064Y-153750289D01*
X381458066Y-153750292D01*
X381458067Y-153750293D01*
X381605733Y-153942736D01*
X381605739Y-153942743D01*
X381777256Y-154114260D01*
X381777263Y-154114266D01*
X381781169Y-154117263D01*
X381969711Y-154261936D01*
X382179788Y-154383224D01*
X382403900Y-154476054D01*
X382638211Y-154538838D01*
X382818586Y-154562584D01*
X382878711Y-154570500D01*
X382878712Y-154570500D01*
X383121289Y-154570500D01*
X383169388Y-154564167D01*
X383361789Y-154538838D01*
X383596100Y-154476054D01*
X383820212Y-154383224D01*
X384030289Y-154261936D01*
X384222738Y-154114265D01*
X384394265Y-153942738D01*
X384541936Y-153750289D01*
X384663224Y-153540212D01*
X384756054Y-153316100D01*
X384818838Y-153081789D01*
X384850500Y-152841288D01*
X384850500Y-152598712D01*
X384818838Y-152358211D01*
X384756054Y-152123900D01*
X384663224Y-151899788D01*
X384541936Y-151689711D01*
X384394265Y-151497262D01*
X384394260Y-151497256D01*
X384222743Y-151325739D01*
X384222736Y-151325733D01*
X384030293Y-151178067D01*
X384030292Y-151178066D01*
X384030289Y-151178064D01*
X383820212Y-151056776D01*
X383818826Y-151056202D01*
X383596104Y-150963947D01*
X383361785Y-150901161D01*
X383121289Y-150869500D01*
X383121288Y-150869500D01*
X382878712Y-150869500D01*
X382878711Y-150869500D01*
X382638214Y-150901161D01*
X382403895Y-150963947D01*
X382179794Y-151056773D01*
X382179785Y-151056777D01*
X381969706Y-151178067D01*
X381777263Y-151325733D01*
X381777256Y-151325739D01*
X381605739Y-151497256D01*
X381605733Y-151497263D01*
X381458067Y-151689706D01*
X381336777Y-151899785D01*
X381336773Y-151899794D01*
X381243947Y-152123895D01*
X381181161Y-152358214D01*
X381149500Y-152598711D01*
X363588831Y-152598711D01*
X363680570Y-152506972D01*
X367124473Y-149063069D01*
X370839414Y-145348128D01*
X370941232Y-145207988D01*
X371019873Y-145053645D01*
X371073402Y-144888901D01*
X371100500Y-144717811D01*
X371100500Y-144544589D01*
X371100500Y-142598711D01*
X380149500Y-142598711D01*
X380149500Y-142841288D01*
X380181161Y-143081785D01*
X380243947Y-143316104D01*
X380336773Y-143540205D01*
X380336776Y-143540212D01*
X380458064Y-143750289D01*
X380458066Y-143750292D01*
X380458067Y-143750293D01*
X380605733Y-143942736D01*
X380605739Y-143942743D01*
X380777256Y-144114260D01*
X380777263Y-144114266D01*
X380856880Y-144175358D01*
X380969711Y-144261936D01*
X381179788Y-144383224D01*
X381403900Y-144476054D01*
X381638211Y-144538838D01*
X381818586Y-144562584D01*
X381878711Y-144570500D01*
X381878712Y-144570500D01*
X382121289Y-144570500D01*
X382169388Y-144564167D01*
X382361789Y-144538838D01*
X382596100Y-144476054D01*
X382820212Y-144383224D01*
X383030289Y-144261936D01*
X383222738Y-144114265D01*
X383394265Y-143942738D01*
X383541936Y-143750289D01*
X383663224Y-143540212D01*
X383756054Y-143316100D01*
X383818838Y-143081789D01*
X383850500Y-142841288D01*
X383850500Y-142598712D01*
X383818838Y-142358211D01*
X383756054Y-142123900D01*
X383663224Y-141899788D01*
X383541936Y-141689711D01*
X383394265Y-141497262D01*
X383394260Y-141497256D01*
X383222743Y-141325739D01*
X383222736Y-141325733D01*
X383030293Y-141178067D01*
X383030292Y-141178066D01*
X383030289Y-141178064D01*
X382820212Y-141056776D01*
X382820205Y-141056773D01*
X382596104Y-140963947D01*
X382361785Y-140901161D01*
X382121289Y-140869500D01*
X382121288Y-140869500D01*
X381878712Y-140869500D01*
X381878711Y-140869500D01*
X381638214Y-140901161D01*
X381403895Y-140963947D01*
X381179794Y-141056773D01*
X381179785Y-141056777D01*
X380969706Y-141178067D01*
X380777263Y-141325733D01*
X380777256Y-141325739D01*
X380605739Y-141497256D01*
X380605733Y-141497263D01*
X380458067Y-141689706D01*
X380336777Y-141899785D01*
X380336773Y-141899794D01*
X380243947Y-142123895D01*
X380181161Y-142358214D01*
X380149500Y-142598711D01*
X371100500Y-142598711D01*
X371100500Y-128759983D01*
X379199500Y-128759983D01*
X379199500Y-130960001D01*
X379199501Y-130960018D01*
X379210000Y-131062796D01*
X379210001Y-131062799D01*
X379265185Y-131229331D01*
X379265186Y-131229334D01*
X379357288Y-131378656D01*
X379481344Y-131502712D01*
X379630666Y-131594814D01*
X379797203Y-131649999D01*
X379899991Y-131660500D01*
X382100008Y-131660499D01*
X382202797Y-131649999D01*
X382369334Y-131594814D01*
X382518656Y-131502712D01*
X382642712Y-131378656D01*
X382734814Y-131229334D01*
X382789999Y-131062797D01*
X382800500Y-130960009D01*
X382800499Y-128759992D01*
X382789999Y-128657203D01*
X382734814Y-128490666D01*
X382642712Y-128341344D01*
X382518656Y-128217288D01*
X382369334Y-128125186D01*
X382202797Y-128070001D01*
X382202795Y-128070000D01*
X382100010Y-128059500D01*
X379899998Y-128059500D01*
X379899981Y-128059501D01*
X379797203Y-128070000D01*
X379797200Y-128070001D01*
X379630668Y-128125185D01*
X379630663Y-128125187D01*
X379481342Y-128217289D01*
X379357289Y-128341342D01*
X379265187Y-128490663D01*
X379265186Y-128490666D01*
X379210001Y-128657203D01*
X379210001Y-128657204D01*
X379210000Y-128657204D01*
X379199500Y-128759983D01*
X371100500Y-128759983D01*
X371100500Y-125128726D01*
X371120185Y-125061687D01*
X371136814Y-125041050D01*
X371235850Y-124942014D01*
X379200000Y-124942014D01*
X379200000Y-125177985D01*
X379230799Y-125411914D01*
X379291870Y-125639837D01*
X379382160Y-125857819D01*
X379382165Y-125857828D01*
X379500144Y-126062171D01*
X379500145Y-126062172D01*
X379562721Y-126143723D01*
X380284152Y-125422292D01*
X380291049Y-125438942D01*
X380378599Y-125569970D01*
X380490030Y-125681401D01*
X380621058Y-125768951D01*
X380637706Y-125775846D01*
X379916275Y-126497277D01*
X379997827Y-126559854D01*
X379997828Y-126559855D01*
X380202171Y-126677834D01*
X380202180Y-126677839D01*
X380420163Y-126768129D01*
X380420161Y-126768129D01*
X380648085Y-126829200D01*
X380882014Y-126859999D01*
X380882029Y-126860000D01*
X381117971Y-126860000D01*
X381117985Y-126859999D01*
X381351914Y-126829200D01*
X381579837Y-126768129D01*
X381797819Y-126677839D01*
X381797828Y-126677834D01*
X382002181Y-126559850D01*
X382083723Y-126497279D01*
X382083723Y-126497276D01*
X381362293Y-125775847D01*
X381378942Y-125768951D01*
X381509970Y-125681401D01*
X381621401Y-125569970D01*
X381708951Y-125438942D01*
X381715846Y-125422293D01*
X382437276Y-126143723D01*
X382437279Y-126143723D01*
X382499850Y-126062181D01*
X382617834Y-125857828D01*
X382617839Y-125857819D01*
X382708129Y-125639837D01*
X382769200Y-125411914D01*
X382799999Y-125177985D01*
X382800000Y-125177971D01*
X382800000Y-124942028D01*
X382799999Y-124942014D01*
X382769200Y-124708085D01*
X382708129Y-124480162D01*
X382617839Y-124262180D01*
X382617834Y-124262171D01*
X382499855Y-124057828D01*
X382499854Y-124057827D01*
X382437277Y-123976275D01*
X381715846Y-124697705D01*
X381708951Y-124681058D01*
X381621401Y-124550030D01*
X381509970Y-124438599D01*
X381378942Y-124351049D01*
X381362293Y-124344152D01*
X382083723Y-123622721D01*
X382002172Y-123560145D01*
X382002171Y-123560144D01*
X381797828Y-123442165D01*
X381797819Y-123442160D01*
X381579836Y-123351870D01*
X381579838Y-123351870D01*
X381351914Y-123290799D01*
X381117985Y-123260000D01*
X380882014Y-123260000D01*
X380648085Y-123290799D01*
X380420162Y-123351870D01*
X380202180Y-123442160D01*
X380202171Y-123442165D01*
X379997828Y-123560144D01*
X379997818Y-123560150D01*
X379916275Y-123622720D01*
X379916275Y-123622721D01*
X380637706Y-124344152D01*
X380621058Y-124351049D01*
X380490030Y-124438599D01*
X380378599Y-124550030D01*
X380291049Y-124681058D01*
X380284153Y-124697706D01*
X379562721Y-123976275D01*
X379562720Y-123976275D01*
X379500150Y-124057818D01*
X379500144Y-124057828D01*
X379382165Y-124262171D01*
X379382160Y-124262180D01*
X379291870Y-124480162D01*
X379230799Y-124708085D01*
X379200000Y-124942014D01*
X371235850Y-124942014D01*
X376035849Y-120142014D01*
X379200000Y-120142014D01*
X379200000Y-120377985D01*
X379230799Y-120611914D01*
X379291870Y-120839837D01*
X379382160Y-121057819D01*
X379382165Y-121057828D01*
X379500144Y-121262171D01*
X379500145Y-121262172D01*
X379562721Y-121343723D01*
X380284152Y-120622292D01*
X380291049Y-120638942D01*
X380378599Y-120769970D01*
X380490030Y-120881401D01*
X380621058Y-120968951D01*
X380637706Y-120975846D01*
X379916275Y-121697277D01*
X379997827Y-121759854D01*
X379997828Y-121759855D01*
X380202171Y-121877834D01*
X380202180Y-121877839D01*
X380420163Y-121968129D01*
X380420161Y-121968129D01*
X380648085Y-122029200D01*
X380882014Y-122059999D01*
X380882029Y-122060000D01*
X381117971Y-122060000D01*
X381117985Y-122059999D01*
X381351914Y-122029200D01*
X381579837Y-121968129D01*
X381797819Y-121877839D01*
X381797828Y-121877834D01*
X382002181Y-121759850D01*
X382083723Y-121697279D01*
X382083723Y-121697276D01*
X381362293Y-120975847D01*
X381378942Y-120968951D01*
X381509970Y-120881401D01*
X381621401Y-120769970D01*
X381708951Y-120638942D01*
X381715846Y-120622293D01*
X382437276Y-121343723D01*
X382437279Y-121343723D01*
X382499850Y-121262181D01*
X382617834Y-121057828D01*
X382617839Y-121057819D01*
X382708129Y-120839837D01*
X382769200Y-120611914D01*
X382799999Y-120377985D01*
X382800000Y-120377971D01*
X382800000Y-120142028D01*
X382799999Y-120142014D01*
X382769200Y-119908085D01*
X382708129Y-119680162D01*
X382617839Y-119462180D01*
X382617834Y-119462171D01*
X382499855Y-119257828D01*
X382499854Y-119257827D01*
X382437277Y-119176275D01*
X381715846Y-119897705D01*
X381708951Y-119881058D01*
X381621401Y-119750030D01*
X381509970Y-119638599D01*
X381378942Y-119551049D01*
X381362293Y-119544152D01*
X382083723Y-118822721D01*
X382002172Y-118760145D01*
X382002171Y-118760144D01*
X381797828Y-118642165D01*
X381797819Y-118642160D01*
X381579836Y-118551870D01*
X381579838Y-118551870D01*
X381351914Y-118490799D01*
X381117985Y-118460000D01*
X380882014Y-118460000D01*
X380648085Y-118490799D01*
X380420162Y-118551870D01*
X380202180Y-118642160D01*
X380202171Y-118642165D01*
X379997828Y-118760144D01*
X379997818Y-118760150D01*
X379916275Y-118822720D01*
X379916275Y-118822721D01*
X380637706Y-119544152D01*
X380621058Y-119551049D01*
X380490030Y-119638599D01*
X380378599Y-119750030D01*
X380291049Y-119881058D01*
X380284153Y-119897706D01*
X379562721Y-119176275D01*
X379562720Y-119176275D01*
X379500150Y-119257818D01*
X379500144Y-119257828D01*
X379382165Y-119462171D01*
X379382160Y-119462180D01*
X379291870Y-119680162D01*
X379230799Y-119908085D01*
X379200000Y-120142014D01*
X376035849Y-120142014D01*
X379498107Y-116679756D01*
X379559428Y-116646273D01*
X379629120Y-116651257D01*
X379673465Y-116679756D01*
X379810296Y-116816587D01*
X379810303Y-116816594D01*
X379948890Y-116922935D01*
X379997550Y-116960273D01*
X380128918Y-117036118D01*
X380201943Y-117078280D01*
X380201948Y-117078282D01*
X380201951Y-117078284D01*
X380420007Y-117168606D01*
X380647986Y-117229693D01*
X380881989Y-117260500D01*
X380881996Y-117260500D01*
X381118004Y-117260500D01*
X381118011Y-117260500D01*
X381352014Y-117229693D01*
X381579993Y-117168606D01*
X381798049Y-117078284D01*
X382002450Y-116960273D01*
X382189699Y-116816592D01*
X382356592Y-116649699D01*
X382500273Y-116462450D01*
X382618284Y-116258049D01*
X382708606Y-116039993D01*
X382769693Y-115812014D01*
X382800500Y-115578011D01*
X382800500Y-115341989D01*
X382769693Y-115107986D01*
X382708606Y-114880007D01*
X382618284Y-114661951D01*
X382618282Y-114661948D01*
X382618280Y-114661943D01*
X382535617Y-114518768D01*
X382500273Y-114457550D01*
X382356592Y-114270301D01*
X382356587Y-114270295D01*
X382189704Y-114103412D01*
X382189697Y-114103406D01*
X382002454Y-113959730D01*
X382002453Y-113959729D01*
X382002450Y-113959727D01*
X381920957Y-113912677D01*
X381798056Y-113841719D01*
X381798045Y-113841714D01*
X381579993Y-113751394D01*
X381352010Y-113690306D01*
X381118020Y-113659501D01*
X381118017Y-113659500D01*
X381118011Y-113659500D01*
X380881989Y-113659500D01*
X380881983Y-113659500D01*
X380881979Y-113659501D01*
X380647989Y-113690306D01*
X380420006Y-113751394D01*
X380201954Y-113841714D01*
X380201943Y-113841719D01*
X379997545Y-113959730D01*
X379810302Y-114103406D01*
X379810295Y-114103412D01*
X379643412Y-114270295D01*
X379643406Y-114270302D01*
X379612189Y-114310986D01*
X379555761Y-114352189D01*
X379513813Y-114359500D01*
X379248134Y-114359500D01*
X379074912Y-114359500D01*
X379035251Y-114365781D01*
X378903825Y-114386597D01*
X378739075Y-114440128D01*
X378584734Y-114518768D01*
X378504779Y-114576859D01*
X378444595Y-114620586D01*
X378444593Y-114620588D01*
X378444592Y-114620588D01*
X369160588Y-123904592D01*
X369160588Y-123904593D01*
X369160586Y-123904595D01*
X369116859Y-123964779D01*
X369058768Y-124044734D01*
X368980128Y-124199075D01*
X368926597Y-124363825D01*
X368899500Y-124534912D01*
X368899500Y-144123996D01*
X368879815Y-144191035D01*
X368863181Y-144211677D01*
X357536888Y-155537969D01*
X357536888Y-155537970D01*
X357536886Y-155537972D01*
X357493159Y-155598156D01*
X357435068Y-155678111D01*
X357356428Y-155832452D01*
X357302897Y-155997202D01*
X357275800Y-156168289D01*
X357275800Y-156672457D01*
X357256115Y-156739496D01*
X357203311Y-156785251D01*
X357151800Y-156796457D01*
X344360800Y-156796457D01*
X344293761Y-156776772D01*
X344248006Y-156723968D01*
X344236800Y-156672457D01*
X344236800Y-154041604D01*
X344256485Y-153974565D01*
X344273119Y-153953923D01*
X344910942Y-153316100D01*
X345549914Y-152677128D01*
X345651732Y-152536988D01*
X345730373Y-152382645D01*
X345783902Y-152217901D01*
X345811000Y-152046811D01*
X345811000Y-151873589D01*
X345783902Y-151702499D01*
X345730373Y-151537755D01*
X345651732Y-151383412D01*
X345549914Y-151243272D01*
X345427428Y-151120786D01*
X345287288Y-151018968D01*
X345132945Y-150940327D01*
X344968201Y-150886798D01*
X344968199Y-150886797D01*
X344968198Y-150886797D01*
X344836771Y-150865981D01*
X344797111Y-150859700D01*
X344623889Y-150859700D01*
X344584228Y-150865981D01*
X344452802Y-150886797D01*
X344288052Y-150940328D01*
X344133711Y-151018968D01*
X344053756Y-151077059D01*
X343993572Y-151120786D01*
X343993570Y-151120788D01*
X343993569Y-151120788D01*
X342296888Y-152817469D01*
X342296888Y-152817470D01*
X342296886Y-152817472D01*
X342279583Y-152841288D01*
X342195068Y-152957611D01*
X342116428Y-153111952D01*
X342062897Y-153276702D01*
X342035800Y-153447789D01*
X342035800Y-156672457D01*
X342016115Y-156739496D01*
X341963311Y-156785251D01*
X341911800Y-156796457D01*
X293560800Y-156796457D01*
X293493761Y-156776772D01*
X293448006Y-156723968D01*
X293436800Y-156672457D01*
X293436800Y-156368884D01*
X293421545Y-156272574D01*
X293421545Y-156272569D01*
X293417597Y-156247648D01*
X293409703Y-156197800D01*
X293356173Y-156033055D01*
X293354159Y-156029102D01*
X293277532Y-155878712D01*
X293175714Y-155738572D01*
X293053228Y-155616086D01*
X291553428Y-154116286D01*
X291413288Y-154014468D01*
X291258945Y-153935827D01*
X291094201Y-153882298D01*
X291094199Y-153882297D01*
X291094198Y-153882297D01*
X290962771Y-153861481D01*
X290923111Y-153855200D01*
X290749889Y-153855200D01*
X290710228Y-153861481D01*
X290578802Y-153882297D01*
X290578799Y-153882298D01*
X290466902Y-153918656D01*
X290414052Y-153935828D01*
X290259711Y-154014468D01*
X290179756Y-154072559D01*
X290119572Y-154116286D01*
X290119570Y-154116288D01*
X290119569Y-154116288D01*
X289997088Y-154238769D01*
X289997088Y-154238770D01*
X289997086Y-154238772D01*
X289953359Y-154298956D01*
X289895268Y-154378911D01*
X289816628Y-154533252D01*
X289763097Y-154698002D01*
X289755828Y-154743900D01*
X289736000Y-154869089D01*
X289736000Y-155042311D01*
X289763098Y-155213401D01*
X289816627Y-155378145D01*
X289895268Y-155532488D01*
X289997086Y-155672628D01*
X289997088Y-155672630D01*
X290909234Y-156584776D01*
X290942719Y-156646099D01*
X290937735Y-156715791D01*
X290895863Y-156771724D01*
X290830399Y-156796141D01*
X290821553Y-156796457D01*
X240180802Y-156796457D01*
X240157838Y-156789714D01*
X240134027Y-156787296D01*
X240124925Y-156780049D01*
X240113763Y-156776772D01*
X240098091Y-156758685D01*
X240079365Y-156743777D01*
X240071449Y-156727940D01*
X240068008Y-156723968D01*
X240063381Y-156712310D01*
X240063134Y-156711582D01*
X240016173Y-156567055D01*
X240013973Y-156562738D01*
X239937532Y-156412712D01*
X239937530Y-156412709D01*
X239937529Y-156412707D01*
X239905689Y-156368884D01*
X239835714Y-156272572D01*
X239713228Y-156150086D01*
X237679428Y-154116286D01*
X237539288Y-154014468D01*
X237384945Y-153935827D01*
X237220201Y-153882298D01*
X237220199Y-153882297D01*
X237220198Y-153882297D01*
X237088771Y-153861481D01*
X237049111Y-153855200D01*
X236875889Y-153855200D01*
X236836228Y-153861481D01*
X236704802Y-153882297D01*
X236704799Y-153882298D01*
X236592902Y-153918656D01*
X236540052Y-153935828D01*
X236385711Y-154014468D01*
X236305756Y-154072559D01*
X236245572Y-154116286D01*
X236245570Y-154116288D01*
X236245569Y-154116288D01*
X236123088Y-154238769D01*
X236123088Y-154238770D01*
X236123086Y-154238772D01*
X236079359Y-154298956D01*
X236021268Y-154378911D01*
X235942628Y-154533252D01*
X235889097Y-154698002D01*
X235881828Y-154743900D01*
X235862000Y-154869089D01*
X235862000Y-155042311D01*
X235889098Y-155213401D01*
X235942627Y-155378145D01*
X236021268Y-155532488D01*
X236123086Y-155672628D01*
X236123088Y-155672630D01*
X237035234Y-156584776D01*
X237068719Y-156646099D01*
X237063735Y-156715791D01*
X237021863Y-156771724D01*
X236956399Y-156796141D01*
X236947553Y-156796457D01*
X50624500Y-156796457D01*
X50557461Y-156776772D01*
X50511706Y-156723968D01*
X50500500Y-156672457D01*
X50500500Y-44344500D01*
X50520185Y-44277461D01*
X50572989Y-44231706D01*
X50624500Y-44220500D01*
X64065500Y-44220500D01*
X64132539Y-44240185D01*
G37*
%TD.AperFunction*%
%TD*%
M02*
