%TF.GenerationSoftware,KiCad,Pcbnew,9.0.6*%
%TF.CreationDate,2025-11-29T14:18:15+08:00*%
%TF.ProjectId,Mount Winchester FL16,4d6f756e-7420-4576-996e-636865737465,1.1*%
%TF.SameCoordinates,Original*%
%TF.FileFunction,Plated,1,2,PTH,Drill*%
%TF.FilePolarity,Positive*%
%FSLAX46Y46*%
G04 Gerber Fmt 4.6, Leading zero omitted, Abs format (unit mm)*
G04 Created by KiCad (PCBNEW 9.0.6) date 2025-11-29 14:18:15*
%MOMM*%
%LPD*%
G01*
G04 APERTURE LIST*
%TA.AperFunction,ViaDrill*%
%ADD10C,0.300000*%
%TD*%
%TA.AperFunction,ComponentDrill*%
%ADD11C,0.800000*%
%TD*%
%TA.AperFunction,ComponentDrill*%
%ADD12C,0.900000*%
%TD*%
%TA.AperFunction,ComponentDrill*%
%ADD13C,1.600000*%
%TD*%
%TA.AperFunction,ComponentDrill*%
%ADD14C,3.200000*%
%TD*%
%TA.AperFunction,ComponentDrill*%
%ADD15C,3.500000*%
%TD*%
G04 APERTURE END LIST*
D10*
X58420000Y-58420000D03*
X58420000Y-106680000D03*
X58420000Y-129540000D03*
X78740000Y-114300000D03*
X83820000Y-99060000D03*
X86360000Y-60960000D03*
X86360000Y-119380000D03*
X91440000Y-76200000D03*
X99060000Y-81280000D03*
X104140000Y-114300000D03*
X106680000Y-66040000D03*
X109220000Y-127000000D03*
X109220000Y-149860000D03*
X111760000Y-53340000D03*
X116840000Y-93980000D03*
X119380000Y-119380000D03*
X121920000Y-48260000D03*
X124460000Y-111760000D03*
X129540000Y-66040000D03*
X129540000Y-76200000D03*
X137160000Y-124460000D03*
X139700000Y-109220000D03*
X144780000Y-116840000D03*
X149860000Y-91440000D03*
X154940000Y-114300000D03*
X162560000Y-149860000D03*
X167640000Y-134620000D03*
X170180000Y-91440000D03*
X172720000Y-63500000D03*
X172720000Y-73660000D03*
X175260000Y-124460000D03*
X180340000Y-76200000D03*
X180340000Y-99060000D03*
X185420000Y-152400000D03*
X190500000Y-99060000D03*
X193040000Y-73660000D03*
X193040000Y-121920000D03*
X195580000Y-83820000D03*
X198120000Y-132080000D03*
X215900000Y-71120000D03*
X215900000Y-134620000D03*
X233680000Y-76200000D03*
X236220000Y-60960000D03*
X236962500Y-154955700D03*
X238760000Y-129540000D03*
X256540000Y-83820000D03*
X259080000Y-60960000D03*
X259080000Y-124460000D03*
X261620000Y-99060000D03*
X276860000Y-83820000D03*
X279400000Y-60960000D03*
X279400000Y-116840000D03*
X287020000Y-48260000D03*
X287020000Y-99060000D03*
X287020000Y-142240000D03*
X290836500Y-154955700D03*
X294640000Y-111760000D03*
X297180000Y-60960000D03*
X297180000Y-139700000D03*
X299720000Y-124460000D03*
X304800000Y-83820000D03*
X309880000Y-91440000D03*
X317500000Y-124460000D03*
X322580000Y-134620000D03*
X325120000Y-88900000D03*
X327660000Y-114300000D03*
X332740000Y-81280000D03*
X335280000Y-142240000D03*
X340360000Y-114300000D03*
X342900000Y-96520000D03*
X344710500Y-151960200D03*
X345440000Y-73660000D03*
X345440000Y-127000000D03*
X355600000Y-86360000D03*
X358140000Y-63500000D03*
X359675500Y-154955700D03*
X360680000Y-116840000D03*
X363220000Y-99060000D03*
X368300000Y-55880000D03*
X375920000Y-147320000D03*
X381000000Y-50800000D03*
X381000000Y-73660000D03*
X381000000Y-104140000D03*
D11*
%TO.C,R1*%
X86280000Y-152400000D03*
X96440000Y-152400000D03*
D12*
%TO.C,D1*%
X53340000Y-152400000D03*
X55880000Y-152400000D03*
D13*
%TO.C,CN4*%
X64260000Y-46260000D03*
%TO.C,CN3*%
X64260000Y-152400000D03*
%TO.C,CN4*%
X69060000Y-46260000D03*
%TO.C,CN3*%
X69060000Y-152400000D03*
%TO.C,CN4*%
X73860000Y-46260000D03*
%TO.C,CN3*%
X73860000Y-152400000D03*
%TO.C,CN4*%
X78660000Y-46260000D03*
%TO.C,CN3*%
X78660000Y-152400000D03*
%TO.C,CN2*%
X208600000Y-46260000D03*
%TO.C,CN1*%
X208600000Y-152400000D03*
%TO.C,CN2*%
X213400000Y-46260000D03*
%TO.C,CN1*%
X213400000Y-152400000D03*
%TO.C,CN2*%
X218200000Y-46260000D03*
%TO.C,CN1*%
X218200000Y-152400000D03*
%TO.C,CN2*%
X223000000Y-46260000D03*
%TO.C,CN1*%
X223000000Y-152400000D03*
%TO.C,CN5*%
X381000000Y-115460000D03*
X381000000Y-120260000D03*
X381000000Y-125060000D03*
X381000000Y-129860000D03*
D14*
%TO.C,H16*%
X76510000Y-71260000D03*
%TO.C,H15*%
X76510000Y-132980000D03*
%TO.C,H14*%
X153110000Y-71260000D03*
%TO.C,H13*%
X153110000Y-132980000D03*
%TO.C,H18*%
X186200000Y-63500000D03*
%TO.C,H20*%
X186200000Y-140100000D03*
%TO.C,H17*%
X247920000Y-63500000D03*
%TO.C,H19*%
X247920000Y-140100000D03*
%TO.C,H24*%
X281860000Y-71260000D03*
%TO.C,H23*%
X281860000Y-132980000D03*
%TO.C,H22*%
X358460000Y-71260000D03*
%TO.C,H21*%
X358460000Y-132980000D03*
D15*
%TO.C,H11*%
X96872500Y-51200000D03*
%TO.C,H12*%
X96872500Y-146450000D03*
%TO.C,H9*%
X141322500Y-51200000D03*
%TO.C,H10*%
X141322500Y-146450000D03*
%TO.C,H7*%
X173072500Y-51200000D03*
%TO.C,H8*%
X173072500Y-146450000D03*
%TO.C,H5*%
X267260000Y-51200000D03*
%TO.C,H6*%
X267260000Y-146450000D03*
%TO.C,H3*%
X311710000Y-51200000D03*
%TO.C,H4*%
X311710000Y-146450000D03*
%TO.C,H1*%
X343460000Y-51200000D03*
%TO.C,H2*%
X343460000Y-146450000D03*
M02*
